<svg width="35" height="35" viewBox="0 0 35 35" fill="none" xmlns="http://www.w3.org/2000/svg" id="accessibility" >
<path d="M17.4913 11.1638C19.3596 11.1638 20.8741 9.64408 20.8741 7.7694C20.8741 5.89473 19.3596 4.375 17.4913 4.375C15.623 4.375 14.1085 5.89473 14.1085 7.7694C14.1085 9.64408 15.623 11.1638 17.4913 11.1638Z" fill="white"/>
<path d="M26.9632 13.2041L19.8579 13.844C19.5965 13.8675 19.3345 13.8793 19.0718 13.8793H15.9108C15.6483 13.8793 15.3862 13.8675 15.1247 13.844L8.01932 13.2041C7.53732 13.167 7.07217 13.3906 6.7991 13.7909C6.52602 14.1912 6.48648 14.7073 6.69533 15.1447C6.90418 15.5822 7.32985 15.8746 7.81185 15.9118L13.554 16.4345C14.2511 16.4979 14.7849 17.0843 14.785 17.7865V19.3466C14.785 19.7712 14.7056 20.1921 14.5509 20.5873L11.2839 28.936C11.0829 29.3788 11.1334 29.8958 11.4163 30.291C11.6991 30.6862 12.1713 30.8993 12.6536 30.8494C13.136 30.7998 13.555 30.4948 13.7519 30.0502L16.8772 22.4374C16.9796 22.1884 17.2216 22.0257 17.4901 22.0258H17.4924C17.7611 22.0258 18.0032 22.1883 18.1055 22.4376L21.2307 30.0501C21.5374 30.7339 22.3385 31.0387 23.02 30.7311C23.7015 30.4233 24.0053 29.6196 23.6987 28.9357L20.4316 20.5873C20.2769 20.192 20.1975 19.7712 20.1975 19.3466V17.7865C20.1976 17.0841 20.7313 16.4977 21.4285 16.4343L27.1707 15.9115C27.6556 15.8781 28.0854 15.5863 28.2965 15.147C28.5078 14.7078 28.468 14.1887 28.1924 13.7869C27.9167 13.3852 27.4475 13.1628 26.9632 13.2041Z" fill="white"/>
<circle cx="17.5" cy="17.5" r="16.5" stroke="white" stroke-width="2"/>
</svg>
