<svg width="28" height="28" viewBox="0 0 28 28" fill="none" xmlns="http://www.w3.org/2000/svg">
<g clip-path="url(#clip0_149_312)">
<path d="M27.9734 8.23208C27.9079 6.74433 27.6673 5.72152 27.3226 4.83523C26.9671 3.89447 26.4201 3.0522 25.7035 2.35202C25.0033 1.64095 24.1555 1.08841 23.2256 0.738425C22.3342 0.393784 21.3167 0.153198 19.829 0.0876025C18.3301 0.0164522 17.8543 0 14.0528 0C10.2513 0 9.77542 0.0164522 8.28212 0.0820473C6.79437 0.147642 5.77156 0.388443 4.88549 0.73287C3.94451 1.08841 3.10225 1.63539 2.40207 2.35202C1.69099 3.0522 1.13867 3.90002 0.788474 4.82989C0.443833 5.72152 0.203246 6.73877 0.137651 8.22652C0.066501 9.72538 0.0500488 10.2012 0.0500488 14.0027C0.0500488 17.8043 0.066501 18.2801 0.132096 19.7734C0.197691 21.2611 0.438491 22.284 0.783132 23.1702C1.13867 24.111 1.69099 24.9533 2.40207 25.6534C3.10225 26.3645 3.95007 26.9171 4.87994 27.267C5.77156 27.6117 6.78882 27.8523 8.27678 27.9179C9.76987 27.9837 10.2459 27.9999 14.0474 27.9999C17.849 27.9999 18.3248 27.9837 19.8181 27.9179C21.3058 27.8523 22.3286 27.6117 23.2147 27.267C25.0965 26.5395 26.5842 25.0518 27.3117 23.1702C27.6562 22.2786 27.897 21.2611 27.9626 19.7734C28.0281 18.2801 28.0446 17.8043 28.0446 14.0027C28.0446 10.2012 28.039 9.72538 27.9734 8.23208ZM25.452 19.664C25.3917 21.0315 25.1621 21.7699 24.9706 22.2622C24.5001 23.482 23.532 24.4501 22.3122 24.9206C21.8199 25.112 21.0761 25.3417 19.714 25.4017C18.2372 25.4676 17.7943 25.4838 14.0583 25.4838C10.3224 25.4838 9.87392 25.4676 8.40241 25.4017C7.03496 25.3417 6.29653 25.112 5.80425 24.9206C5.19723 24.6962 4.64469 24.3407 4.19621 23.8758C3.73128 23.4217 3.37574 22.8747 3.15139 22.2677C2.95995 21.7754 2.73026 21.0315 2.67022 19.6696C2.60441 18.1927 2.58817 17.7496 2.58817 14.0136C2.58817 10.2777 2.60441 9.82922 2.67022 8.35792C2.73026 6.99047 2.95995 6.25204 3.15139 5.75976C3.37574 5.15253 3.73128 4.6002 4.20177 4.15151C4.65559 3.68657 5.20257 3.33103 5.80981 3.1069C6.30209 2.91546 7.04607 2.68577 8.40797 2.62551C9.88482 2.55992 10.328 2.54347 14.0637 2.54347C17.8052 2.54347 18.2481 2.55992 19.7196 2.62551C21.087 2.68577 21.8255 2.91546 22.3177 3.1069C22.9248 3.33103 23.4773 3.68657 23.9258 4.15151C24.3907 4.60554 24.7463 5.15253 24.9706 5.75976C25.1621 6.25204 25.3917 6.99581 25.452 8.35792C25.5176 9.83478 25.534 10.2777 25.534 14.0136C25.534 17.7496 25.5176 18.1871 25.452 19.664Z" fill="white"/>
<path d="M20.6376 15.9807H17.9681V26H13.9236V15.9807H12V12.4596H13.9236V10.181C13.9236 8.55154 14.6791 6 18.0041 6L21 6.01284V9.43073H18.8263C18.4697 9.43073 17.9684 9.61324 17.9684 10.3905V12.4628H20.9909L20.6376 15.9807Z" fill="white"/>
</g>
<defs>
<clipPath id="clip0_149_312">
<rect width="28" height="28" fill="white"/>
</clipPath>
</defs>
</svg>
