<svg width="128" height="187" viewBox="0 0 128 187" fill="none" xmlns="http://www.w3.org/2000/svg" id="folder_1">
<g clip-path="url(#clip0_37_1197)">
<path d="M58.2371 110.726L55.5682 118.026C55.0827 119.353 54.0054 120.26 52.6731 120.462L17.2355 125.845C14.9487 126.192 13.5961 128.545 14.215 131.1L26.622 182.343C27.2408 184.898 29.5964 186.688 31.8831 186.34L116.244 173.526C118.531 173.179 119.883 170.826 119.264 168.271L104.314 106.526C103.695 103.972 101.34 102.182 99.0532 102.529L61.1322 108.29C59.8005 108.492 58.7226 109.398 58.2371 110.726Z" fill="white" stroke="#ffb794" stroke-width="2" stroke-miterlimit="10"/>
<path opacity="0.3" d="M58.2371 110.726L55.5682 118.026C55.0827 119.353 54.0054 120.26 52.6731 120.462L17.2355 125.845C14.9487 126.192 13.5961 128.545 14.215 131.1L26.622 182.343C27.2408 184.898 29.5964 186.688 31.8831 186.34L116.244 173.526C118.531 173.179 119.883 170.826 119.264 168.271L104.314 106.526C103.695 103.972 101.34 102.182 99.0532 102.529L61.1322 108.29C59.8005 108.492 58.7226 109.398 58.2371 110.726Z" fill="white" stroke="#ffb794" stroke-width="2" stroke-miterlimit="10"/>
<path d="M32.1989 16.9586C33.3137 16.9586 34.415 17.0184 35.5003 17.1318C42.7187 7.12938 54.4485 0.616211 67.7017 0.616211C84.5377 0.616211 98.9155 11.1209 104.703 25.9467C117.58 28.1485 127.385 39.3853 127.385 52.9256C127.385 68.0453 115.162 80.3026 100.084 80.3026H32.1989C14.7552 80.3026 0.614532 66.1226 0.614532 48.6309C0.614532 31.1392 14.7552 16.9586 32.1989 16.9586Z" fill="white" stroke="#ffb794" stroke-width="2" stroke-miterlimit="10"/>
<path d="M42.2559 75.165V134.627H85.744V88.1088L72.8362 75.165H42.2559Z" fill="white" stroke="#ffb794" stroke-miterlimit="10"/>
<path d="M42.2559 75.165V134.627H85.744V88.1088L72.8362 75.165H42.2559Z" fill="white" stroke="#ffb794" stroke-width="2" stroke-miterlimit="10"/>
<path d="M72.8362 88.1088V75.165L85.744 88.1088H72.8362Z" fill="white" stroke="#ffb794" stroke-width="2" stroke-miterlimit="10"/>
<path d="M73.7457 116.566L69.734 123.281C69.0039 124.502 67.7822 125.345 66.4493 125.548L31.0123 130.931C28.7249 131.278 26.9544 133.449 27.0571 135.779L29.1158 182.513C29.2184 184.843 31.1555 186.451 33.4428 186.103L117.804 173.289C120.09 172.942 121.861 170.771 121.758 168.441L119.277 112.13C119.175 109.799 117.238 108.192 114.951 108.539L77.0298 114.3C75.6975 114.502 74.4752 115.345 73.7457 116.566Z" fill="white" stroke="#ffb794" stroke-width="2" stroke-miterlimit="10"/>
<path d="M48.7031 57.4791C44.617 53.3817 42.3659 47.9334 42.3659 42.1388C42.3659 36.3441 44.6164 30.8965 48.7031 26.799C52.7886 22.7022 58.2211 20.4448 64.0003 20.4448C69.7795 20.4448 75.2114 22.7022 79.2975 26.799C87.7327 35.2571 87.7327 49.0205 79.2975 57.4791C79.1002 57.6776 78.8409 57.7762 78.5816 57.7762" fill="white"/>
<path d="M48.7031 57.4791C44.617 53.3817 42.3659 47.9334 42.3659 42.1388C42.3659 36.3441 44.6164 30.8965 48.7031 26.799C52.7886 22.7022 58.2211 20.4448 64.0003 20.4448C69.7795 20.4448 75.2114 22.7022 79.2975 26.799C87.7327 35.2571 87.7327 49.0205 79.2975 57.4791C79.1002 57.6776 78.8409 57.7762 78.5815 57.7762" stroke="#ffb794" stroke-width="2" stroke-miterlimit="10"/>
<path d="M72.6782 63.8581V41.2126C72.6782 39.1716 71.0276 37.5176 68.9934 37.5176H59.0071C56.9718 37.5176 55.323 39.1716 55.323 41.2126V63.8581H51.5663L63.9997 74.5981L76.4331 63.8581H72.6782Z" fill="white" stroke="#ffb794" stroke-width="2" stroke-miterlimit="10"/>
</g>
<defs>
<clipPath id="clip0_37_1197">
<rect width="128" height="187" fill="white"/>
</clipPath>
</defs>
</svg>
