<svg width="129" height="188" viewBox="0 0 129 188" fill="none" xmlns="http://www.w3.org/2000/svg" id="folder_2">
<path d="M58.6226 111.109L55.9536 118.41C55.4681 119.736 54.3909 120.643 53.0585 120.846L17.6209 126.229C15.3342 126.576 13.9816 128.929 14.6004 131.484L27.0074 182.727C27.6263 185.282 29.9818 187.072 32.2685 186.724L116.629 173.91C118.916 173.563 120.269 171.209 119.65 168.654L104.7 106.91C104.081 104.355 101.725 102.566 99.4387 102.913L61.5177 108.673C60.186 108.876 59.1081 109.782 58.6226 111.109Z" fill="#ffb794" stroke="white" stroke-width="2" stroke-miterlimit="10"/>
<path opacity="0.3" d="M58.6226 111.109L55.9536 118.41C55.4681 119.736 54.3909 120.643 53.0585 120.846L17.6209 126.229C15.3342 126.576 13.9816 128.929 14.6004 131.484L27.0074 182.727C27.6263 185.282 29.9818 187.072 32.2685 186.724L116.629 173.91C118.916 173.563 120.269 171.209 119.65 168.654L104.7 106.91C104.081 104.355 101.725 102.566 99.4387 102.913L61.5177 108.673C60.186 108.876 59.1081 109.782 58.6226 111.109Z" fill="#ffb794" stroke="white" stroke-width="2" stroke-miterlimit="10"/>
<path d="M32.5844 17.3424C33.6992 17.3424 34.8005 17.4022 35.8857 17.5156C43.1042 7.51317 54.8339 1 68.0872 1C84.9232 1 99.301 11.5046 105.089 26.3304C117.966 28.5323 127.771 39.7691 127.771 53.3094C127.771 68.4291 115.547 80.6864 100.47 80.6864H32.5844C15.1406 80.6864 1 66.5064 1 49.0147C1 31.523 15.1406 17.3424 32.5844 17.3424Z" fill="#ffb794" stroke="white" stroke-width="2" stroke-miterlimit="10"/>
<path d="M42.6414 75.5488V135.01H86.1295V88.4926L73.2217 75.5488H42.6414Z" fill="#ffb794" stroke="white" stroke-miterlimit="10"/>
<path d="M42.6414 75.5488V135.01H86.1295V88.4926L73.2217 75.5488H42.6414Z" fill="#ffb794" stroke="white" stroke-width="2" stroke-miterlimit="10"/>
<path d="M73.2217 88.4926V75.5488L86.1295 88.4926H73.2217Z" fill="#ffb794" stroke="white" stroke-width="2" stroke-miterlimit="10"/>
<path d="M74.1312 116.95L70.1195 123.665C69.3894 124.885 68.1677 125.729 66.8347 125.932L31.3977 131.315C29.1104 131.662 27.3399 133.833 27.4425 136.163L29.5013 182.897C29.6039 185.227 31.5409 186.835 33.8283 186.487L118.189 173.673C120.476 173.325 122.246 171.155 122.144 168.825L119.663 112.514C119.56 110.183 117.623 108.576 115.336 108.923L77.4153 114.684C76.083 114.885 74.8606 115.729 74.1312 116.95Z" fill="#ffb794" stroke="white" stroke-width="2" stroke-miterlimit="10"/>
<path d="M49.0886 57.8629C45.0025 53.7655 42.7514 48.3172 42.7514 42.5226C42.7514 36.7279 45.0019 31.2803 49.0886 27.1828C53.174 23.0859 58.6066 20.8286 64.3858 20.8286C70.1649 20.8286 75.5969 23.0859 79.683 27.1828C88.1182 35.6409 88.1182 49.4043 79.683 57.8629C79.4857 58.0614 79.2264 58.16 78.967 58.16" fill="#ffb794"/>
<path d="M49.0886 57.8629C45.0025 53.7655 42.7514 48.3172 42.7514 42.5226C42.7514 36.7279 45.0019 31.2803 49.0886 27.1828C53.174 23.0859 58.6066 20.8286 64.3858 20.8286C70.1649 20.8286 75.5969 23.0859 79.683 27.1828C88.1182 35.6409 88.1182 49.4043 79.683 57.8629C79.4857 58.0614 79.2264 58.16 78.967 58.16" stroke="white" stroke-width="2" stroke-miterlimit="10"/>
<path d="M73.0637 64.2418V41.5964C73.0637 39.5554 71.413 37.9014 69.3789 37.9014H59.3926C57.3572 37.9014 55.7084 39.5554 55.7084 41.5964V64.2418H51.9517L64.3851 74.9819L76.8186 64.2418H73.0637Z" fill="#ffb794" stroke="white" stroke-width="2" stroke-miterlimit="10"/>
</svg>
