<svg width="130" height="173" viewBox="0 0 130 173" fill="none" xmlns="http://www.w3.org/2000/svg" id="folder_0">
<path d="M45.8401 91.111L45.094 89.019C44.0363 86.0517 41.071 84.2091 37.9441 84.5749L8.22849 88.0523C4.52205 88.4858 1.86829 91.8438 2.30167 95.5526L10.7598 167.902C11.0576 170.446 13.3588 172.266 15.9007 171.968L122.219 159.528C124.761 159.23 126.581 156.927 126.284 154.384L118.972 91.8407C118.675 89.297 116.373 87.4768 113.831 87.7736L52.0934 94.9977C49.3581 95.318 46.7647 93.7063 45.8401 91.111Z" fill="#07116B" stroke="#B2CBF0" stroke-miterlimit="10"/>
<path d="M51.0472 27.8733L1 37.8496L15.6761 111.542L65.7234 101.566L51.0472 27.8733Z" fill="#07116B" stroke="#B2CBF0" stroke-miterlimit="10"/>
<path opacity="0.7" d="M51.0472 27.8733L1 37.8496L15.6761 111.542L65.7234 101.566L51.0472 27.8733Z" fill="#07116B" stroke="#B2CBF0" stroke-miterlimit="10"/>
<g opacity="0.4">
<path opacity="0.4" d="M44.5648 45.4755L13.7356 51.6228C12.2409 51.9208 10.771 50.8676 10.4526 49.2695C10.1336 47.6721 11.0881 46.1349 12.5835 45.8357L43.4133 39.6903C44.908 39.3917 46.3786 40.4448 46.6963 42.0429C47.0146 43.6404 46.0602 45.1776 44.5648 45.4755Z" stroke="#B2CBF0" stroke-miterlimit="10"/>
<path opacity="0.4" d="M46.9935 57.6612L16.1637 63.8079C14.6689 64.1065 13.1984 63.0527 12.88 61.4552C12.5617 59.8578 13.5155 58.32 15.0115 58.022L45.8407 51.8741C47.3355 51.5761 48.806 52.6305 49.1243 54.2274C49.4415 55.8267 48.4876 57.3626 46.9935 57.6612Z" stroke="#B2CBF0" stroke-miterlimit="10"/>
<path opacity="0.4" d="M49.4203 69.8467L18.5905 75.994C17.0958 76.292 15.6252 75.2388 15.3075 73.6407C14.9892 72.0432 15.9436 70.5061 17.4384 70.2081L48.2682 64.0602C49.7629 63.7622 51.2328 64.816 51.5512 66.4128C51.8695 68.0122 50.9151 69.5487 49.4203 69.8467Z" stroke="#B2CBF0" stroke-miterlimit="10"/>
<path opacity="0.4" d="M51.8478 82.0318L21.0179 88.1791C19.5232 88.4771 18.052 87.4233 17.7349 85.8258C17.4166 84.2277 18.3698 82.6906 19.8658 82.3926L50.695 76.244C52.1897 75.9467 53.6609 77.0011 53.9786 78.598C54.2963 80.1961 53.3431 81.7332 51.8478 82.0318Z" stroke="#B2CBF0" stroke-miterlimit="10"/>
<path opacity="0.4" d="M45.8494 95.8976L23.4454 100.365C21.9506 100.663 20.4807 99.6095 20.163 98.0114C19.844 96.4133 20.7978 94.8762 22.2938 94.5789L44.6966 90.1111C46.192 89.8125 47.6625 90.8663 47.9803 92.4638C48.298 94.0619 47.3442 95.5984 45.8494 95.8976Z" stroke="#B2CBF0" stroke-miterlimit="10"/>
</g>
<path d="M96.6796 50.7188L62.7414 55.3657L69.1405 102.145L103.079 97.4978L96.6796 50.7188Z" stroke="#B2CBF0" stroke-miterlimit="10"/>
<path opacity="0.7" d="M96.6796 50.7188L62.7414 55.3657L69.1405 102.145L103.079 97.4978L96.6796 50.7188Z" stroke="#B2CBF0" stroke-miterlimit="10"/>
<g opacity="0.4">
<path opacity="0.4" d="M91.5224 61.5686L70.6168 64.4307C69.6033 64.5701 68.6688 63.8603 68.5301 62.8463C68.3915 61.8323 69.1003 60.8967 70.1144 60.758L91.02 57.8952C92.0335 57.7565 92.968 58.4663 93.1067 59.4809C93.2454 60.4955 92.5359 61.4299 91.5224 61.5686Z" stroke="#B2CBF0" stroke-miterlimit="10"/>
<path opacity="0.4" d="M92.5807 69.3033L71.6751 72.1661C70.6616 72.3048 69.7271 71.595 69.5884 70.581C69.4498 69.5671 70.1586 68.6315 71.1727 68.4927L92.0783 65.63C93.0924 65.4919 94.0263 66.201 94.165 67.2156C94.3037 68.2296 93.5942 69.164 92.5807 69.3033Z" stroke="#B2CBF0" stroke-miterlimit="10"/>
<path opacity="0.4" d="M78.4936 79.1116L72.7334 79.9003C71.7199 80.0391 70.7854 79.3299 70.6467 78.3153C70.5081 77.3013 71.2169 76.3664 72.231 76.227L77.9912 75.4388C79.0053 75.2995 79.9393 76.0093 80.0779 77.0239C80.2166 78.0379 79.5077 78.9728 78.4936 79.1116Z" stroke="#B2CBF0" stroke-miterlimit="10"/>
<path opacity="0.4" d="M89.6633 77.5818L83.9031 78.3705C82.8896 78.5093 81.9551 77.7995 81.8164 76.7849C81.6771 75.7709 82.3866 74.8359 83.4007 74.6972L89.1615 73.9084C90.175 73.7697 91.1096 74.4795 91.2482 75.4941C91.3869 76.5081 90.6774 77.443 89.6633 77.5818Z" stroke="#B2CBF0" stroke-miterlimit="10"/>
<path opacity="0.4" d="M94.6966 84.7726L73.791 87.6353C72.7775 87.774 71.843 87.0649 71.7043 86.0503C71.5657 85.0363 72.2745 84.102 73.2886 83.9632L94.1942 81.1005C95.2077 80.9611 96.1422 81.6709 96.2809 82.6855C96.4196 83.6989 95.7107 84.6338 94.6966 84.7726Z" stroke="#B2CBF0" stroke-miterlimit="10"/>
<path opacity="0.4" d="M90.0413 93.2892L74.8493 95.3694C73.8358 95.5081 72.9013 94.7989 72.7626 93.7843C72.624 92.7703 73.3328 91.8354 74.3469 91.6966L89.5389 89.6164C90.5524 89.4777 91.487 90.1875 91.6256 91.2015C91.7643 92.2161 91.0548 93.1504 90.0413 93.2892Z" stroke="#B2CBF0" stroke-miterlimit="10"/>
</g>
<path d="M94.924 1L21.7644 7.37744L30.5466 108.217L103.706 101.839L94.924 1Z" fill="#07116B" stroke="#B2CBF0" stroke-miterlimit="10"/>
<path opacity="0.8" d="M94.924 1L21.7644 7.37744L30.5466 108.217L103.706 101.839L94.924 1Z" fill="#07116B" stroke="#B2CBF0" stroke-miterlimit="10"/>
<g opacity="0.4">
<path opacity="0.4" d="M82.7504 23.6915L37.683 27.6199C35.4968 27.8109 33.5711 26.1929 33.3809 24.0057C33.1906 21.8197 34.8079 19.8932 36.9934 19.7016L82.0608 15.772C84.2464 15.5822 86.172 17.2002 86.3623 19.3874C86.5532 21.574 84.9359 23.5006 82.7504 23.6915Z" stroke="#B2CBF0" stroke-miterlimit="10"/>
<path opacity="0.4" d="M84.2022 40.3653L39.1348 44.2943C36.9486 44.4853 35.0236 42.8667 34.8327 40.6801C34.6424 38.4941 36.2597 36.5663 38.4446 36.376L83.5126 32.4464C85.6982 32.256 87.6239 33.874 87.8148 36.0606C88.0056 38.2478 86.3884 40.175 84.2022 40.3653Z" stroke="#B2CBF0" stroke-miterlimit="10"/>
<path opacity="0.4" d="M85.6547 57.0387L40.5873 60.9683C38.4018 61.1593 36.4761 59.54 36.2858 57.3541C36.0943 55.1681 37.7122 53.2415 39.8978 53.0499L84.9652 49.1197C87.1513 48.9293 89.077 50.548 89.2673 52.7346C89.4588 54.9211 87.8409 56.8483 85.6547 57.0387Z" stroke="#B2CBF0" stroke-miterlimit="10"/>
<path opacity="0.4" d="M87.1078 73.7143L42.0404 77.6439C39.8548 77.8336 37.9292 76.2156 37.7383 74.0297C37.548 71.8431 39.1647 69.9153 41.3508 69.7262L86.4176 65.7966C88.6038 65.6056 90.5295 67.2236 90.7203 69.4102C90.91 71.5961 89.2934 73.5227 87.1078 73.7143Z" stroke="#B2CBF0" stroke-miterlimit="10"/>
<path opacity="0.4" d="M76.2434 91.4624L43.4929 94.3183C41.3079 94.508 39.381 92.8907 39.1914 90.7028C39.0005 88.5169 40.6178 86.5903 42.8033 86.4006L75.5532 83.544C77.7388 83.3537 79.6644 84.9704 79.8553 87.1576C80.0456 89.3448 78.4289 91.272 76.2434 91.4624Z" stroke="#B2CBF0" stroke-miterlimit="10"/>
</g>
<path d="M112.261 55.258L68.8491 57.354L71.7354 117.191L115.148 115.095L112.261 55.258Z" fill="#07116B" stroke="#B2CBF0" stroke-miterlimit="10"/>
<path opacity="0.8" d="M112.261 55.258L68.8491 57.354L71.7354 117.191L115.148 115.095L112.261 55.258Z" fill="#07116B" stroke="#B2CBF0" stroke-miterlimit="10"/>
<g opacity="0.4">
<path opacity="0.4" d="M104.546 68.3992L77.8034 69.6906C76.5063 69.7541 75.4045 68.7519 75.3417 67.4549C75.2783 66.1572 76.2794 65.0549 77.5764 64.9921L104.319 63.7001C105.616 63.6372 106.718 64.6382 106.781 65.9364C106.844 67.2341 105.843 68.3364 104.546 68.3992Z" stroke="#B2CBF0" stroke-miterlimit="10"/>
<path opacity="0.4" d="M105.024 78.2931L78.2809 79.5845C76.9839 79.6473 75.8821 78.6458 75.8193 77.3488C75.7558 76.0512 76.7575 74.9488 78.0539 74.886L104.797 73.5946C106.094 73.5318 107.196 74.5327 107.258 75.8309C107.321 77.128 106.32 78.2309 105.024 78.2931Z" stroke="#B2CBF0" stroke-miterlimit="10"/>
<path opacity="0.4" d="M86.1272 89.1235L78.7578 89.48C77.4614 89.5422 76.359 88.5413 76.2968 87.2436C76.2334 85.9466 77.2344 84.8437 78.5309 84.7815L85.9002 84.4257C87.1973 84.3628 88.2991 85.3637 88.3619 86.662C88.4247 87.9578 87.4236 89.0613 86.1272 89.1235Z" stroke="#B2CBF0" stroke-miterlimit="10"/>
<path opacity="0.4" d="M100.416 88.4339L93.047 88.7891C91.7505 88.8519 90.6487 87.851 90.5853 86.5533C90.5225 85.2557 91.5236 84.154 92.8206 84.0906L100.189 83.7347C101.486 83.6719 102.588 84.6734 102.651 85.9711C102.713 87.2681 101.713 88.371 100.416 88.4339Z" stroke="#B2CBF0" stroke-miterlimit="10"/>
<path opacity="0.4" d="M105.979 98.0833L79.2354 99.3741C77.9389 99.4369 76.8365 98.4354 76.7743 97.1377C76.7109 95.8407 77.7126 94.7384 79.009 94.6756L105.752 93.3842C107.049 93.3213 108.151 94.3222 108.214 95.6205C108.276 96.9175 107.275 98.0198 105.979 98.0833Z" stroke="#B2CBF0" stroke-miterlimit="10"/>
<path opacity="0.4" d="M99.1473 108.329L79.7135 109.269C78.4165 109.331 77.3147 108.33 77.2519 107.033C77.1891 105.735 78.1902 104.632 79.4866 104.57L98.9204 103.631C100.218 103.568 101.32 104.57 101.383 105.867C101.445 107.164 100.444 108.267 99.1473 108.329Z" stroke="#B2CBF0" stroke-miterlimit="10"/>
</g>
<path d="M55.3298 92.4502L54.7851 90.403C54.0128 87.5004 51.2496 85.7033 48.1227 86.0697L18.4071 89.5464C14.7 89.98 11.7652 93.2745 11.8517 96.9043L13.5379 167.724C13.597 170.213 15.7061 171.99 18.2479 171.693L124.566 159.253C127.108 158.955 129.12 156.696 129.061 154.206L127.604 92.9852C127.545 90.4963 125.436 88.7191 122.894 89.0164L61.1565 96.2405C58.4219 96.5609 56.005 94.9889 55.3298 92.4502Z" fill="#07116B" stroke="#B2CBF0" stroke-miterlimit="10"/>
<path opacity="0.3" d="M55.3298 92.4502L54.7851 90.403C54.0128 87.5004 51.2496 85.7033 48.1227 86.0697L18.4071 89.5464C14.7 89.98 11.7652 93.2745 11.8517 96.9043L13.5379 167.724C13.597 170.213 15.7061 171.99 18.2479 171.693L124.566 159.253C127.108 158.955 129.12 156.696 129.061 154.206L127.604 92.9852C127.545 90.4963 125.436 88.7191 122.894 89.0164L61.1565 96.2405C58.4219 96.5609 56.005 94.9889 55.3298 92.4502Z" fill="#07116B" stroke="#B2CBF0" stroke-miterlimit="10"/>
</svg>
