<svg width="27" height="27" viewBox="0 0 27 27" fill="none" xmlns="http://www.w3.org/2000/svg">
<path d="M15.6908 21.4771L15.925 21.5647L15.6908 21.4771C15.3488 22.392 14.96 23.1077 14.5666 23.5897C14.1666 24.0798 13.7982 24.2856 13.5 24.2856C13.2018 24.2856 12.8334 24.0798 12.4334 23.5897C12.04 23.1077 11.6512 22.3921 11.3091 21.4772C10.9122 20.4155 10.6036 19.168 10.3951 17.8009H16.6048C16.3964 19.168 16.0878 20.4155 15.6908 21.4771ZM15.6909 5.52282C16.0102 6.37685 16.2724 7.35148 16.4714 8.41221H10.5286C10.7276 7.35144 10.9898 6.37682 11.3092 5.52283L11.3092 5.52282C11.6512 4.6079 12.04 3.89223 12.4334 3.41032C12.8334 2.92023 13.2018 2.71441 13.5 2.71441C13.7982 2.71441 14.1666 2.92023 14.5666 3.41032C14.96 3.89223 15.3488 4.60791 15.6909 5.52282ZM5.8738 5.87335C7.10901 4.63812 8.59035 3.74023 10.2068 3.22426C9.93909 3.69904 9.69219 4.23715 9.46867 4.83498C9.07251 5.89448 8.75867 7.10486 8.53347 8.41221H3.98513C4.4797 7.48988 5.11239 6.63478 5.8738 5.87335ZM22.5157 4.48446C20.1079 2.07659 16.9052 0.75 13.5 0.75C10.0948 0.75 6.89213 2.07659 4.48431 4.48446C2.07653 6.89227 0.75 10.0948 0.75 13.5C0.75 16.9052 2.07653 20.1077 4.48431 22.5155C6.89213 24.9234 10.0948 26.25 13.5 26.25C16.9052 26.25 20.1079 24.9234 22.5157 22.5155C24.9235 20.1077 26.25 16.9052 26.25 13.5C26.25 10.0948 24.9235 6.89227 22.5157 4.48446ZM16.8283 15.8365H10.1717C10.113 15.0774 10.0827 14.2955 10.0827 13.5C10.0827 12.4264 10.1376 11.3776 10.2435 10.3767H16.7565C16.8624 11.3777 16.9173 12.4265 16.9173 13.5C16.9173 14.2955 16.8871 15.0774 16.8283 15.8365ZM2.71484 13.5C2.71484 12.4259 2.87136 11.3763 3.17226 10.3767H8.26935C8.16948 11.3852 8.11782 12.4328 8.11782 13.5C8.11782 14.2924 8.14637 15.0738 8.20185 15.8365H2.96782C2.80101 15.0779 2.71484 14.2957 2.71484 13.5ZM24.0322 15.8364H18.7981C18.8536 15.0738 18.8822 14.2923 18.8822 13.5C18.8822 12.4328 18.8305 11.3852 18.7306 10.3766H23.8277C24.1286 11.3763 24.2852 12.4258 24.2852 13.5C24.2852 14.2957 24.1989 15.0779 24.0322 15.8364ZM21.1262 5.87335C21.8876 6.63478 22.5203 7.48988 23.0149 8.41221H18.4665C18.2413 7.10486 17.9275 5.89448 17.5313 4.83498C17.3078 4.23715 17.0609 3.69903 16.7932 3.22425C18.4096 3.74019 19.8909 4.63807 21.1262 5.87335ZM9.46871 22.165C9.69224 22.7628 9.93914 23.301 10.2068 23.7758C8.59043 23.2598 7.10906 22.3619 5.87385 21.1267C4.90004 20.1528 4.13631 19.026 3.60368 17.8009H8.41023C8.63765 19.411 8.99434 20.8963 9.46871 22.165ZM21.1262 21.1267C19.891 22.3619 18.4096 23.2598 16.7932 23.7758C17.0609 23.301 17.3078 22.7629 17.5313 22.165C18.0057 20.8963 18.3624 19.411 18.5898 17.8009H23.3963C22.8637 19.026 22.1 20.1528 21.1262 21.1267Z" fill="white" stroke="white" stroke-width="0.5"/>
</svg>
