<svg width="98" height="98" viewBox="0 0 98 98" fill="none" xmlns="http://www.w3.org/2000/svg" id="info">
<path d="M44.1667 73.1668H53.8334V44.1668H44.1667V73.1668ZM49 0.666748C22.32 0.666748 0.666687 22.3201 0.666687 49.0001C0.666687 75.6801 22.32 97.3334 49 97.3334C75.68 97.3334 97.3334 75.6801 97.3334 49.0001C97.3334 22.3201 75.68 0.666748 49 0.666748ZM49 87.6668C27.685 87.6668 10.3334 70.3151 10.3334 49.0001C10.3334 27.6851 27.685 10.3334 49 10.3334C70.315 10.3334 87.6667 27.6851 87.6667 49.0001C87.6667 70.3151 70.315 87.6668 49 87.6668ZM44.1667 34.5001H53.8334V24.8334H44.1667V34.5001Z" fill="white"/>
</svg>
