<svg width="28" height="34" viewBox="0 0 28 34" fill="none" xmlns="http://www.w3.org/2000/svg">
<path d="M14 17C12.1667 17 10.6667 15.5 10.6667 13.6666C10.6667 11.8333 12.1667 10.3333 14 10.3333C15.8334 10.3333 17.3334 11.8333 17.3334 13.6666C17.3334 15.5 15.8334 17 14 17ZM24 14C24 7.94998 19.5834 3.66665 14 3.66665C8.41669 3.66665 4.00002 7.94998 4.00002 14C4.00002 17.9 7.25002 23.0666 14 29.2333C20.75 23.0666 24 17.9 24 14ZM14 0.333313C21 0.333313 27.3334 5.69998 27.3334 14C27.3334 19.5333 22.8834 26.0833 14 33.6666C5.11669 26.0833 0.666687 19.5333 0.666687 14C0.666687 5.69998 7.00002 0.333313 14 0.333313Z" fill="#07116B"/>
</svg>
