<svg width="80" height="73" viewBox="0 0 80 73" fill="none" xmlns="http://www.w3.org/2000/svg">
<path d="M79.6853 35.4092C79.7208 34.8121 80.0041 31.6546 79.6396 30.392C79.5802 29.8031 79.5754 28.4008 79.2983 27.6736C79.2027 26.8238 79.0191 25.9936 78.7665 25.1783C78.7481 25.1288 78.7276 25.08 78.7064 25.0326C78.7085 25.0339 78.7105 25.0353 78.7132 25.0373C78.4586 23.9089 77.9255 22.83 77.2906 21.8595C77.0415 21.1329 75.698 19.4705 75.4652 19.1519C75.057 18.5393 74.5921 17.9768 74.0556 17.4759C73.9969 17.417 73.9375 17.3573 73.8788 17.2984C73.7887 17.0693 73.644 16.9643 73.4712 16.9148C73.4863 16.9121 73.502 16.91 73.5177 16.9087C73.119 16.4451 72.6896 16.0154 72.2056 15.644C72.2179 15.6678 72.2247 15.6901 72.2281 15.7118C72.0636 15.2374 71.2219 14.8423 70.8649 14.5387L70.7455 14.4851C70.471 14.2601 70.2492 13.964 69.9079 13.8278C69.8608 13.7945 69.8137 13.7607 69.7665 13.7274C69.7625 13.7329 69.7604 13.7383 69.7577 13.743C69.7003 13.6576 69.6423 13.5431 69.5065 13.5519C68.3856 12.7204 67.2121 11.9762 65.9874 11.3154C65.838 11.2165 65.7069 11.0809 65.5123 11.0748C65.5089 11.083 65.5055 11.0897 65.5021 11.0979C65.3287 10.8559 64.7915 10.536 64.4829 10.5259C64.4972 10.5184 64.5123 10.5117 64.528 10.5049C63.7614 10.0386 62.9668 9.62586 62.1544 9.24973C62.1387 9.23888 62.1196 9.2294 62.0957 9.22194C61.5339 9.00575 60.6581 8.22366 60.1133 8.35175C60.129 8.32057 60.1509 8.29346 60.1795 8.27245C59.1433 7.73773 58.0859 7.24977 57.0203 6.77875C57.0066 6.81535 56.9937 6.85127 56.98 6.88786C56.9793 6.88854 56.9786 6.8899 56.978 6.89057C56.0209 5.97836 54.2351 5.54326 52.9688 4.9245C52.9709 4.93602 52.9736 4.94822 52.9763 4.95974C52.6323 4.58225 51.2977 4.23458 51.0226 4.07396C49.7044 3.44706 48.348 2.92182 46.9643 2.46843C45.1314 1.73242 43.2166 1.16381 41.2656 0.856802C40.4499 0.651452 39.6239 0.513874 38.7842 0.461689C37.8961 0.236007 36.9889 0.185178 36.0803 0.149936C35.2986 0.049633 34.5143 0.0110028 33.7265 0.044889C33.1347 -0.05067 32.5346 0.0320122 31.9503 0.0584434C31.9592 0.0536994 31.9674 0.0489553 31.9769 0.0442113C31.8254 0.00287012 31.6772 0.0211687 31.5298 0.064543C31.3769 0.0272682 31.2267 0.0238796 31.082 0.100462C31.0144 0.10114 30.9475 0.101818 30.8806 0.103173C30.6444 0.0469221 30.4123 0.0584434 30.1843 0.143159C29.6245 0.122827 29.0675 0.15468 28.5173 0.269893C27.6947 0.311912 26.8803 0.416281 26.0762 0.603333C25.5737 0.622987 25.087 0.781574 24.6146 0.906953C24.6303 0.898143 24.6467 0.892043 24.6638 0.889332C24.5034 0.854091 24.3682 0.926607 24.2337 0.997768C24.1108 1.05673 23.9893 1.12315 23.8453 1.08723C23.8269 1.08858 23.8098 1.09129 23.7941 1.094C23.3531 1.15161 22.9258 1.26411 22.5148 1.441C22.5148 1.44168 22.5148 1.44235 22.5141 1.44371C22.3292 1.41118 22.1797 1.50877 22.024 1.58264C21.7926 1.59552 21.5844 1.68227 21.3837 1.79342C21.3926 1.81171 21.3919 1.83679 21.3878 1.8639C21.3844 1.84424 21.383 1.8212 21.3837 1.79342C20.8144 1.94387 20.2567 2.12821 19.7283 2.39523C19.5317 2.44471 19.3801 2.5118 19.2641 2.58635C18.0538 3.02687 16.9022 3.61717 15.7936 4.2644C15.5396 4.38571 15.2645 4.4711 15.07 4.69678C15.044 4.69678 15.0242 4.70695 15.0092 4.72796C13.8863 5.35892 12.8398 6.1017 11.8697 6.95563C11.9366 6.95835 11.9694 6.98071 11.9851 7.01189C11.5366 6.86753 10.3345 8.33751 9.9754 8.59776C9.98018 8.60725 9.98496 8.61538 9.98974 8.62419C9.79246 8.72585 9.61156 8.87901 9.52896 9.01727C9.33372 9.15756 9.16306 9.32292 9.02244 9.52082C8.6463 9.82376 8.32751 10.1836 8.02919 10.5632C6.80044 11.8542 5.72255 13.2632 4.81327 14.8064C3.96748 16.109 3.23023 17.4719 2.64248 18.9154C2.66091 18.9242 2.68343 18.9358 2.70801 18.9493C2.4684 19.133 2.22538 19.7124 2.16122 20.0825C2.14961 20.1123 2.13801 20.1414 2.12708 20.1712C1.62398 21.3559 1.24921 22.5819 0.97342 23.8411C0.97342 23.8418 0.97342 23.8425 0.97342 23.8431C0.871024 24.0709 0.820508 24.3121 0.804808 24.5615C0.814365 24.5575 0.821191 24.5527 0.830065 24.548C0.649166 25.2867 0.40478 26.0254 0.388397 26.8062C0.155616 28.0112 0.0627772 29.2297 0.0484417 30.455V30.4557C-0.00821749 30.7071 -0.0150439 30.9592 0.0272798 31.2134C-0.0560023 33.4485 0.116023 35.704 0.517416 37.9046C0.744053 38.5538 0.563836 40.1255 1.18436 40.4569C1.13384 40.4616 1.08196 40.465 1.03008 40.4636C0.998678 40.6195 1.06762 40.7496 1.13316 40.8804L1.13589 40.8777C1.13998 41.1759 1.22804 41.4538 1.34205 41.7249C1.34682 41.712 1.3516 41.6991 1.35638 41.6863C1.42396 42.0915 1.47243 42.5029 1.67654 42.8723C1.68678 42.8472 1.69088 42.8214 1.69292 42.7964C1.69429 42.8208 1.69088 42.8452 1.67654 42.8723C2.19739 44.795 2.92099 46.6391 3.76474 48.435C3.78317 48.5211 3.81252 48.5923 3.85007 48.6553C3.96612 49.0504 4.13814 49.4184 4.37024 49.7593C4.37775 49.7796 4.38867 49.7979 4.40096 49.8142C4.39891 49.8142 4.39755 49.8142 4.3955 49.8142C4.81737 50.7806 5.27269 51.7288 5.85908 52.6064C5.86249 52.6051 5.86522 52.6044 5.86864 52.603C5.88161 52.6423 5.90072 52.6871 5.92939 52.7392C6.26593 53.5369 6.80044 54.1835 7.30969 54.8348C7.28785 54.8334 7.26669 54.8321 7.24348 54.8321C7.73429 55.6507 8.29679 56.4139 8.92892 57.1241C9.01766 57.2353 9.10777 57.3471 9.19788 57.4596C9.19719 57.4596 9.19651 57.4589 9.19515 57.4589C9.2716 57.6134 9.37605 57.7415 9.51121 57.8439C10.0396 58.485 10.5993 59.1214 11.2151 59.6818C12.2165 60.8862 13.4275 61.7821 14.6706 62.6299C14.6126 62.6232 14.5539 62.6191 14.4924 62.6177C15.1867 63.2284 15.9164 63.7888 16.6974 64.2795C16.9882 64.5615 17.5056 64.8529 17.6694 64.9471C18.0729 65.2663 18.5016 65.5428 18.959 65.7746C18.959 65.7739 18.959 65.7732 18.959 65.7719C19.387 66.1209 19.9003 66.373 20.3823 66.638C20.9195 66.987 21.4813 67.2879 22.0684 67.5414C22.2466 67.6803 22.4432 67.7813 22.6616 67.8376C22.7667 67.923 22.9893 68.0632 23.1313 68.0544C23.1319 68.0578 23.1326 68.0619 23.134 68.066C23.2685 68.1615 23.4507 68.2611 23.633 68.3079C23.8856 68.4577 24.1457 68.5885 24.4276 68.6725C25.4072 69.1374 26.4148 69.5271 27.4476 69.8511C29.4156 70.5315 31.4192 71.1259 33.4876 71.3936C33.4473 71.3719 33.4173 71.3421 33.3941 71.3082C33.4255 71.336 33.4569 71.3644 33.4876 71.3936C34.1347 71.5406 34.7901 71.6233 35.4516 71.6647C37.9691 72.0544 40.5925 72.0639 43.1019 71.9039C43.248 71.9371 43.3941 71.9059 43.5388 71.8849C43.5361 71.8815 43.5333 71.8782 43.5299 71.8748C43.59 71.87 43.6508 71.866 43.7108 71.8612C44.216 71.7989 45.3758 71.8761 46.1178 71.6613C47.0749 71.6091 48.0176 71.4593 48.9515 71.2438C49.4368 71.1957 49.9113 71.092 50.3761 70.9415C50.2423 70.8406 50.2444 70.7714 50.3079 70.7132C50.5598 71.6166 57.4852 68.4224 58.2675 67.8579C58.7358 67.5218 62.0022 66.0179 61.8616 65.3395C61.9012 65.3951 61.8978 65.4811 61.8186 65.618C61.9995 65.532 62.1722 65.4344 62.3005 65.2724C62.4323 65.2243 62.4889 65.1592 62.5053 65.084C62.5067 65.0928 62.508 65.1023 62.5094 65.1118C62.5538 65.0799 62.5975 65.0481 62.6411 65.0162C62.6364 65.0067 62.6316 64.9966 62.6268 64.9871C62.708 65.0148 62.7934 64.9789 62.8616 64.8386L62.891 64.8278L62.9101 64.8027C63.3258 64.5418 63.7026 64.2307 64.0522 63.8851C64.2337 63.78 64.3976 63.6547 64.5205 63.4798C64.9587 63.1565 65.3587 62.7906 65.7308 62.3927C65.7622 62.371 65.7908 62.3399 65.812 62.3073C65.9738 62.2165 66.1076 62.0959 66.2032 61.9339C66.7213 61.4948 67.195 61.0082 67.6592 60.5107C68.3112 59.9075 68.8716 59.219 69.4341 58.5331C69.3959 58.5358 69.3638 58.5365 69.3365 58.5351C69.9092 58.3616 74.5205 51.8514 74.5956 51.3906C75.0987 50.5909 76.124 49.5194 76.154 48.5977C76.1745 48.6465 76.1936 48.6959 76.2271 48.7312C76.5575 48.1084 77.7514 46.1951 77.5357 45.6245C77.578 45.6299 77.6203 45.6353 77.6633 45.6387C77.905 45.1115 78.092 44.5652 78.2067 43.9946C78.2299 43.9153 78.2525 43.8367 78.2763 43.7567C78.2975 43.6788 78.3194 43.6015 78.3405 43.5236C78.8361 41.8021 79.2832 40.038 79.4177 38.2502C79.3897 37.8741 79.6314 37.5352 79.5659 37.1536C79.6211 36.93 79.6505 36.7043 79.6239 36.4739C79.6812 36.1188 79.6983 35.765 79.6853 35.4092ZM1.7373 34.6759C1.72979 34.6657 1.72364 34.6555 1.72159 34.6447C1.7332 34.6447 1.74344 34.6434 1.75368 34.642C1.74753 34.6522 1.74276 34.6637 1.7373 34.6759ZM3.12579 19.2834C3.11964 19.259 3.11282 19.236 3.10667 19.2143C3.1251 19.2428 3.14149 19.2712 3.15514 19.299C3.14558 19.2936 3.13603 19.2882 3.12579 19.2834ZM3.26641 38.2007C3.30532 38.198 3.34355 38.1987 3.38109 38.2041C3.34355 38.2129 3.306 38.2136 3.26641 38.2007ZM3.56541 20.2729C3.56472 20.2702 3.56404 20.2675 3.56336 20.2648C3.5695 20.2682 3.57565 20.2709 3.58179 20.2743C3.57633 20.2736 3.57019 20.2736 3.56541 20.2729ZM3.78522 20.1645C3.7859 20.1638 3.7859 20.1631 3.78658 20.1624C3.78727 20.1631 3.78727 20.1638 3.78795 20.1651C3.78727 20.1645 3.7859 20.1645 3.78522 20.1645ZM4.12859 17.9314C4.12585 17.9219 4.12312 17.9131 4.12108 17.9043C4.1279 17.9104 4.13541 17.9185 4.14292 17.9253C4.13746 17.9273 4.13268 17.9293 4.12859 17.9314ZM4.65217 19.8453C4.65217 19.8446 4.65217 19.8446 4.65217 19.8453C4.65285 19.8453 4.65217 19.8453 4.65217 19.8453ZM4.78529 28.7763C4.78529 28.7763 4.78529 28.7756 4.78529 28.7749C4.78597 28.7736 4.78665 28.7722 4.78733 28.7716C4.78665 28.7736 4.78597 28.7749 4.78529 28.7763ZM60.6253 11.2395C60.6267 11.2395 60.6287 11.2402 60.6301 11.2409C60.6287 11.2416 60.628 11.2422 60.6267 11.2436C60.6267 11.2429 60.626 11.2416 60.6253 11.2395ZM60.3639 14.6329C60.3461 14.6275 60.3297 14.6187 60.3147 14.6085C60.3318 14.6159 60.3482 14.6241 60.3639 14.6329ZM56.5308 9.72142C56.539 9.72142 56.5465 9.71939 56.5547 9.71736C56.5533 9.72278 56.552 9.7282 56.5506 9.73362C56.5431 9.73024 56.537 9.72617 56.5308 9.72142ZM56.1745 8.74686C56.1861 8.75092 56.1991 8.75364 56.2134 8.75635C56.2141 8.76041 56.2161 8.76448 56.2175 8.76922C56.2032 8.77058 56.1888 8.77126 56.1731 8.77058C56.1765 8.76787 56.1806 8.76583 56.184 8.76312C56.1806 8.7577 56.1779 8.75228 56.1745 8.74686ZM53.7368 8.03932C53.7375 8.04067 53.7381 8.04203 53.7388 8.0427C53.7381 8.04406 53.7375 8.04609 53.7361 8.04745C53.7347 8.04677 53.7334 8.04677 53.732 8.04609C53.7334 8.04338 53.7354 8.04135 53.7368 8.03932ZM52.9517 6.21895C52.9504 6.26978 52.9333 6.30976 52.8883 6.33145C52.8869 6.33213 52.8848 6.33281 52.8828 6.33416C52.9094 6.29757 52.9319 6.25893 52.9517 6.21895ZM48.8798 4.72796C48.8846 4.76659 48.89 4.80183 48.8955 4.83504C48.8791 4.79844 48.873 4.76184 48.8798 4.72796ZM39.587 1.50945C39.5904 1.52775 39.5959 1.54401 39.6013 1.56028C39.5638 1.54876 39.5269 1.53927 39.4894 1.53046C39.5242 1.52368 39.5576 1.51623 39.587 1.50945ZM31.0349 0.682627C31.0362 0.683982 31.0376 0.685338 31.0383 0.686693C31.0376 0.686693 31.0362 0.688049 31.0349 0.688049C31.0349 0.686693 31.0349 0.685338 31.0349 0.682627ZM29.1706 0.789029C29.1521 0.792418 29.1337 0.793773 29.1153 0.794451C29.1228 0.745655 29.144 0.756499 29.1706 0.789029ZM9.33031 9.44898C9.32894 9.45101 9.3269 9.45372 9.32553 9.45576C9.32212 9.45169 9.31939 9.44762 9.31529 9.44356C9.32075 9.44559 9.32621 9.44695 9.33031 9.44898ZM8.50158 11.1087C8.48998 11.1114 8.47769 11.1128 8.46472 11.1108C8.46335 11.108 8.46199 11.106 8.46062 11.1033C8.47428 11.1053 8.48793 11.1067 8.50158 11.1087ZM4.91772 33.5793C4.91704 33.561 4.91704 33.542 4.91704 33.5231C4.92523 33.5292 4.9341 33.5359 4.94366 33.542C4.9341 33.5549 4.92591 33.5671 4.91772 33.5793ZM5.24812 32.4225C5.24812 32.415 5.24743 32.4082 5.24675 32.4008C5.24948 32.3811 5.25016 32.3615 5.2488 32.3411C5.25085 32.3411 5.25358 32.3411 5.25563 32.3411C5.25631 32.3682 5.25289 32.3953 5.24812 32.4225ZM6.10961 30.6292C6.10893 30.6278 6.10893 30.6251 6.10824 30.6231C6.10961 30.6245 6.11166 30.6251 6.11302 30.6265C6.11166 30.6278 6.11097 30.6285 6.10961 30.6292ZM6.85847 31.5014C6.86393 31.5035 6.86939 31.5062 6.87485 31.5082C6.87212 31.5089 6.86939 31.5109 6.86666 31.5116C6.86461 31.5082 6.8612 31.5055 6.85847 31.5014ZM6.87007 32.8887C6.86939 32.8887 6.86939 32.8887 6.87007 32.8887C6.87758 32.8806 6.88577 32.8731 6.89465 32.865C6.88577 32.8765 6.87758 32.8847 6.87007 32.8887ZM7.14791 33.6376C7.15746 33.6166 7.16702 33.5963 7.17726 33.5759C7.1834 33.5929 7.18955 33.6098 7.19569 33.6261C7.18067 33.6274 7.16429 33.6315 7.14791 33.6376ZM7.66876 31.824C7.6674 31.8098 7.66603 31.7962 7.66398 31.7827C7.67422 31.7881 7.68378 31.7935 7.69334 31.7996C7.68514 31.8071 7.67695 31.8152 7.66876 31.824ZM7.84352 33.1381C7.84556 33.1395 7.84761 33.1415 7.84966 33.1429C7.85444 33.1618 7.8599 33.1686 7.87014 33.1591C7.88174 33.1686 7.89335 33.1781 7.90495 33.1883C7.90632 33.2195 7.90564 33.2581 7.9111 33.2798C7.88994 33.2256 7.86673 33.1788 7.84352 33.1381ZM8.31044 32.0511C8.29611 32.0483 8.28245 32.0436 8.26948 32.0375C8.28382 32.0382 8.29747 32.0389 8.31181 32.0389C8.31317 32.0443 8.31454 32.0497 8.3159 32.0544C8.31317 32.0531 8.31249 32.0511 8.31044 32.0511ZM8.51114 38.2366C8.51114 38.236 8.51114 38.2353 8.51114 38.2346C8.51523 38.2346 8.51865 38.2353 8.52274 38.236C8.51933 38.2366 8.51523 38.2366 8.51114 38.2366ZM8.5835 53.5688C8.5835 53.5661 8.58282 53.5634 8.58282 53.5606C8.5835 53.5634 8.58555 53.5654 8.58691 53.5674C8.58555 53.5688 8.58486 53.5688 8.5835 53.5688ZM8.68112 42.3924C8.66883 42.3613 8.65586 42.3328 8.64221 42.3057C8.68453 42.3274 8.69136 42.3572 8.68112 42.3924ZM8.77805 32.4116C8.76781 32.4069 8.75757 32.4035 8.74665 32.4014C8.74665 32.4008 8.74665 32.4001 8.74665 32.3994C8.75689 32.4028 8.76781 32.4042 8.77805 32.4069C8.77805 32.4082 8.77805 32.4103 8.77805 32.4116ZM10.5775 50.21C10.5761 50.2086 10.5748 50.2073 10.5727 50.2059C10.5748 50.2073 10.5775 50.2086 10.5795 50.21C10.5795 50.21 10.5782 50.21 10.5775 50.21ZM12.3066 51.6718C12.3073 51.6705 12.308 51.6698 12.3087 51.6684C12.3087 51.6698 12.3087 51.6705 12.3087 51.6712C12.3087 51.6712 12.308 51.6718 12.3066 51.6718ZM12.5442 58.7452C12.5182 58.7093 12.5128 58.6693 12.5612 58.6253C12.5544 58.6612 12.551 58.7032 12.5442 58.7452ZM12.7456 52.8416C12.7415 52.8429 12.7387 52.8436 12.7346 52.845C12.7251 52.7935 12.7196 52.7548 12.7128 52.727C12.7244 52.7331 12.736 52.7413 12.7469 52.7521C12.7927 52.7786 12.7954 52.8267 12.7456 52.8416ZM14.5225 56.3C14.5143 56.3047 14.5081 56.3122 14.502 56.3183C14.4959 56.2797 14.4897 56.2424 14.4829 56.2051C14.5027 56.237 14.5218 56.2695 14.5402 56.3027C14.5341 56.3014 14.5286 56.3014 14.5225 56.3ZM15.2679 55.8819C15.2481 55.8547 15.2338 55.829 15.2229 55.8046C15.2263 55.8046 15.2297 55.8053 15.2331 55.8053C15.2338 55.8046 15.2345 55.8032 15.2352 55.8026C15.2433 55.8276 15.2543 55.8547 15.2679 55.8819ZM16.1055 62.3785C16.1383 62.3683 16.1711 62.3575 16.2038 62.346C16.1792 62.3724 16.1397 62.3853 16.1055 62.3785ZM28.0504 67.801C28.0504 67.7983 28.0504 67.7955 28.0504 67.7922C28.0524 67.7935 28.0551 67.7956 28.0579 67.7976C28.0551 67.7989 28.0524 67.8003 28.0504 67.801ZM32.3141 69.0297C32.3128 69.0283 32.3107 69.027 32.3094 69.0256C32.3114 69.0256 32.3135 69.0256 32.3162 69.0256C32.3155 69.0276 32.3148 69.029 32.3141 69.0297ZM33.164 68.6786C33.1606 68.6698 33.1558 68.661 33.1517 68.6522C33.1524 68.6515 33.1531 68.6515 33.1538 68.6508C33.1586 68.6603 33.164 68.6698 33.1702 68.6779C33.1688 68.6786 33.1661 68.6786 33.164 68.6786ZM44.0392 71.1422C44.0426 71.1333 44.0453 71.1225 44.0474 71.1103C44.0508 71.1238 44.0549 71.136 44.0597 71.1476C44.0528 71.1462 44.046 71.1449 44.0392 71.1422ZM46.7759 71.1015C46.7807 71.073 46.7827 71.0432 46.7827 71.012C46.7902 71.0147 46.7977 71.0181 46.8052 71.0202C46.8025 71.0622 46.7916 71.0866 46.7759 71.1015ZM48.5385 69.8226C48.5589 69.7867 48.5781 69.7508 48.5958 69.7122C48.5869 69.7548 48.5665 69.7908 48.5385 69.8226ZM49.4525 69.6437C49.4525 69.641 49.4525 69.639 49.4525 69.6369C49.4593 69.6376 49.4662 69.6383 49.4723 69.6396C49.4648 69.641 49.4593 69.6423 49.4525 69.6437ZM61.0608 15.9212C61.0533 15.9172 61.0458 15.9138 61.0383 15.9097C61.0526 15.9023 61.0704 15.8941 61.0847 15.8874C61.0868 15.8874 61.0888 15.8874 61.0909 15.888C61.0786 15.8989 61.069 15.9104 61.0608 15.9212ZM62.7865 12.9311C62.7825 12.9284 62.7777 12.925 62.7736 12.9216C62.7674 12.9088 62.762 12.8966 62.7565 12.8844C62.7688 12.8993 62.7811 12.9149 62.7927 12.9304C62.7906 12.9311 62.7886 12.9311 62.7865 12.9311ZM63.1149 14.5204C63.1026 14.4709 63.1074 14.4397 63.1538 14.4438C63.1408 14.4696 63.1279 14.4946 63.1149 14.5204ZM64.7648 15.2632C64.7648 15.2645 64.7635 15.2666 64.7635 15.2686C64.7566 15.2645 64.7505 15.2598 64.745 15.255C64.7478 15.2544 64.7491 15.2523 64.7505 15.251C64.756 15.255 64.7621 15.2591 64.7676 15.2618C64.7669 15.2625 64.7655 15.2632 64.7648 15.2632ZM64.715 13.6936C64.7293 13.6881 64.7444 13.6814 64.7587 13.6753C64.7662 13.6868 64.7737 13.6983 64.7799 13.7098C64.756 13.6983 64.7334 13.6936 64.715 13.6936ZM64.8679 15.886C64.8652 15.8819 64.8625 15.8772 64.8597 15.8724C64.8631 15.8704 64.8672 15.8684 64.8706 15.8657C64.8693 15.8724 64.8686 15.8799 64.8679 15.886ZM65.2932 12.4648C65.2714 12.454 65.2522 12.4452 65.2352 12.4391C65.2543 12.4276 65.2755 12.4174 65.2993 12.4106C65.2966 12.4296 65.2946 12.4472 65.2932 12.4648ZM66.0277 16.805C66.0475 16.7908 66.0646 16.7765 66.0803 16.7616C66.0885 16.7901 66.1008 16.8172 66.1171 16.8443C66.0857 16.8328 66.0557 16.8206 66.0277 16.805ZM69.03 17.7565C69.0211 17.7552 69.0136 17.7538 69.0047 17.7531C69.0088 17.7484 69.0116 17.7443 69.0156 17.7396C69.0211 17.7443 69.0259 17.7497 69.0307 17.7552C69.0307 17.7558 69.0307 17.7558 69.03 17.7565ZM69.2921 58.5297C69.144 58.5087 69.2143 58.4104 69.3208 58.2898C69.2716 58.4308 69.2641 58.508 69.2921 58.5297ZM69.6785 15.4739C69.7024 15.438 69.7235 15.4021 69.7433 15.3642C69.7659 15.4184 69.7297 15.4475 69.6785 15.4739ZM70.0068 21.585C70.0157 21.5762 70.0246 21.5667 70.0348 21.5572C70.043 21.566 70.0498 21.5768 70.056 21.5897C70.0389 21.5877 70.0232 21.5863 70.0068 21.585ZM70.2328 19.705C70.2362 19.7009 70.2383 19.6975 70.241 19.6934C70.2642 19.7124 70.2881 19.7314 70.312 19.7497C70.2854 19.7429 70.2594 19.7287 70.2328 19.705ZM72.7565 20.3556C72.7729 20.3576 72.7913 20.3583 72.8125 20.3569C72.7906 20.3746 72.7722 20.3725 72.7565 20.3556ZM73.0651 25.1057C73.0658 25.0963 73.0658 25.0875 73.0651 25.0793C73.0739 25.0807 73.0815 25.0827 73.0903 25.0841C73.0815 25.0915 73.0733 25.099 73.0651 25.1057ZM73.5306 31.5916C73.5286 31.5916 73.5265 31.5916 73.5252 31.5909C73.5163 31.5773 73.5074 31.5638 73.4979 31.5509C73.5183 31.5543 73.5395 31.555 73.56 31.5536C73.5504 31.5658 73.5402 31.5787 73.5306 31.5916ZM73.6658 20.5941C73.7279 20.6307 73.79 20.668 73.8508 20.7033C73.7648 20.6761 73.6992 20.6402 73.6658 20.5941ZM73.9115 49.6088C73.9115 49.5987 73.9109 49.5899 73.9102 49.5804C73.9136 49.5817 73.9177 49.5831 73.9218 49.5851C73.9191 49.5926 73.915 49.6007 73.9115 49.6088ZM74.373 25.8451C74.3723 25.8451 74.3723 25.8451 74.3716 25.8445V25.8451C74.3716 25.8451 74.3723 25.8458 74.373 25.8451C74.3723 25.8479 74.3723 25.8499 74.3716 25.8512C74.3716 25.8492 74.3716 25.8472 74.3716 25.8451C74.371 25.8451 74.371 25.8451 74.3703 25.8445V25.8438C74.371 25.8438 74.371 25.8438 74.3716 25.8445C74.3723 25.8445 74.373 25.8438 74.3737 25.8431C74.3737 25.8438 74.373 25.8445 74.373 25.8451ZM74.9369 29.5381C74.9362 29.5347 74.9355 29.5313 74.9348 29.5286C74.9369 29.5299 74.9389 29.532 74.9417 29.534C74.9396 29.5353 74.9382 29.5367 74.9369 29.5381ZM74.9812 26.4639C74.9928 26.4558 75.0045 26.449 75.0161 26.4409C75.0174 26.447 75.0208 26.4531 75.0236 26.4592C75.0099 26.4605 74.9963 26.4619 74.9812 26.4639ZM75.156 43.5534C75.1539 43.5534 75.1512 43.5534 75.1492 43.5534C75.1519 43.5527 75.1539 43.5527 75.1567 43.5527C75.156 43.552 75.1567 43.5527 75.156 43.5534ZM75.1997 34.6447C75.199 34.6427 75.1983 34.6406 75.197 34.6386C75.197 34.6386 75.1963 34.6386 75.1956 34.6393C75.1976 34.6237 75.1983 34.6088 75.1983 34.5952C75.2031 34.5979 75.2079 34.6007 75.2127 34.6034C75.2086 34.6162 75.2045 34.6298 75.1997 34.6447ZM75.4475 38.8134C75.4502 38.8154 75.4536 38.8174 75.457 38.8195C75.457 38.8222 75.4577 38.8249 75.4584 38.8276C75.455 38.8229 75.4509 38.8181 75.4475 38.8134ZM75.4864 36.1621C75.4864 36.1615 75.4864 36.1601 75.4857 36.1594C75.4864 36.1608 75.4878 36.1628 75.4884 36.1642C75.4878 36.1635 75.4871 36.1628 75.4864 36.1621ZM75.997 36.8005C75.9854 36.7978 75.9731 36.7958 75.9601 36.7944C75.9642 36.7782 75.9683 36.7619 75.9731 36.7457C75.9799 36.7585 75.9874 36.7721 75.997 36.7863C75.9977 36.7856 75.9991 36.785 76.0004 36.7843C75.9984 36.7897 75.9977 36.7951 75.997 36.8005ZM76.1847 37.3027C76.1847 37.296 76.1847 37.2885 76.1847 37.2811C76.1922 37.2865 76.1998 37.2912 76.2073 37.2966C76.1998 37.298 76.1929 37.3007 76.1847 37.3027ZM76.3267 39.7168C76.3219 39.7093 76.3178 39.7012 76.3138 39.6924C76.3219 39.6971 76.3295 39.7026 76.3383 39.7066C76.3349 39.71 76.3301 39.7134 76.3267 39.7168ZM76.8346 22.5528C76.8346 22.5521 76.8346 22.5521 76.8346 22.5514C76.8346 22.5514 76.8353 22.5514 76.836 22.5514C76.8353 22.5514 76.8353 22.5521 76.8346 22.5528ZM77.307 22.1421C77.3186 22.1238 77.3254 22.1021 77.3282 22.0763C77.3363 22.0967 77.3439 22.1177 77.3521 22.138C77.335 22.1414 77.32 22.1427 77.307 22.1421ZM77.5425 31.9738C77.5425 31.9724 77.5425 31.9718 77.5425 31.9704C77.5425 31.9711 77.5425 31.9724 77.5425 31.9738ZM77.5459 31.9433C77.548 31.9331 77.5507 31.9236 77.5548 31.9142C77.5384 31.902 77.5248 31.8898 77.5111 31.8769C77.5398 31.8884 77.5691 31.8999 77.5971 31.9121C77.5814 31.9203 77.5644 31.9304 77.5459 31.9433ZM78.5241 28.4361C78.5289 28.4097 78.5323 28.3832 78.5337 28.3575C78.5515 28.3534 78.5658 28.3534 78.5788 28.3554C78.561 28.3832 78.5426 28.4097 78.5241 28.4361ZM78.703 28.1074C78.7003 28.0877 78.7037 28.0701 78.7173 28.0538C78.7132 28.0721 78.7085 28.0898 78.703 28.1074ZM79.0075 27.2609C79.0013 27.2575 78.9952 27.2548 78.9897 27.2514C78.9958 27.2507 79.002 27.2501 79.0081 27.2494C79.0075 27.2535 79.0075 27.2568 79.0075 27.2609ZM79.4819 30.0294C79.4587 29.9962 79.4341 29.9684 79.4075 29.9447C79.4539 29.9067 79.5024 29.8586 79.5536 29.7969C79.5304 29.8803 79.5037 29.9582 79.4819 30.0294Z" fill="#ffb794"/>
</svg>
