<svg width="76" height="65" viewBox="0 0 76 65" fill="none" xmlns="http://www.w3.org/2000/svg" id="logo_avdera_new">
<path d="M40.8816 22.676C40.8816 22.676 38.1373 6.56801 48.9953 5.8521V4.18164H51.9782L52.6942 6.44869C52.6942 6.44869 55.6771 7.64188 58.1828 9.67029C58.1828 9.67029 62.4783 12.0567 63.7908 12.4146C65.1033 12.7726 63.7908 12.8919 63.7908 12.8919V14.3237L61.4044 14.2044L60.5692 13.4288L58.2126 13.1007C58.2126 13.1007 54.5734 13.6675 54.3944 11.4302L53.6785 11.3706C53.6785 11.3706 51.0237 11.0723 53.5592 15.8749C53.5592 15.8749 57.6459 22.7953 57.2879 30.551L60.1516 28.0453C60.1516 28.0453 61.9745 26.0766 64.374 26.3152C64.374 26.3152 69.7567 26.7328 75.5436 31.6846L75.0067 32.6391C75.0067 32.6391 68.0266 27.3294 64.0891 27.6874C64.0891 27.6874 63.0152 27.5681 61.822 28.7613L57.7055 32.2215L65.3419 32.6391C65.3419 32.6391 70.6716 33.6535 74.4101 41.3295L73.4952 42.3237C73.4952 42.3237 69.7567 34.9658 65.1429 34.1306C65.1429 34.1306 62.9952 33.7724 60.8474 34.568L58.6997 35.5226C58.6997 35.5226 50.3476 34.2492 42.7511 42.6817L40.8816 22.676Z" fill="#F36E23"/>
<path d="M23.6468 58.674C23.988 58.8351 24.3417 58.9854 24.7147 59.125C30.214 61.1868 34.8622 59.5588 38.9634 58.1232C42.9186 56.7377 46.3347 55.5416 50.3128 57.4166C50.6321 57.5669 50.9564 57.7497 51.279 57.9371C45.8803 64.1426 36.8307 66.2905 29.0225 62.6103C26.8397 61.5813 24.9509 60.1848 23.3845 58.5341C23.4742 58.579 23.5539 58.6303 23.6468 58.674Z" fill="#F36E23"/>
<path d="M22.1885 55.66C22.1885 55.66 30.7157 60.9799 39.3675 56.5943C39.3675 56.5943 54.6293 46.057 60.0368 51.2483C60.0368 51.2483 65.5524 56.1514 57.8015 59.8839C57.8015 59.8839 63.9736 66.0352 71.2849 60.8621C71.2849 60.8621 79.3291 55.5082 74.0634 45.6024C74.0634 45.6024 68.9909 36.3602 58.211 37.2442C42.155 38.5581 39.8479 57.5211 22.1885 55.66Z" fill="#F36E23"/>
<path fill-rule="evenodd" clip-rule="evenodd" d="M10.0583 30.9685C10.0621 31.8039 10.1263 32.6205 10.8017 33.3973C10.8744 33.0611 10.9195 32.8515 10.984 32.554C11.1019 33.809 11.6257 34.1979 12.7649 34.0848C13.0117 34.0602 13.2878 34.333 13.6045 34.4967C13.6851 34.3709 13.7884 34.2094 13.8529 34.1087C14.758 34.1516 15.6116 34.5795 16.4755 33.9359C16.7146 33.7577 17.2659 33.7281 17.5148 33.8839C18.2908 34.3695 18.423 33.6746 18.7633 33.3262C18.9576 33.1274 19.1857 32.7854 19.3821 32.7967C20.0503 32.8351 20.2204 32.427 20.4106 31.9139C20.1467 32.0347 19.9076 32.1442 19.6682 32.2535C19.9703 31.4183 20.4309 30.8835 21.2735 30.9773C21.3368 30.9845 21.3802 31.1661 21.4329 31.2665L21.4542 31.2467C21.2964 31.3765 21.0168 31.492 20.9996 31.6386C20.7982 33.3539 19.3981 33.9619 18.1896 34.7573C17.3969 35.279 16.5979 37.1007 16.786 37.9927C17.1661 37.9252 17.5486 37.8574 18.0875 37.762C17.9682 38.2679 17.8553 38.7459 17.7295 39.2809C17.1568 39.1046 16.7177 38.9287 16.2617 38.8409C15.8515 38.7619 15.3341 38.5843 15.2551 39.3029C15.2477 39.3728 15.1627 39.4663 15.0928 39.4928C14.0046 39.9057 12.927 40.3517 11.8194 40.7049C10.3289 41.1807 9.94042 41.0588 9.1479 39.6835C8.2461 38.119 7.30658 36.5454 6.68159 34.8649C6.35561 33.9882 6.62623 32.8692 6.72645 31.8693C6.75032 31.6326 7.13906 31.35 7.41946 31.2386C8.07642 30.9778 8.76227 30.7759 9.45264 30.6246C9.61778 30.5883 9.84687 30.8437 10.0464 30.9649L10.0583 30.9685Z" fill="#F36E23"/>
<path fill-rule="evenodd" clip-rule="evenodd" d="M10.0464 30.9652C10.4287 30.6757 10.811 30.3862 11.0587 30.1984C10.6065 29.6219 10.3361 29.1735 9.95976 28.8465C9.7994 28.7074 9.41782 28.8232 8.91215 28.8232C8.91215 28.1228 8.98517 27.1381 8.89282 26.1688C8.7883 25.0718 8.5456 23.9869 8.33966 22.9014C8.30553 22.721 8.17953 22.4415 8.05162 22.4141C7.13717 22.2182 6.71096 21.6834 6.80713 20.7179C7.0126 20.6856 7.25959 20.6472 7.7896 20.5642C7.27176 20.2764 6.98802 20.1189 6.65846 19.9358C6.80474 19.6559 7.03097 19.2245 7.20327 18.8949C6.77253 18.6656 6.37949 18.5875 6.26733 18.3668C6.08931 18.0153 6.12892 17.7094 6.61741 17.3829C7.10925 17.0541 7.32951 16.3193 7.73233 15.6585C7.79485 15.6585 8.10365 15.5647 8.23609 15.6781C8.51028 15.9117 8.93697 16.3911 8.86156 16.5276C8.66635 16.8822 8.06045 17.4101 7.92371 17.3323C7.07059 16.8464 7.35409 17.3996 7.40229 17.8084C7.42401 17.9919 7.37461 18.1835 7.33786 18.5883C8.18073 17.3299 8.95057 18.8725 9.57771 18.3551C9.708 19.1545 9.83543 19.9361 9.97193 20.7754C12.7962 20.9372 15.7224 21.1044 18.6481 21.272C18.6318 21.209 18.6149 21.1462 18.5987 21.0832C18.8344 21.313 19.0709 21.5428 19.4048 21.8683C19.2563 21.9623 18.9731 22.2549 18.8447 22.1981C18.5982 22.0888 18.4388 21.7815 18.072 21.3591C16.9091 21.4326 15.5279 21.5266 14.1455 21.6022C13.7636 21.623 13.3026 21.7235 13.0098 21.5564C12.1373 21.0577 11.2233 21.2956 10.3239 21.2304C9.45385 21.1674 9.86288 21.5736 10.0483 21.9478C9.79892 22.0275 9.55551 22.1058 9.29612 22.189C9.91609 22.5463 10.4745 22.8971 11.0604 23.193C11.3434 23.3357 11.6737 23.419 11.9906 23.4519C13.1842 23.5762 13.4176 23.8242 13.456 25.1011L13.4711 25.0859C12.9284 25.3045 12.4872 25.6533 12.0199 26.001C11.5357 26.3614 10.6986 26.2478 10.0567 26.3361C10.122 26.5435 10.1614 26.8706 10.3218 27.1205C10.4912 27.3842 10.8661 27.8092 10.9957 27.7593C12.0113 27.3682 12.3836 27.9108 12.6261 28.7389C12.648 28.8146 12.7294 28.873 12.9074 29.0931C13.2231 28.7277 13.561 28.4275 13.7863 28.0588C14.4094 27.0379 15.0745 26.9876 16.0092 27.7541C16.482 28.1418 17.1575 28.2831 17.9796 28.6387C17.7389 27.4233 17.7016 26.5053 18.8325 26.3576C19.2797 26.2991 19.7861 26.6948 20.2658 26.8835C20.2505 26.9685 20.2355 27.0534 20.2207 27.1384C20.4166 26.9752 20.613 26.8119 20.829 26.6322C20.9342 27.2875 21.033 27.9015 21.1086 28.3733C20.3624 28.4187 19.5429 28.4683 18.6137 28.5246C18.4397 29.1362 18.2436 29.8245 17.9818 30.7444C16.9905 29.6309 16.0775 28.6055 15.1026 27.5102C14.8294 27.7078 14.5082 27.94 14.187 28.1722C14.2046 28.2378 14.2225 28.3036 14.2407 28.3693C14.5829 28.332 14.9248 28.2948 15.4274 28.2404C14.9435 29.4722 13.2811 29.2873 12.8289 30.7208C13.1126 30.5965 13.2997 30.433 13.4358 30.4678C14.5072 30.7413 15.6978 30.2578 16.696 30.9819C16.8008 31.0578 16.938 31.089 17.0597 31.141C16.9509 31.2885 16.8199 31.5754 16.7363 31.5622C15.6973 31.3992 14.7781 32.3924 13.6329 31.7689C13.1897 31.5276 12.423 31.9367 11.8025 31.9414C11.5255 31.9436 11.2401 31.6901 10.9694 31.5336C10.6616 31.3556 10.3664 31.1563 10.0619 30.9675C10.0583 30.9685 10.0464 30.9652 10.0464 30.9652ZM10.8988 23.9633C10.9432 23.8676 10.9873 23.7717 11.0317 23.676C10.6869 23.4278 10.3609 23.1393 9.98363 22.9587C9.88292 22.9104 9.5295 23.1586 9.46793 23.3328C9.41877 23.472 9.60229 23.8356 9.74189 23.8722C10.1101 23.9686 10.511 23.9414 10.8988 23.9633Z" fill="#F36E23"/>
<path fill-rule="evenodd" clip-rule="evenodd" d="M3.06386 41.6983C2.3847 42.1171 1.93869 42.4192 2.96507 42.6777C3.34593 42.7734 3.64375 43.1977 4.06757 43.5439C3.8201 43.8813 3.53684 44.266 3.25549 44.6519C3.01017 44.9884 2.76604 45.3258 2.42622 45.7945C2.16181 44.9977 1.89072 44.1811 1.60555 43.3222C1.46022 43.2079 1.0994 43.0659 0.988435 42.8134C0.556263 41.8322 0.203796 40.8163 0 39.7493C0.23458 40.1517 0.469638 40.554 0.789411 41.1019C1.04499 39.7952 1.27528 38.6201 1.50532 37.4451C1.46619 39.0096 1.19676 40.7113 3.06386 41.6983Z" fill="#F36E23"/>
<path fill-rule="evenodd" clip-rule="evenodd" d="M13.4563 25.1007C13.5909 25.0523 13.7257 25.0041 13.8507 24.9592C13.7329 24.5148 13.6171 24.0796 13.4341 23.3894C13.8116 23.6674 13.9605 23.777 14.1829 23.9405C14.1688 23.6856 14.1586 23.4968 14.1476 23.2952C14.7545 23.1226 15.3623 22.9496 15.9701 22.7769C16.0083 22.8418 16.046 22.9064 16.0844 22.9713C15.7262 23.2021 15.368 23.4326 15.0105 23.6624C15.699 24.7313 18.0801 24.7124 19.1206 23.6288C19.0726 24.1987 19.0242 24.7685 18.9733 25.3694C18.0579 25.0577 17.3458 25.3546 16.8604 26.2769C16.7764 26.4364 16.3276 26.5712 16.1588 26.4891C15.4587 26.1476 14.8058 25.7109 14.1259 25.3265C13.9273 25.2141 13.6963 25.1589 13.4761 25.0816C13.4713 25.0854 13.4563 25.1007 13.4563 25.1007Z" fill="#F36E23"/>
<path fill-rule="evenodd" clip-rule="evenodd" d="M22.7598 22.3412C23.5795 22.2625 24.487 20.9187 25.1414 22.4467C24.9411 22.7626 24.7247 23.1041 24.6039 23.2948C23.7883 23.9632 23.0752 24.5476 22.4245 25.081C22.2982 24.5877 22.3106 24.1465 22.0964 23.9174C21.7957 23.5957 21.3267 23.4315 20.8593 23.286C20.7624 22.8254 20.691 22.2985 19.9491 22.2522C20.1281 22.2522 20.3071 22.2522 20.5321 22.2522C20.5321 21.7608 20.5321 21.2967 20.5321 20.7383C20.7481 20.8932 20.9996 20.98 21.018 21.1022C21.1218 21.7857 21.5561 21.5556 21.936 21.4699C22.6564 21.307 22.9032 21.5344 22.7598 22.3412Z" fill="#F36E23"/>
<path fill-rule="evenodd" clip-rule="evenodd" d="M10.1115 47.2526C9.37986 46.5519 8.59116 45.9007 7.933 45.1373C7.26983 44.3677 6.736 43.4869 6.14561 42.655C6.06161 42.6937 5.97785 42.7326 5.89385 42.771C6.33413 43.836 6.77418 44.9013 7.21327 45.9632C5.92177 45.7002 4.3124 39.9398 4.82619 37.8267C5.07103 38.7607 5.32184 39.9014 5.68337 41.006C5.82393 41.4358 6.19286 41.8014 6.49402 42.1663C7.47219 43.3499 8.47447 44.5137 9.45121 45.6986C9.78745 46.1066 10.0755 46.5543 10.3857 46.9841C10.2943 47.0736 10.2029 47.1631 10.1115 47.2526Z" fill="#F36E23"/>
<path fill-rule="evenodd" clip-rule="evenodd" d="M6.02079 36.4814C6.15515 36.6508 6.35608 36.8004 6.41359 36.9933C7.04908 39.1183 8.48878 40.7597 9.63686 42.5876C10.4198 43.8343 11.944 44.1717 12.5824 45.4675C12.6074 45.5186 12.6303 45.5708 12.6745 45.666C11.7922 46.5905 11.1088 44.8442 10.5043 45.3845C10.4256 45.0372 10.4432 44.6149 10.248 44.3493C9.7032 43.6083 8.94768 43.0019 8.49713 42.2154C7.58673 40.6253 6.8083 38.9584 6.01554 37.304C5.90768 37.0785 6.03058 36.7425 6.04633 36.4578L6.02079 36.4814Z" fill="#F36E23"/>
<path fill-rule="evenodd" clip-rule="evenodd" d="M21.2692 33.2579C21.1029 34.2153 21.039 35.2071 20.7337 36.1182C20.5328 36.7186 20.0257 37.2417 19.574 37.7221C19.364 37.9454 18.9588 37.985 18.6421 38.1077C18.5965 37.8197 18.4245 37.471 18.528 37.2548C18.8485 36.5885 19.2661 35.9676 19.6658 35.3417C19.7532 35.2044 19.9489 35.1393 20.0484 35.0064C20.2371 34.7546 20.4128 34.4885 20.5555 34.2088C20.7149 33.8972 20.8313 33.5636 20.9667 33.2395C21.0674 33.2455 21.1683 33.2517 21.2692 33.2579Z" fill="#F36E23"/>
<path fill-rule="evenodd" clip-rule="evenodd" d="M21.7157 42.546C21.2931 40.6892 21.7353 38.9686 22.0245 37.2313C22.2169 36.0746 22.3109 34.9017 22.4834 33.4465C22.6727 33.8799 22.8879 34.1381 22.8745 34.3837C22.8182 35.4191 22.7113 36.4531 22.5896 37.4836C22.4207 38.9118 22.2312 40.3379 22.0269 41.7616C21.9906 42.0117 21.8389 42.2448 21.7157 42.546Z" fill="#F36E23"/>
<path fill-rule="evenodd" clip-rule="evenodd" d="M21.4327 31.2667C21.5957 31.3139 21.8382 31.3089 21.9086 31.4165C22.5858 32.4529 23.6313 32.9648 24.6973 33.4678C25.0901 33.653 25.4423 33.9244 25.8131 34.1563C25.7473 34.2883 25.6812 34.42 25.6155 34.552C24.7705 34.2241 23.9191 33.9129 23.0843 33.5604C22.7605 33.4235 22.498 33.1216 22.1689 33.0197C21.1704 32.7111 21.0824 32.0835 21.4539 31.2473C21.4539 31.2468 21.4327 31.2667 21.4327 31.2667Z" fill="#F36E23"/>
<path fill-rule="evenodd" clip-rule="evenodd" d="M6.04634 36.4575C5.91461 36.1627 5.78289 35.868 5.72418 35.7368C5.44545 35.6375 5.28175 35.5874 5.12449 35.5215C4.93405 35.4418 4.74768 35.3519 4.5625 35.2607C4.36801 35.165 4.00862 35.0488 4.01554 34.9655C4.03678 34.7056 4.12698 34.3589 4.31718 34.2231C4.78204 33.8904 5.31826 33.6575 5.72585 33.438C5.82799 34.4892 5.92464 35.4848 6.02105 36.4806C6.02081 36.4813 6.04634 36.4575 6.04634 36.4575Z" fill="#F36E23"/>
<path fill-rule="evenodd" clip-rule="evenodd" d="M18.949 17.6372C19.3532 17.7513 19.7656 17.8429 20.1593 17.9854C20.508 18.1119 20.8743 18.2467 21.1604 18.4705C21.3339 18.6061 21.4425 18.9175 21.4444 19.1511C21.4463 19.3501 21.2905 19.5933 21.1306 19.7308C21.0671 19.7854 20.7903 19.6293 20.6347 19.5315C20.1892 19.2518 19.73 18.9841 19.3282 18.649C19.0914 18.4514 18.9537 18.1352 18.7712 17.8725C18.8306 17.7938 18.89 17.7155 18.949 17.6372Z" fill="#F36E23"/>
<path fill-rule="evenodd" clip-rule="evenodd" d="M22.546 19.437C22.5357 19.425 22.4226 19.2959 22.3099 19.1675C22.8347 19.1265 23.3597 19.085 23.8845 19.0435C23.9406 19.1072 23.9966 19.1707 24.0527 19.2344C23.4387 19.7763 22.8245 20.318 22.2102 20.8595C22.0959 20.7602 21.9818 20.6607 21.8673 20.5614C22.067 20.2304 22.2668 19.8999 22.546 19.437Z" fill="#F36E23"/>
<path fill-rule="evenodd" clip-rule="evenodd" d="M9.88983 15.0512C10.9272 15.6767 11.0236 15.9664 10.5241 16.2952C10.1421 16.0181 9.8001 15.7697 9.42306 15.4965C9.46553 15.4414 9.56791 15.308 9.71562 15.1154C9.43809 15.0937 9.19683 15.0748 8.95557 15.056C8.93791 14.9653 8.92025 14.8744 8.90259 14.7834C9.43236 14.6209 9.96166 14.4584 10.4917 14.2959C10.5344 14.398 10.5769 14.4997 10.6198 14.6018C10.4081 14.7324 10.1967 14.8624 9.88983 15.0512Z" fill="#F36E23"/>
<path fill-rule="evenodd" clip-rule="evenodd" d="M12.8446 16.4048C12.6232 16.5976 12.3387 16.7704 12.3619 16.8375C12.6086 17.5548 12.1853 17.493 11.7495 17.3794C11.3608 17.278 10.8981 17.1883 11.0584 16.6007C11.1942 16.102 11.4918 15.9478 11.9898 16.1919C12.2177 16.3034 12.4924 16.3208 12.8446 16.4048Z" fill="#F36E23"/>
<path fill-rule="evenodd" clip-rule="evenodd" d="M14.2693 39.7026C15.1802 39.7026 15.899 39.7026 16.649 39.7026C16.1479 40.6966 15.5489 40.7183 14.2693 39.7026Z" fill="#F36E23"/>
<path fill-rule="evenodd" clip-rule="evenodd" d="M3.57646 46.0552C3.90411 45.8841 4.23223 45.7135 4.76869 45.4338C4.71094 46.0338 4.67037 46.4531 4.63028 46.8719C4.547 46.9084 4.46419 46.9451 4.38091 46.9814C4.10385 46.7237 3.82679 46.4659 3.54926 46.2094C3.55498 46.1562 3.56429 46.1046 3.57646 46.0552Z" fill="#F36E23"/>
<path fill-rule="evenodd" clip-rule="evenodd" d="M3.57646 46.0553C3.56405 46.1047 3.55499 46.1562 3.54926 46.2095C3.41204 46.2854 3.27506 46.3622 3.13761 46.439C3.09298 46.398 3.04884 46.3574 3.00421 46.3164C3.51776 45.5515 4.03154 44.7867 4.57611 43.9756C4.73815 44.9256 3.89385 45.3714 3.57646 46.0553Z" fill="#F36E23"/>
<path fill-rule="evenodd" clip-rule="evenodd" d="M20.3343 17.224C19.8756 17.0446 19.4007 16.8587 18.7597 16.6079C18.8595 16.5236 19.0201 16.2728 19.2062 16.2521C19.9992 16.164 20.2946 16.4824 20.3343 17.224Z" fill="#F36E23"/>
<path fill-rule="evenodd" clip-rule="evenodd" d="M16.901 22.7324C17.4501 22.6832 17.9987 22.615 18.5485 22.5971C18.706 22.592 18.8688 22.7321 19.0289 22.8056C18.8702 22.9354 18.6963 23.1898 18.5547 23.1731C17.9918 23.1061 17.4389 22.9543 16.8821 22.834C16.8886 22.7999 16.8948 22.766 16.901 22.7324Z" fill="#F36E23"/>
<path fill-rule="evenodd" clip-rule="evenodd" d="M14.9621 15.5445C14.454 15.5445 13.9462 15.5445 13.2181 15.5445C13.9001 14.7608 14.4208 14.9145 14.954 15.2498C14.9568 15.3481 14.9594 15.4462 14.9621 15.5445Z" fill="#F36E23"/>
<path fill-rule="evenodd" clip-rule="evenodd" d="M15.3704 21.9133C16.2471 21.9133 17.1243 21.9133 18.0009 21.9133C18.003 21.9546 18.0049 21.9959 18.0063 22.0374C17.1291 22.0374 16.2514 22.0374 15.3739 22.0374C15.373 21.9959 15.3718 21.9546 15.3704 21.9133Z" fill="#F36E23"/>
<path fill-rule="evenodd" clip-rule="evenodd" d="M19.0957 31.2518C19.2055 30.7848 19.2425 30.5244 19.3332 30.2839C19.3802 30.1588 19.5217 30.0693 19.6205 29.9639C19.7646 30.191 19.9092 30.4182 20.0534 30.6452C19.751 30.8368 19.4484 31.0284 19.0957 31.2518Z" fill="#F36E23"/>
<path fill-rule="evenodd" clip-rule="evenodd" d="M19.6207 23.2537C20.2834 23.8347 20.2882 24.4349 19.6207 24.9628C19.6207 24.37 19.6207 23.882 19.6207 23.2537Z" fill="#F36E23"/>
<path fill-rule="evenodd" clip-rule="evenodd" d="M13.8632 18.4166C14.4192 18.1572 14.9752 17.8976 15.5312 17.6382C15.5572 17.6907 15.5835 17.7432 15.6095 17.7959C15.0907 18.13 14.5717 18.4643 14.0529 18.7987C13.9894 18.6715 13.9262 18.544 13.8632 18.4166Z" fill="#F36E23"/>
<path fill-rule="evenodd" clip-rule="evenodd" d="M32.7302 0.00238895C35.1438 0.00238895 37.5576 0.00477572 39.9714 2.98007e-06C40.3537 -0.000712931 40.7009 0.127673 41.0419 0.26298C42.3666 0.787743 43.2608 1.73012 43.6307 3.11087C43.8836 4.05445 43.8264 5.00828 43.3672 5.88479C42.9138 6.75081 42.1487 7.22808 41.1875 7.35981C40.2406 7.48939 39.3817 7.26387 38.6234 6.65893C38.2146 6.33271 37.9566 5.93944 37.948 5.41134C37.943 5.07533 37.9265 4.73122 37.9872 4.40405C38.1043 3.77381 38.7436 3.36144 39.3211 3.4989C39.5569 3.55498 39.7404 3.68814 39.8791 3.88549C39.9783 4.02653 39.9857 4.17305 39.885 4.3117C39.7872 4.44629 39.6729 4.56847 39.5707 4.69996C39.3436 4.99277 39.3624 5.36074 39.6144 5.6199C39.8741 5.8867 40.2657 5.92297 40.5647 5.72443C41.7478 4.93907 41.6579 3.15908 40.4193 2.3847C39.0281 1.51463 37.2982 2.19618 36.7042 3.57264C36.5167 4.00696 36.4682 4.45703 36.4451 4.92499C36.4009 5.82465 36.6966 6.60404 37.2285 7.29848C37.4452 7.5815 37.7189 7.82873 37.9976 8.054C38.2215 8.23513 38.357 8.43558 38.3578 8.72027C38.3582 8.87253 38.3609 9.02836 38.3305 9.17607C38.2847 9.39944 38.1864 9.55765 37.8845 9.5598C36.9672 9.56577 36.0499 9.58724 35.133 9.58629C32.5338 9.58366 29.9351 9.57292 27.3361 9.56553C27.101 9.56505 26.9301 9.41614 26.9189 9.18156C26.9075 8.93648 26.9058 8.69044 26.9151 8.44536C26.9175 8.38929 26.9752 8.32772 27.0208 8.28238C27.3587 7.94661 27.7205 7.63209 28.0355 7.27628C28.4355 6.82454 28.7044 6.28331 28.7812 5.68672C28.8874 4.86223 28.8683 4.04609 28.4219 3.28914C27.5964 1.89049 25.7136 1.56451 24.5357 2.64052C24.3641 2.79731 24.2257 2.99585 24.0949 3.1901C23.8546 3.54734 23.8856 3.95899 23.9021 4.36157C23.9269 4.97439 24.2572 5.41253 24.7459 5.73755C25.049 5.93896 25.4606 5.86403 25.6811 5.60201C25.9164 5.32185 25.9143 4.95912 25.6732 4.66368C25.6031 4.57754 25.5255 4.49712 25.4578 4.4093C25.2969 4.20121 25.2971 4.03965 25.4525 3.82679C25.7689 3.39247 26.4393 3.34593 26.8733 3.72393C27.2124 4.01937 27.3415 4.40405 27.3549 4.8367C27.3869 5.87477 26.8428 6.71095 25.8696 7.12857C24.5944 7.67576 23.1544 7.382 22.2486 6.38975C21.8615 5.96593 21.6892 5.44522 21.5959 4.89612C21.4226 3.87929 21.5498 2.90422 22.1099 2.02364C22.9101 0.766266 24.05 0.0434344 25.5587 0.0207639C27.5461 -0.00906571 29.5337 0.00477546 31.521 0.000479992C31.9241 -0.000474556 32.3272 0.000479992 32.7302 0.000479992C32.7302 0.000718629 32.7302 0.00167304 32.7302 0.00238895Z" fill="#F36E23"/>
<path fill-rule="evenodd" clip-rule="evenodd" d="M30.1897 51.6683V10.5679H27.4003L24.8134 53.2973C26.8278 53.0729 28.583 52.4964 30.1897 51.6683Z" fill="#F36E23"/>
<path fill-rule="evenodd" clip-rule="evenodd" d="M33.9835 49.1132V10.5679H31.3278V51.025C32.2487 50.4613 33.1261 49.8172 33.9835 49.1132Z" fill="#F36E23"/>
<path fill-rule="evenodd" clip-rule="evenodd" d="M38.4725 44.9445C38.9434 44.4815 39.4211 44.0119 39.9079 43.5415L37.912 10.5679H35.1221V48.1379C36.2367 47.144 37.3357 46.0632 38.4725 44.9445Z" fill="#F36E23"/>
</svg>
