<svg width="96" height="20" viewBox="0 0 96 20" fill="none" xmlns="http://www.w3.org/2000/svg">
<path d="M0 18.9157L7.94593 0.269531H10.1256L17.5555 18.9157H0ZM3.40569 16.9436H14.2023L9.42999 4.49582L9.04293 3.49685H8.9658L8.60468 4.36773L3.40569 16.9436Z" fill="#07116B"/>
<path d="M19.1167 18.9157V17.3021L21.2192 16.9436V2.25458L19.1167 1.89607V0.269531H25.8626V1.89607L23.76 2.25458V8.69635H32.7381V2.25458L30.6356 1.89607V0.269531H32.7381H35.2796H37.3821V1.89607L35.2796 2.25458V16.9436L37.3821 17.3021V18.9157H30.6356V17.3021L32.7381 16.9436V10.6814H23.76V16.9436L25.8626 17.3021V18.9157H19.1167Z" fill="#07116B"/>
<path d="M39.6395 18.9157V17.3021L41.7421 16.9436V2.25458L39.6395 1.89607V0.269531H41.7421H45.1348L51.1843 14.4204H51.2622L57.1185 0.269531H62.7811V1.89607L60.6785 2.25458V16.9436L62.7811 17.3021V18.9157H56.0345V17.3021L58.2531 16.9436V11.5394V3.7144L58.1882 3.70152L52.0868 18.2495H50.3973L44.0897 3.72728L44.0248 3.74015L44.1149 11.5387V16.9429L46.3854 17.3014V18.9151H39.6395V18.9157Z" fill="#07116B"/>
<path d="M72.7005 19.185C71.4881 19.185 70.4 18.9546 69.4368 18.493C68.4736 18.0322 67.6544 17.3809 66.9793 16.5398C66.3042 15.6988 65.7881 14.7025 65.4311 13.5497C65.074 12.3969 64.8959 11.1248 64.8959 9.73346V9.46441C64.8959 8.08117 65.074 6.81112 65.4311 5.65425C65.7874 4.49737 66.3035 3.49638 66.9793 2.65125C67.6544 1.80613 68.4729 1.15281 69.4368 0.691956C70.4 0.231104 71.4874 0 72.7005 0C73.9818 0 75.1082 0.230426 76.0802 0.691956C77.0516 1.15281 77.8667 1.80613 78.5248 2.65125C79.1822 3.49638 79.6791 4.49737 80.0143 5.65425C80.3495 6.81112 80.5174 8.08117 80.5174 9.46441V9.73346C80.5174 11.1248 80.3495 12.3969 80.0143 13.5497C79.6791 14.7025 79.1822 15.6988 78.5248 16.5398C77.8667 17.3809 77.0516 18.0322 76.0802 18.493C75.1075 18.9539 73.9811 19.185 72.7005 19.185ZM72.7005 17.0847C73.947 17.0847 74.9559 16.777 75.7253 16.163C76.4946 15.5483 77.0605 14.6883 77.4217 13.5823C77.7828 12.4769 77.963 11.194 77.963 9.73414V9.43933C77.963 7.98765 77.78 6.71353 77.4148 5.61629C77.0496 4.51906 76.4796 3.66106 75.7062 3.0423C74.9321 2.42354 73.9299 2.11382 72.7005 2.11382C71.5741 2.11382 70.6191 2.42557 69.8368 3.0484C69.0545 3.67123 68.4606 4.53194 68.0565 5.62917C67.6524 6.72641 67.4503 7.99646 67.4503 9.43933V9.73414C67.4503 11.1858 67.6524 12.464 68.0565 13.5694C68.4606 14.6754 69.0538 15.5375 69.8368 16.1563C70.6191 16.775 71.5735 17.0847 72.7005 17.0847Z" fill="#07116B"/>
<path d="M82.2323 18.9159V17.0332L88.4109 9.59249L82.2323 2.15176V0.269043H94.8222V4.39231H92.6419L92.4487 2.25342H85.3929L85.354 2.3178L91.1073 9.45084V9.75853L85.354 16.8658L85.3929 16.9302H93.0938L93.287 14.7913H95.4544V18.9146H82.2323V18.9159Z" fill="#07116B"/>
</svg>
