<svg width="51" height="55" viewBox="0 0 51 55" fill="none" xmlns="http://www.w3.org/2000/svg">
<path d="M10.4976 10.8285L9.46609 8.61985L7.51237 4.25598C6.10135 1.23876 4.79887 1.77755 4.79887 1.77755C4.58179 2.0466 3.71348 3.87917 3.71348 3.87917C3.71348 3.87917 2.51954 5.01029 2.35639 5.17227C2.19392 5.33356 0.131659 10.7757 0.131659 10.7757C-0.465652 12.4456 1.16313 12.4991 1.16313 12.4991C2.24785 12.7147 2.84516 11.0447 2.84516 11.0447C2.84516 11.0447 3.11616 11.1789 3.19808 11.2331C3.27932 11.2867 3.38854 11.3409 3.55101 11.4751C3.71348 11.61 4.03909 11.5557 4.44663 11.5293C4.85348 11.5015 5.6945 11.1518 5.77642 11.0976C5.85765 11.0441 6.61743 10.8014 6.61743 10.8014L7.56698 12.6062L7.62091 12.7682C8.76024 14.4381 10.0088 13.1992 10.0088 13.1992C10.9856 12.8224 10.4976 10.8285 10.4976 10.8285ZM6.12934 9.50902C6.12934 9.50902 6.20102 9.32061 5.31017 9.10509C4.41933 8.88958 3.77833 8.80283 3.77833 8.80283L3.76331 8.83062C3.74419 8.86518 3.72713 8.895 3.71484 8.91669L3.76331 8.83062C3.78242 8.79673 3.80358 8.7581 3.82816 8.71405C4.2002 8.037 5.15248 6.25052 5.15248 6.25052L5.69518 8.10952C5.69518 8.10952 6.0208 8.53987 6.12934 8.75607C6.23788 8.97158 6.31911 9.24064 6.31911 9.24064L6.12934 9.50902Z" fill="#07116B"/>
<path d="M1.92362 15.8125C1.92362 15.8125 -0.762571 15.7318 0.539908 17.7514L1.92362 18.5328H2.65609L3.85003 18.7748C3.85003 18.7748 4.88082 19.2329 5.01667 19.2329C5.15251 19.2329 5.50476 19.0981 5.50476 19.0981L4.09442 20.0408L1.78846 21.7649L0.75767 23.1922L0.459356 23.7852C0.459356 23.7852 0.459357 23.7852 0.540591 24.0007C0.621825 24.2162 0.676436 24.4046 0.86621 24.593C1.05598 24.7821 0.920821 24.7015 1.57138 25.0512C2.22262 25.4016 2.19531 25.4016 2.49431 25.4822C2.79262 25.5629 2.49431 25.5093 3.30802 25.752C4.12172 25.9939 4.74566 25.9939 4.82757 26.0481C4.90881 26.1023 4.65555 26.021 5.31088 26.2101C5.9669 26.3985 7.78478 26.6947 7.78478 26.6947C7.78478 26.6947 8.1104 26.614 8.54456 26.6947C8.97871 26.7753 8.76095 26.7218 9.2231 26.6947C9.68457 26.6676 9.71119 26.7218 9.79242 26.4256C9.87366 26.1294 9.84703 26.0481 9.9822 25.51C10.118 24.9712 9.90096 24.5673 9.9822 24.3789C10.0634 24.1905 10.0279 24.0556 10.0279 24.0556C10.0279 24.0556 7.89332 23.7052 7.595 23.6517C7.296 23.5975 6.59084 23.382 6.31914 23.382C6.04814 23.382 6.28297 23.3013 5.3102 23.2478C4.33812 23.1935 4.14835 23.14 4.14835 23.14L5.10882 22.3857C5.10882 22.3857 5.45014 22.1166 5.8843 21.8469C6.31846 21.5772 6.31846 21.4586 6.59015 21.2756C6.86116 21.0926 6.56217 20.9848 7.26802 20.7964C7.97387 20.608 7.37656 20.9042 8.21825 20.5274C9.05927 20.1506 9.19511 20.0157 9.19511 20.0157C9.19511 20.0157 9.19511 19.5847 9.19511 19.504C9.19511 19.4234 9.41151 19.1265 9.52073 18.9923C9.62927 18.8575 9.68388 18.7497 9.68388 18.6148C9.68388 18.48 9.62927 17.8334 9.62927 17.8334C9.62927 17.8334 9.62927 17.5644 9.62927 17.4566C9.62927 17.3489 9.27703 16.9714 9.1678 16.8636C9.05927 16.7558 8.67972 16.5397 8.59848 16.5397C8.51725 16.5397 7.86601 16.3512 7.86601 16.3512C7.86601 16.3512 5.0938 16.459 5.10951 16.4055C5.12521 16.3512 3.60565 15.8118 3.52441 15.8125C3.4425 15.8125 1.92362 15.8125 1.92362 15.8125Z" fill="#07116B"/>
<path d="M29.8702 9.50914C29.6531 8.40445 29.9241 8.05475 29.5992 7.87922C29.2742 7.70368 28.8394 7.15947 28.8394 7.15947C28.8394 7.15947 28.5684 6.94938 28.4052 6.8423C28.2428 6.73454 28.0796 6.19575 27.754 6.24929C27.8769 6.22896 28.0796 6.19507 28.0796 6.19507C28.0796 6.19507 28.6223 5.38723 28.7309 5.11749C28.8394 4.84843 29.0565 4.47094 29.2189 3.50112C29.3814 2.5313 29.761 2.80103 29.2189 2.04673C28.6762 1.29242 27.754 0.323274 27.754 0.323274C27.754 0.323274 27.3744 0 27.1567 0C26.9396 0 26.9027 0.377492 26.072 0.377492C25.2405 0.377492 23.7749 0.377492 23.7749 0.377492L21.7843 1.07758L22.327 3.71799C22.327 3.71799 22.1099 4.2561 22.0553 4.41808C22.0014 4.57938 22.3809 5.92669 22.327 6.24997C22.2724 6.57324 22.0062 7.2469 22.058 7.87989C22.1092 8.51289 22.4458 9.21298 22.3318 9.69823C22.2178 10.1828 22.2212 11.4759 22.355 11.6379C22.4895 11.7992 22.9236 13.1465 22.9236 13.1465H23.7373H24.28C24.28 13.1465 25.1484 13.3613 25.3115 13.1465C25.474 12.931 28.0243 12.3922 28.0243 12.3922C28.0243 12.3922 28.4046 12.3922 28.567 12.2302C28.7302 12.0689 29.2183 11.745 29.3807 11.5301C29.5432 11.3146 29.8688 11.3681 29.8688 10.8293C29.8702 10.2906 30.0873 10.6138 29.8702 9.50914ZM24.7156 2.69395L25.3306 2.46081C25.3306 2.46081 26.3259 2.65803 26.5061 2.69395C26.6863 2.72987 26.687 2.83763 26.8495 3.01723C27.0126 3.19682 26.8495 3.1792 26.8495 3.43064C26.8495 3.68207 26.7956 3.57364 26.7232 3.84337C26.6508 4.11243 26.5239 4.13073 26.3976 4.2744C26.2706 4.41808 25.6924 4.79557 25.6924 4.79557L24.4261 4.70544C24.4261 4.70544 24.6787 2.74817 24.7156 2.69395ZM26.4153 10.9371C25.9457 11.1526 25.6917 11.0272 25.5654 11.0272C25.4392 11.0272 24.8241 11.1702 24.8241 11.1702L24.6978 9.08692L24.8241 9.10454C24.8241 9.10454 25.7102 9.01508 25.7641 9.01508C25.8187 9.01508 26.5239 9.2123 26.5239 9.2123L26.9219 9.46373L27.4461 10.3434C27.4468 10.3441 26.8857 10.7216 26.4153 10.9371Z" fill="#07116B"/>
<path d="M50.2921 8.81781C50.2921 8.81781 48.6101 4.34619 46.3492 2.01143L45.8966 1.07753C45.8966 1.07753 45.6256 0.826095 45.5532 0.736635C45.4809 0.647176 45.173 0.377441 45.173 0.377441H44.7027L43.835 1.25713C43.835 1.25713 43.5094 1.85014 43.4009 2.01143C43.2923 2.17273 42.9128 2.85588 42.8589 2.8918C42.8042 2.92772 39.5125 8.08113 39.5125 8.08113L39.1514 9.6975C39.1514 9.6975 38.7535 10.5236 39.4771 11.1343L40.3269 11.3322C40.3269 11.3322 40.7072 11.0807 40.9597 11.0984C41.213 11.116 42.0636 11.0448 42.0636 11.0448L44.6324 11.116L45.4461 11.0624C45.4461 11.0624 46.1157 11.2244 46.2058 11.242C46.2959 11.2603 47.2004 11.1343 47.4715 11.0984C47.7425 11.0624 48.6108 11.0089 48.7555 11.0089C48.9002 11.0089 49.7139 10.668 49.7139 10.668L50.402 10.4525L50.4921 9.30306L50.2921 8.81781ZM47.4892 8.42473C47.4892 8.42473 46.8919 8.20718 46.784 8.18956C46.6748 8.17126 45.6618 8.33256 45.4269 8.33256C45.1921 8.33256 43.3108 8.441 43.1299 8.4227C42.949 8.4044 42.8773 8.33256 42.8773 8.33256L42.6056 8.08113C42.7326 8.02759 42.6957 8.08113 42.6957 8.08113C42.6957 8.08113 45.2829 4.43633 45.3553 4.38211C45.3553 4.38211 45.6809 4.79552 45.7894 4.9026C45.8973 5.01104 46.2959 5.56745 46.2959 5.56745C46.2959 5.56745 46.2058 5.83651 46.2413 5.98018C46.2775 6.12386 46.5485 6.48305 46.711 6.82463C46.8735 7.1662 47.3622 7.91983 47.4892 8.08113C47.6155 8.2431 47.4892 8.42473 47.4892 8.42473Z" fill="#07116B"/>
<path d="M41.6649 22.2328L48.6831 22.0708L49.3343 22.1521L49.5159 22.6462V24.209C49.5159 24.209 49.3343 25.0169 48.7015 25.107L46.4952 24.9633L45.9887 24.9267L46.1334 29.0039C46.1334 29.0039 46.1874 29.13 46.2781 29.1469C46.3689 29.1652 47.2734 29.1469 47.3274 29.1469C47.382 29.1469 48.593 29.155 48.593 29.155C48.593 29.155 48.937 29.3983 48.991 29.3983C49.0449 29.3983 49.3889 29.3983 49.5159 29.3983C49.6422 29.3983 49.9678 29.5603 49.9678 29.6139C49.9678 29.6674 49.9678 30.9429 49.9678 30.9429L49.5883 31.8768L49.2811 32.0923L48.8094 32.1818L48.3752 32.3797L46.7109 32.2001L43.7449 32.3797C43.7449 32.3797 41.701 32.5057 41.6649 32.5057C41.6287 32.5057 40.6334 32.5775 40.5795 32.5057C40.5255 32.4339 40.3446 32.093 40.3446 32.0205C40.3446 31.9493 40.4347 31.033 40.4347 31.033C40.4347 31.033 40.4163 30.6555 40.5433 30.5301C40.6696 30.4041 40.9413 30.0991 41.0675 29.9737C41.1945 29.8477 41.3024 29.7406 41.3024 29.7406L41.3386 29.5427C41.3386 29.5427 42.1168 29.3089 42.1714 29.3089C42.2253 29.3089 44.3599 29.2194 44.3599 29.2194L44.4316 24.7837L42.4779 24.8739L41.3386 24.6041L40.9406 24.4428C40.9406 24.4428 40.7064 24.371 40.6696 24.1914C40.6334 24.0118 40.2893 23.5814 40.3439 23.5089C40.3979 23.4371 40.2962 22.9878 40.3385 22.9342C40.3808 22.8807 40.4525 22.4856 40.4525 22.4856C40.4525 22.4856 40.688 22.1799 40.7419 22.1623C40.7959 22.1426 41.6649 22.2328 41.6649 22.2328Z" fill="#07116B"/>
<path d="M50.6975 46.9258C50.7631 46.5754 50.6975 44.3938 50.6975 44.3938L49.9664 44.0977L40.4525 44.2318C40.3439 44.259 40.2893 44.7706 40.1542 44.9055C40.0183 45.0397 39.8006 45.4985 39.7466 45.6327C39.6927 45.7669 39.5575 46.4941 39.6115 46.6561C39.6654 46.818 39.8279 47.0064 39.8279 47.0064L41.8628 47.3297C41.8628 47.3297 42.8936 47.4104 42.9748 47.4646C43.0561 47.5188 43.5995 47.5452 43.5721 47.6801C43.5448 47.815 43.9517 49.3764 44.0329 49.4849C44.1142 49.5933 44.4671 50.2392 44.4671 50.2392C44.4671 50.2392 44.8473 50.9122 44.9019 50.9928C44.9559 51.0735 45.0098 50.9928 45.4166 51.2626C45.8235 51.5323 46.2037 51.6665 46.285 51.7471C46.3669 51.8278 46.2577 51.9084 47.0714 51.962C47.8857 52.0169 48.3199 51.7742 48.4824 51.7742C48.6455 51.7742 48.6455 51.9084 48.9165 51.6658C49.1882 51.4239 49.6763 50.9921 49.7576 50.8044C49.8388 50.6153 50.1371 49.9423 50.1917 49.861C50.2463 49.7804 50.6259 49.1603 50.6798 48.837C50.7344 48.5137 50.6252 48.326 50.6798 47.9478C50.7358 47.5723 50.6313 47.2762 50.6975 46.9258ZM49.5691 47.8678C49.5691 48.1647 49.3248 48.6221 49.2162 48.9732C49.1084 49.3229 48.8906 49.4036 48.6742 49.7268C48.4571 50.0501 48.6742 49.7268 48.4844 49.9959C48.2947 50.2649 48.3759 50.1572 48.1315 50.2921C47.8878 50.4269 48.1315 50.292 47.8059 50.1843C47.4796 50.0765 47.4796 50.1036 47.2898 49.9688C47.1 49.8346 46.5846 49.8346 46.5846 49.8346C46.5846 49.8346 45.8249 49.7533 45.689 49.5655C45.5532 49.3764 45.689 49.5655 45.6078 49.2145C45.5259 48.8648 45.5259 48.8648 45.4719 48.6221C45.4173 48.3802 45.6344 47.7872 45.7429 47.6252C45.8515 47.4639 46.0686 46.7096 46.0686 46.7096H49.4333C49.4333 46.7096 49.5412 47.0329 49.5685 47.3019C49.5964 47.5723 49.5691 47.5723 49.5691 47.8678Z" fill="#07116B"/>
<path d="M32.964 42.9387C33.1531 42.9116 35.3785 42.8045 35.3512 42.9387C35.3246 43.0736 35.541 46.5218 35.5136 46.7102C35.487 46.8986 35.7041 47.3839 35.7041 47.6536C35.7041 47.9227 35.7041 51.478 35.7041 51.478C35.7041 51.478 35.3512 52.5285 34.334 52.4749C34.334 52.4749 33.3162 52.4207 33.1811 51.2354C33.1811 51.2354 33.0998 49.8887 33.0998 49.781C33.0998 49.6732 33.3162 48.5292 33.3162 48.5292C33.3162 48.5292 33.1271 45.0939 33.1271 45.0132C33.1271 44.9326 32.9647 43.6395 32.9647 43.6395V42.9387H32.964Z" fill="#07116B"/>
<path d="M21.3781 43.2619C21.3781 43.2619 21.8396 42.9406 21.9208 42.8728C22.002 42.8044 22.3004 42.8064 22.3816 42.8728C22.4628 42.9386 22.9789 43.0104 23.0601 43.0423C23.1414 43.0734 23.6295 43.289 23.6568 43.3967C23.6841 43.5038 23.5482 43.72 23.6568 43.8007C23.7653 43.8813 23.6602 46.7637 23.6602 46.7637C23.6602 46.7637 23.3578 48.4878 23.4124 48.622C23.467 48.7568 23.7059 48.973 23.7059 48.973C23.7059 48.973 23.8636 49.3227 23.7059 49.4576C23.5482 49.5918 23.4124 49.5376 23.4397 49.888C23.467 50.2384 23.467 50.5074 23.467 50.6687C23.467 50.83 23.2499 50.9655 23.2499 50.9655H27.0754C27.0754 50.9655 26.9669 51.2075 27.0754 51.2888C27.184 51.3701 27.3198 52.178 27.3198 52.178C27.3198 52.178 27.4823 52.4247 27.3198 52.4762C27.1567 52.5277 26.913 52.9316 26.913 52.9316L26.8044 53.0936C26.8044 53.0936 26.7771 53.3091 26.6959 53.3356C26.6147 53.3633 23.9558 53.5775 23.3585 53.6053C22.7618 53.6324 20.4559 53.282 20.32 53.3356C20.1842 53.3898 17.7424 53.3633 17.7424 53.3633C17.7424 53.3633 17.4168 53.0936 17.227 52.7703C17.0372 52.4471 16.6297 51.6128 16.6297 51.6128L16.4945 51.3701V50.8049C16.4945 50.8049 17.227 50.7236 17.5792 50.75C17.9321 50.7778 21.2696 50.6694 21.2696 50.6694L21.7037 50.8585C21.7037 50.8585 21.6491 50.1313 21.6225 49.9158C21.5952 49.6996 21.4867 48.3184 21.514 48.2147C21.5413 48.111 21.4054 45.2557 21.4054 45.1751C21.4054 45.0944 21.6498 44.3937 21.5952 44.0975C21.5406 43.8007 21.3781 43.2619 21.3781 43.2619Z" fill="#07116B"/>
<path d="M8.46266 43.9626C8.2722 43.8278 7.89265 43.4509 7.56703 43.4509C7.24141 43.4509 6.75332 43.3432 6.12939 43.4509C5.50477 43.5594 4.79961 43.4028 4.79961 43.4028L4.60983 43.9626C4.60983 43.9626 3.63297 43.9355 3.55174 43.9626C3.47051 43.9891 2.03218 43.9891 1.95095 44.0975C1.86903 44.2053 1.35364 44.4479 1.35364 44.4479V45.4719C1.35364 45.4719 1.76049 45.741 1.7878 45.8223C1.8151 45.903 2.60219 46.4417 2.60219 46.4417C2.60219 46.4417 2.81858 46.6302 3.38927 46.5759C3.95859 46.5224 3.87736 46.5759 4.20298 46.4146C4.52928 46.2533 4.36545 46.172 4.69175 46.0649C5.01737 45.9565 5.55939 46.0107 5.77715 46.0378C5.99355 46.0649 6.13007 46.172 6.13007 46.172L5.9403 47.7884C5.9403 47.7884 5.6413 47.7782 5.56007 47.6752C5.47883 47.5729 4.52928 47.7613 4.39344 47.7884C4.25759 47.8162 3.98658 48.2662 3.79613 48.2153C3.60635 48.1659 3.11758 47.9849 2.71073 48.0344C2.30387 48.0845 1.51679 48.2194 1.51679 48.2194C1.51679 48.2194 1.59802 49.1086 1.59802 49.1892C1.59802 49.2706 1.89702 49.6474 1.89702 49.6474C1.89702 49.6474 2.3578 50.2939 2.57556 50.2126C2.79264 50.132 3.4432 50.0777 3.4432 50.0777C3.4432 50.0777 5.26107 50.1191 5.42354 50.2187C5.58669 50.3204 6.26455 50.2187 6.26455 50.2187L6.23725 51.9706C6.23725 51.9706 3.33398 51.9787 3.19813 51.9706C3.06297 51.9625 2.76397 52.0709 2.6015 52.098C2.43835 52.1245 2.00419 52.098 2.00419 52.098L1.67789 53.0678L1.84104 53.7408C1.84104 53.7408 1.81374 53.9564 1.89497 54.0099C1.97621 54.0634 2.60082 53.9021 2.81722 54.0099C3.0343 54.1176 3.79408 53.9021 3.79408 53.9021L5.31364 53.8215L5.85633 53.608C5.85633 53.608 7.13151 53.5822 7.24005 53.608C7.34859 53.6338 8.13567 53.4176 8.13567 53.4176C8.13567 53.4176 8.67769 53.0679 8.67769 52.2051C8.67769 52.2051 8.75892 51.6941 8.67769 51.6128C8.59646 51.5315 8.43399 51.5043 8.43399 51.4237C8.43399 51.343 8.35275 50.8585 8.35275 50.6965C8.35275 50.5345 8.16298 47.6738 8.16298 47.6738L8.24421 46.1978L8.48928 45.5783C8.48928 45.5783 8.57051 45.0666 8.57051 44.9318C8.5712 44.7976 8.46266 43.9626 8.46266 43.9626Z" fill="#07116B"/>
<path d="M7.67615 27.9968C7.67615 27.9968 8.76087 29.9277 7.67615 30.5478C7.67615 30.5478 6.67199 31.2215 5.45143 29.9826C5.45143 29.9826 5.0712 29.3625 3.82333 29.8206C3.82333 29.8206 0.920739 31.1672 0.649048 34.3464C0.649048 34.3464 0.920739 35.3434 1.3549 36.0163C1.3549 36.0163 1.13782 37.0133 1.21905 37.0397C1.30097 37.0668 1.73513 37.4978 1.73513 37.4978L2.41368 37.6863L2.90176 38.4677C2.90176 38.4677 3.44378 39.1413 3.5257 39.1142C3.60693 39.0871 4.01379 39.1149 4.01379 39.1149L5.77773 39.3568L6.75459 39.1142L7.29729 39.0065L7.45976 40.1918L7.5956 41.0261L7.78538 41.5113L8.15946 41.9695L8.54516 42.2663L9.08717 42.1043C9.08717 42.1043 9.4674 41.4578 9.52133 41.3771C9.57526 41.2965 10.1999 40.2724 10.1999 40.2724L10.363 38.7835C10.363 38.7835 9.73841 35.9628 7.75807 35.5318C7.75807 35.5318 6.80783 35.1814 5.66851 36.0977C5.66851 36.0977 4.3121 37.0946 3.11748 35.4511C3.11748 35.4511 2.57546 34.0509 3.90456 32.892L5.11011 33.1076L5.66851 33.2153C5.66851 33.2153 5.66851 33.8619 8.02908 33.5386C8.02908 33.5386 9.79302 33.054 10.1459 32.2726C10.1459 32.2726 11.503 29.7135 9.68517 27.6126L8.71718 27.3164C8.71718 27.3164 8.51785 27.4242 8.43662 27.4513C8.35538 27.4784 7.67615 27.9968 7.67615 27.9968Z" fill="#07116B"/>
<path d="M38.3903 35.3427C38.3903 35.1272 38.4988 28.0152 38.4988 27.6919C38.4988 27.3686 38.5527 21.2752 38.5527 21.2752C38.5527 21.2752 38.6073 17.7795 38.6073 17.6182C38.6073 17.4563 38.4442 14.7088 38.4442 14.7088L38.2278 13.617C38.2278 13.617 37.468 12.5299 35.7047 13.2428C35.7047 13.2428 32.639 13.6542 31.8792 13.6427C31.1194 13.6319 26.1273 13.9545 26.0734 13.9545C26.0188 13.9545 23.1967 13.4922 23.0336 13.6427C22.8711 13.7932 19.1268 13.9009 19.1268 13.9009L12.5605 13.6427C12.5605 13.6427 11.258 13.3621 11.3666 14.6552C11.3666 14.6552 11.2997 18.2106 11.3604 18.3725C11.4212 18.5338 11.3345 21.2759 11.3345 21.2759C11.3345 21.2759 11.6922 21.6764 11.6922 22.0716C11.6922 22.4667 11.3345 22.8442 11.3345 22.8442C11.3345 22.8442 11.6376 26.2701 11.6376 26.739C11.6376 27.2087 11.6376 28.8244 11.6376 28.8244L11.9482 33.8348V37.0133V37.5521C11.9482 37.5521 12.1489 38.1445 11.9482 38.4677C11.7468 38.791 11.9482 40.2461 11.9482 40.2461V41.1075H12.8322H17.4987C17.4987 41.1075 20.1037 41.0539 20.4832 41.1075C20.8635 41.161 24.9334 41.1075 24.9334 41.1075C24.9334 41.1075 26.9956 41.3176 27.1581 41.1319C27.3212 40.9462 27.8633 40.8926 27.8633 40.8926C27.8633 40.8926 29.4135 40.6764 29.9678 40.6229C30.5228 40.5687 35.0262 40.9462 35.0262 40.9462L36.2748 40.7849C36.2748 40.7849 37.6858 40.7849 37.9028 40.7849C38.1199 40.7849 38.6087 40.3545 38.6087 40.3545L39.0422 39.977C39.0408 39.9757 38.3903 35.5583 38.3903 35.3427ZM24.4262 29.7393C24.4262 29.7393 24.2268 31.3015 24.1729 31.4635C24.1183 31.6248 24.1729 33.6179 24.1729 33.6179V35.7196L24.4262 39.1319L23.6848 38.7829H21.4594L20.103 39.0601C20.103 39.0601 19.1261 39.222 18.9357 39.0601C18.7445 38.8988 17.3902 39.0601 17.3902 39.0601H14.0254L13.7538 38.3057L14.0254 36.4203C14.0254 36.4203 14.0794 35.073 14.0794 34.7904C14.0794 34.5078 13.7538 33.3496 13.7538 33.3496V29.8478L14.1879 29.2554L15.3272 28.7702L16.1409 28.8244C16.1409 28.8244 16.7929 28.6089 17.2263 28.5608C17.6605 28.5133 18.1486 28.8779 18.1486 28.8779L20.4279 28.5608H21.0792L22.2724 28.6089C22.2724 28.6089 23.0868 28.5011 23.3039 28.6089C23.521 28.7166 24.4255 28.6089 24.4255 28.6089V29.7393H24.4262ZM24.1729 24.8909L24.4262 25.4297V26.7384C24.4262 26.7384 23.7387 26.7763 23.4677 26.7384C23.196 26.7004 21.8936 26.5073 21.785 26.4537C21.6765 26.3995 20.3201 26.4537 20.3201 26.4537C17.4441 26.2382 13.7538 27.1043 13.7538 27.1043V24.7838C13.7538 24.7838 13.6452 23.814 13.4827 23.5985C13.3196 23.3829 13.7292 22.0722 13.7292 22.0722L13.7538 20.4742C13.7538 20.4742 13.6991 15.8948 13.7538 15.8135H24.1729L24.4262 16.5407C24.4262 16.5407 24.1183 20.3122 24.1183 20.4742C24.1183 20.6348 24.1729 24.8909 24.1729 24.8909ZM36.7082 38.7829H30.5215L26.072 39.1319V38.5213L26.4516 37.4979V36.7429C26.4516 36.7429 26.2345 36.0964 26.072 35.9351C25.9089 35.7738 25.8003 35.073 25.674 34.7904C25.5471 34.5078 25.674 33.2418 25.674 33.2418L26.072 32.703V28.556L26.9219 28.7695L28.1336 28.556C28.1336 28.556 29.3275 28.8779 29.6531 28.8779C29.9788 28.8779 31.1625 28.556 31.1625 28.556C31.1625 28.556 32.2035 28.4469 32.5284 28.3391C32.854 28.2314 34.3197 28.3391 34.3333 28.3391C34.347 28.3391 36.3273 28.3391 36.3273 28.3391C36.3273 28.3391 36.3819 29.3625 36.4359 29.6322C36.4905 29.9013 36.7075 30.9253 36.7075 30.9253V38.7829H36.7082ZM36.7082 21.4582C36.4911 21.7964 36.7082 23.7055 36.7082 23.7055V26.1298C36.7082 26.1298 36.057 26.0762 35.4597 26.0762C34.8624 26.0762 34.646 26.022 34.646 26.022L33.3981 25.9142C33.3981 25.9142 32.4212 26.2911 32.2588 26.2911C32.0956 26.2911 29.5992 26.3453 29.4367 26.3453C29.2743 26.3453 26.9226 26.7384 26.9226 26.7384L26.3164 26.3453L26.0727 25.4832V23.4358L26.5608 20.2031V15.8121H29.5999L31.1734 15.4617L35.7047 15.8121L36.1655 16.6477L36.5997 18.6409L37.0885 19.665C37.0885 19.665 36.9253 21.12 36.7082 21.4582Z" fill="#07116B"/>
</svg>
