<svg width="47" height="58" viewBox="0 0 47 58" fill="none" xmlns="http://www.w3.org/2000/svg" id="logo_prespes" >
<g clip-path="url(#clip0_231_32)">
<path d="M43.3188 19.4255C43.3381 19.0979 43.4921 17.3657 43.2939 16.6731C43.2616 16.35 43.2586 15.5807 43.108 15.1818C43.056 14.7155 42.9566 14.2601 42.8193 13.8128C42.8096 13.7857 42.7978 13.7589 42.7863 13.7329C42.7877 13.7336 42.7889 13.7344 42.79 13.7355C42.6519 13.1164 42.3621 12.5245 42.0166 11.9921C41.8816 11.5935 41.1513 10.6815 41.0244 10.5068C40.8025 10.1707 40.5498 9.86207 40.2585 9.58731C40.2262 9.55497 40.1939 9.52225 40.162 9.4899C40.113 9.36423 40.0343 9.3066 39.9404 9.27946C39.9486 9.27798 39.9575 9.27686 39.9653 9.27612C39.7486 9.0218 39.5152 8.78608 39.2521 8.58234C39.2588 8.59535 39.2625 8.60762 39.2643 8.61952C39.1749 8.35926 38.7174 8.1425 38.5233 7.97593L38.4583 7.94656C38.3092 7.82312 38.1886 7.66065 38.003 7.58591C37.9774 7.5677 37.9514 7.54911 37.9262 7.53089C37.924 7.53386 37.9229 7.53684 37.9214 7.53944C37.8902 7.49259 37.8587 7.42976 37.7848 7.43459C37.1759 6.97839 36.5376 6.57016 35.8723 6.20765C35.7906 6.15337 35.7194 6.07901 35.6136 6.07566C35.6118 6.08013 35.6099 6.08384 35.6081 6.08831C35.5134 5.95557 35.2221 5.78008 35.054 5.77451C35.0618 5.77042 35.07 5.7667 35.0785 5.76298C34.6618 5.50718 34.2299 5.28076 33.7883 5.07441C33.7798 5.06846 33.7694 5.06325 33.756 5.05916C33.4506 4.94056 32.9745 4.5115 32.6784 4.58177C32.6869 4.56467 32.6988 4.5498 32.7144 4.53827C32.1511 4.24492 31.5766 3.97723 30.9974 3.71883C30.9896 3.7389 30.9829 3.75861 30.9755 3.77869C30.9748 3.77906 30.9744 3.7798 30.974 3.78017C30.4538 3.27973 29.483 3.04104 28.7947 2.70158C28.7961 2.7079 28.7976 2.7146 28.7991 2.72092C28.6121 2.51382 27.8866 2.32309 27.7367 2.23497C27.0205 1.89106 26.2828 1.60292 25.5306 1.35418C24.5343 0.950407 23.4938 0.638467 22.4328 0.470042C21.9898 0.357387 21.5408 0.281911 21.084 0.253283C20.6012 0.129474 20.1084 0.101589 19.6141 0.0822551C19.1892 0.0272287 18.7628 0.00603615 18.335 0.0246261C18.0133 -0.0277976 17.6871 0.0175619 17.3691 0.0320621C17.3739 0.0294595 17.3783 0.0268569 17.3832 0.0242543C17.3012 0.00157455 17.2206 0.0116131 17.1405 0.0354083C17.057 0.0149593 16.9754 0.0131003 16.8971 0.0551137C16.8603 0.0554855 16.824 0.0558573 16.7876 0.0566009C16.6592 0.0257415 16.533 0.0320621 16.4087 0.0785371C16.1044 0.0673831 15.8016 0.0848577 15.5025 0.148064C15.0554 0.171115 14.613 0.228372 14.1759 0.330989C13.9028 0.341771 13.6382 0.428772 13.3814 0.497555C13.3896 0.492722 13.3989 0.489376 13.4078 0.487888C13.3209 0.468555 13.2475 0.508337 13.174 0.547376H13.1736C13.1068 0.579723 13.0412 0.616159 12.9629 0.596454C12.9528 0.597198 12.9436 0.598685 12.935 0.600172C12.6953 0.631775 12.463 0.693494 12.2396 0.790533C12.2396 0.790905 12.2396 0.791277 12.2392 0.792021C12.1387 0.774174 12.0578 0.827713 11.9728 0.868239C11.8466 0.875304 11.7338 0.922894 11.6247 0.983869C11.6299 0.993908 11.6292 1.00766 11.627 1.02254C11.6251 1.01175 11.624 0.999113 11.6247 0.983869C11.3153 1.06641 11.0124 1.16754 10.7245 1.31403C10.618 1.34117 10.5352 1.37798 10.4722 1.41887C9.81423 1.66054 9.18784 1.98438 8.58558 2.33945C8.44717 2.406 8.29799 2.45285 8.19186 2.57666C8.17813 2.57666 8.16737 2.58224 8.15884 2.59376C7.54804 2.93991 6.97917 3.3474 6.45224 3.81587C6.4886 3.81735 6.50641 3.82962 6.51495 3.84673C6.27115 3.76753 5.6173 4.57397 5.42249 4.71674C5.42545 4.72194 5.42768 4.7264 5.43028 4.73124C5.32304 4.78701 5.22433 4.87103 5.17943 4.94688C5.0733 5.02384 4.98053 5.11456 4.90409 5.22313C4.69962 5.38932 4.52632 5.58675 4.36416 5.79496C3.69585 6.50323 3.10991 7.27621 2.616 8.12279C2.15623 8.83739 1.75509 9.58508 1.43559 10.377C1.44561 10.3818 1.45786 10.3882 1.47121 10.3956C1.34097 10.4964 1.20923 10.8143 1.17398 11.0173C1.16767 11.0336 1.16136 11.0496 1.15542 11.066C0.881938 11.7159 0.678215 12.3885 0.527927 13.0793C0.527927 13.0796 0.527927 13.08 0.527927 13.08C0.472265 13.2049 0.444805 13.3373 0.43627 13.4741C0.441465 13.4719 0.445176 13.4693 0.449629 13.4667C0.351292 13.8719 0.218445 14.2772 0.20991 14.7055C0.0830007 15.3666 0.0329047 16.0351 0.025112 16.7073V16.7076C-0.0056877 16.8456 -0.00939851 16.9839 0.0136085 17.1233C-0.0316634 18.3495 0.0622201 19.5869 0.280416 20.7941C0.403244 21.1503 0.305278 22.0125 0.642962 22.1943C0.615502 22.1969 0.5873 22.1988 0.558727 22.198C0.542028 22.2835 0.579136 22.3549 0.615131 22.4267L0.616615 22.4252C0.618842 22.5888 0.666711 22.7412 0.729053 22.8899C0.73165 22.8829 0.734248 22.8758 0.736474 22.8687C0.773582 23.0911 0.799929 23.3168 0.910511 23.5194C0.916449 23.5056 0.918304 23.4915 0.919788 23.4777C0.920531 23.4911 0.918304 23.5045 0.910511 23.5194C1.19402 24.5742 1.58699 25.5859 2.04602 26.5711C2.05567 26.6183 2.07199 26.6574 2.0924 26.692C2.15549 26.9087 2.24937 27.1106 2.37554 27.2976C2.37962 27.3088 2.38519 27.3188 2.39224 27.3277C2.39075 27.3277 2.39001 27.3277 2.3889 27.3277C2.61823 27.8579 2.86574 28.3781 3.1845 28.8595C3.18672 28.8588 3.18821 28.8584 3.18969 28.8577C3.19711 28.8792 3.2075 28.9038 3.22309 28.9324C3.40566 29.37 3.69622 29.7247 3.97304 30.082C3.96154 30.0813 3.94967 30.0805 3.93668 30.0805C4.20386 30.5297 4.50926 30.9483 4.85325 31.338C4.90149 31.3989 4.95047 31.4603 4.99945 31.522C4.99908 31.522 4.99871 31.5216 4.99797 31.5216C5.03953 31.6064 5.09668 31.6767 5.16978 31.7328C5.45737 32.0845 5.76128 32.4337 6.096 32.7411C6.64037 33.4018 7.2983 33.8933 7.97478 34.3585C7.94287 34.3547 7.91095 34.3525 7.87756 34.3518C8.25532 34.6868 8.65163 34.9942 9.07615 35.2634C9.23423 35.4181 9.51551 35.578 9.60457 35.6296C9.82425 35.8048 10.0573 35.9565 10.3055 36.0836C10.3055 36.0832 10.3055 36.0829 10.3055 36.0821C10.5382 36.2736 10.8173 36.4119 11.0796 36.5573C11.3717 36.7488 11.6771 36.9138 11.9962 37.0529C12.093 37.1291 12.2003 37.1845 12.3187 37.2154C12.3758 37.2622 12.4968 37.3392 12.574 37.3343C12.5743 37.3362 12.5751 37.3384 12.5754 37.3407C12.6485 37.3931 12.7476 37.4477 12.8467 37.4734C12.984 37.5556 13.1258 37.6273 13.2786 37.6734C13.8111 37.9285 14.3589 38.1423 14.9203 38.32C15.9901 38.6933 17.0793 39.0193 18.2036 39.1662C18.1817 39.1543 18.1654 39.1379 18.1528 39.1194C18.1702 39.1346 18.1869 39.1502 18.2036 39.1662C18.5554 39.2469 18.9117 39.2922 19.2712 39.3149C20.6398 39.5287 22.0658 39.5339 23.4299 39.4462C23.5097 39.4644 23.5888 39.4473 23.6678 39.4358C23.6659 39.4339 23.6645 39.432 23.6626 39.4302C23.6953 39.4276 23.7287 39.4253 23.7613 39.4227C24.0359 39.3885 24.666 39.4309 25.0694 39.3131C25.5896 39.2844 26.1021 39.2023 26.6101 39.084C26.8739 39.0576 27.1318 39.0008 27.3845 38.9182C27.3118 38.8628 27.3129 38.8249 27.3471 38.7929C27.484 39.2885 31.249 37.5362 31.6739 37.2265C31.9284 37.0421 33.7041 36.2171 33.6276 35.8449C33.6491 35.8754 33.6473 35.9226 33.6042 35.9977C33.7029 35.9505 33.7968 35.897 33.8666 35.8081C33.9378 35.7817 33.9686 35.746 33.9775 35.7047C33.9783 35.7096 33.9794 35.7148 33.9801 35.72C34.0043 35.7025 34.028 35.685 34.0518 35.6676C34.0492 35.6624 34.0466 35.6568 34.044 35.6516C34.0881 35.6668 34.1345 35.6471 34.1716 35.5702L34.1879 35.5642L34.1983 35.5504C34.4243 35.4073 34.6292 35.2367 34.8192 35.047C34.9179 34.9894 35.0069 34.9206 35.0741 34.8247C35.3119 34.6474 35.5294 34.4466 35.732 34.2283C35.7487 34.2164 35.7647 34.1993 35.7758 34.1815C35.8637 34.1317 35.9365 34.0655 35.9884 33.9766C36.2705 33.7357 36.5276 33.4687 36.7799 33.1958C37.1343 32.8649 37.4386 32.4872 37.7448 32.1109C37.724 32.1124 37.7065 32.1128 37.6917 32.112C38.0034 32.0169 40.5097 28.4454 40.5501 28.1925C40.824 27.7538 41.3813 27.166 41.3973 26.6604C41.4084 26.6871 41.4192 26.7143 41.437 26.7336C41.6166 26.3919 42.2656 25.3423 42.148 25.0293C42.1714 25.0322 42.194 25.0352 42.2178 25.0371C42.3491 24.7478 42.4508 24.4481 42.5135 24.1351C42.5258 24.0916 42.538 24.0485 42.5514 24.0046C42.5629 23.9618 42.5747 23.9194 42.5863 23.8767C42.8557 22.9323 43.0987 21.9645 43.1718 20.9837C43.1566 20.7774 43.288 20.5915 43.2523 20.3821C43.2824 20.2594 43.2984 20.1356 43.2839 20.0092C43.3165 19.8148 43.3258 19.6207 43.3188 19.4255ZM0.946135 19.0232C0.942424 19.0176 0.938713 19.0121 0.9376 19.0061C0.94428 19.0061 0.949475 19.0054 0.955412 19.0046C0.951701 19.0102 0.949104 19.0165 0.946135 19.0232ZM1.70129 10.5789C1.69757 10.5655 1.69423 10.5529 1.69089 10.541C1.70091 10.5566 1.70982 10.5722 1.71724 10.5875C1.71205 10.5845 1.70648 10.5815 1.70129 10.5789ZM1.77736 20.9569C1.79851 20.9555 1.81929 20.9558 1.8397 20.9588C1.81929 20.9636 1.79925 20.964 1.77736 20.9569ZM1.93989 11.1217C1.93952 11.1202 1.93915 11.1188 1.93915 11.1173C1.94212 11.1191 1.94583 11.1206 1.94917 11.1225C1.94583 11.1221 1.94249 11.1221 1.93989 11.1217ZM2.05938 11.0622C2.06012 11.0619 2.06012 11.0615 2.06049 11.0611C2.06086 11.0615 2.06086 11.0619 2.06123 11.0626C2.06086 11.0622 2.06012 11.0622 2.05938 11.0622ZM2.2464 9.83716C2.24492 9.83196 2.24343 9.82712 2.24195 9.82229C2.24566 9.82564 2.24974 9.8301 2.25382 9.83382C2.25123 9.83493 2.24863 9.83605 2.2464 9.83716ZM2.53102 10.8871C2.53102 10.8868 2.53102 10.8868 2.53102 10.8871V10.8871ZM2.60301 15.7867C2.60301 15.7867 2.60301 15.7863 2.60301 15.786C2.60375 15.7852 2.60413 15.7845 2.6045 15.7841C2.60413 15.7852 2.60375 15.786 2.60301 15.7867ZM32.9574 6.16601C32.9586 6.16601 32.9597 6.16638 32.9604 6.16676C32.9597 6.16713 32.9589 6.1675 32.9582 6.16824C32.9582 6.16787 32.9578 6.16713 32.9574 6.16601ZM32.8157 8.02761C32.806 8.02464 32.7971 8.0198 32.789 8.01423C32.7982 8.01832 32.8068 8.02278 32.8157 8.02761ZM30.7317 5.33318C30.7361 5.33318 30.7402 5.33207 30.7447 5.33095C30.7436 5.33392 30.7432 5.3369 30.7425 5.33987C30.7387 5.33801 30.735 5.33578 30.7317 5.33318ZM30.5384 4.79853C30.545 4.80076 30.5517 4.80225 30.5595 4.80374C30.5599 4.80597 30.561 4.8082 30.5617 4.8108C30.5539 4.81155 30.5458 4.81192 30.538 4.81155C30.5398 4.81006 30.5417 4.80894 30.5439 4.80746C30.5413 4.80448 30.5398 4.80151 30.5384 4.79853ZM29.2129 4.41037C29.2136 4.41112 29.214 4.41186 29.2143 4.41223C29.2136 4.41298 29.2136 4.41409 29.2129 4.41484C29.2121 4.41446 29.2114 4.41446 29.2106 4.41409C29.2114 4.4126 29.2121 4.41149 29.2129 4.41037ZM28.7865 3.41172C28.7854 3.43961 28.7765 3.46154 28.7516 3.47344C28.7509 3.47381 28.7498 3.47418 28.7486 3.47493C28.7635 3.45485 28.7757 3.43366 28.7865 3.41172ZM26.573 2.59376C26.5752 2.61495 26.5786 2.63429 26.5812 2.65251C26.5722 2.63243 26.5693 2.61235 26.573 2.59376ZM21.5215 0.828085C21.5233 0.838124 21.5259 0.847047 21.5289 0.85597C21.5085 0.849649 21.4884 0.844444 21.4684 0.839611C21.4873 0.835893 21.5055 0.831803 21.5215 0.828085ZM16.8722 0.37449C16.8729 0.375233 16.8737 0.375977 16.8744 0.37672C16.8737 0.37672 16.8729 0.377464 16.8722 0.377464C16.8722 0.37672 16.8726 0.375977 16.8722 0.37449ZM15.8588 0.432862C15.8487 0.434721 15.8387 0.435465 15.8291 0.435837C15.8328 0.409067 15.8443 0.415016 15.8588 0.432862ZM5.07404 5.18372C5.0733 5.18483 5.07219 5.18632 5.07144 5.18744C5.06959 5.1852 5.06773 5.18297 5.06588 5.18074C5.06847 5.18186 5.07144 5.1826 5.07404 5.18372ZM4.62355 6.09425C4.61724 6.09574 4.61056 6.09649 4.60314 6.09537C4.6024 6.09388 4.60165 6.09277 4.60091 6.09128C4.60871 6.0924 4.61613 6.09314 4.62355 6.09425ZM2.67537 18.4216C2.675 18.4116 2.67463 18.4012 2.675 18.3908C2.67983 18.3941 2.68391 18.3978 2.6891 18.4012C2.68391 18.4083 2.67983 18.415 2.67537 18.4216ZM2.85498 17.787C2.8546 17.7829 2.85423 17.7792 2.85423 17.7751C2.85572 17.7643 2.85609 17.7535 2.85535 17.7424C2.85646 17.7424 2.85794 17.7424 2.85943 17.7424C2.85906 17.7572 2.8572 17.7721 2.85498 17.787ZM3.32328 16.8032C3.32254 16.8025 3.32254 16.801 3.32217 16.7999C3.32328 16.8006 3.32402 16.801 3.32476 16.8017C3.32402 16.8025 3.32365 16.8028 3.32328 16.8032ZM3.73036 17.2817C3.73332 17.2828 3.73629 17.2843 3.73926 17.2854C3.73778 17.2858 3.73629 17.2869 3.73481 17.2873C3.7337 17.2854 3.73184 17.2839 3.73036 17.2817ZM3.73629 18.0428C3.74038 18.0383 3.74483 18.0342 3.74928 18.0298C3.7452 18.0361 3.74038 18.0405 3.73629 18.0428ZM3.88732 18.4536C3.89289 18.4421 3.89808 18.4309 3.90365 18.4198C3.90699 18.4291 3.91033 18.4384 3.9133 18.4473C3.90513 18.448 3.8966 18.4503 3.88732 18.4536ZM4.17046 17.4587C4.16972 17.4509 4.16897 17.4434 4.16749 17.436C4.17343 17.439 4.17825 17.442 4.18345 17.4453C4.17936 17.4494 4.17491 17.4538 4.17046 17.4587ZM4.26545 18.1796C4.26694 18.1803 4.26805 18.1815 4.26917 18.1822C4.27213 18.1926 4.27473 18.1963 4.27993 18.1911C4.28661 18.1963 4.29291 18.2015 4.29922 18.2071C4.29997 18.2242 4.29959 18.2454 4.30256 18.2573C4.29069 18.2276 4.27844 18.2019 4.26545 18.1796ZM4.51927 17.5832C4.51148 17.5817 4.50406 17.5791 4.49701 17.5758C4.5048 17.5762 4.51222 17.5765 4.52002 17.5765C4.52076 17.5795 4.5215 17.5825 4.52224 17.5851C4.52113 17.5844 4.52076 17.5832 4.51927 17.5832ZM4.62874 20.9767C4.62874 20.9763 4.62874 20.9759 4.62874 20.9755C4.63097 20.9755 4.6332 20.9759 4.63505 20.9763C4.63282 20.9767 4.6306 20.9767 4.62874 20.9767ZM4.66771 29.3879C4.66771 29.3864 4.66771 29.3849 4.66734 29.3834C4.66771 29.3849 4.66882 29.386 4.66956 29.3871C4.66919 29.3879 4.66845 29.3879 4.66771 29.3879ZM4.72077 23.2565C4.71409 23.2394 4.70741 23.2238 4.69962 23.2089C4.723 23.2208 4.72634 23.2372 4.72077 23.2565ZM4.77346 17.781C4.7679 17.7784 4.7627 17.7766 4.75677 17.7755C4.75677 17.7751 4.75639 17.7747 4.75639 17.7743C4.76196 17.7762 4.76753 17.7769 4.77346 17.7784C4.77346 17.7792 4.77346 17.7803 4.77346 17.781ZM5.75201 27.5452C5.75126 27.5445 5.75052 27.5437 5.74941 27.543C5.75052 27.5437 5.75201 27.5445 5.75312 27.5452C5.75312 27.5452 5.75238 27.5452 5.75201 27.5452ZM6.69195 28.3472C6.69233 28.3465 6.6927 28.3461 6.69307 28.3453C6.69307 28.3461 6.69307 28.3465 6.69344 28.3468C6.6927 28.3468 6.69233 28.3472 6.69195 28.3472ZM6.82109 32.2277C6.80699 32.208 6.80365 32.186 6.83 32.1619C6.82628 32.1816 6.8248 32.2046 6.82109 32.2277ZM6.93056 28.9889C6.92833 28.9897 6.92685 28.99 6.92462 28.9908C6.91943 28.9625 6.91609 28.9413 6.91238 28.9261C6.91906 28.9294 6.92499 28.9339 6.9313 28.9399C6.95579 28.9544 6.95728 28.9808 6.93056 28.9889ZM7.89611 30.8862C7.89129 30.8888 7.88832 30.8929 7.88498 30.8963C7.88164 30.8751 7.8783 30.8546 7.87496 30.8342C7.88535 30.8516 7.89611 30.8695 7.90613 30.8877C7.90279 30.887 7.89945 30.887 7.89611 30.8862ZM8.3017 30.6568C8.29094 30.642 8.28278 30.6278 8.27721 30.6144C8.27907 30.6144 8.28092 30.6148 8.28278 30.6148C8.28315 30.6144 8.28389 30.6137 8.28389 30.6133C8.28834 30.6271 8.29391 30.642 8.3017 30.6568ZM8.75702 34.2209C8.77483 34.2153 8.79264 34.2094 8.81046 34.203C8.79673 34.2175 8.77557 34.2246 8.75702 34.2209ZM15.2502 37.1957C15.2502 37.1942 15.2502 37.1927 15.2502 37.1908C15.2513 37.1916 15.2524 37.1927 15.2539 37.1938C15.2524 37.1945 15.2513 37.1953 15.2502 37.1957ZM17.568 37.8697C17.5672 37.869 17.5661 37.8683 17.565 37.8675C17.5665 37.8675 17.5676 37.8675 17.5687 37.8675C17.5687 37.8686 17.5683 37.8694 17.568 37.8697ZM18.0296 37.6771C18.0277 37.6723 18.0251 37.6675 18.0229 37.6626C18.0237 37.6623 18.0237 37.6623 18.0244 37.6619C18.027 37.6671 18.03 37.6723 18.0329 37.6768C18.0326 37.6771 18.0311 37.6771 18.0296 37.6771ZM23.9417 39.0286C23.9435 39.0238 23.945 39.0179 23.9461 39.0112C23.9483 39.0186 23.9506 39.0253 23.9528 39.0316C23.9487 39.0309 23.945 39.0301 23.9417 39.0286ZM25.4289 39.0063C25.4315 38.9907 25.433 38.9744 25.433 38.9573C25.4371 38.9587 25.4408 38.9606 25.4453 38.9617C25.4434 38.9848 25.4379 38.9981 25.4289 39.0063ZM26.3874 38.3047C26.3982 38.285 26.409 38.2653 26.4186 38.2441C26.4138 38.2676 26.4027 38.2873 26.3874 38.3047ZM26.884 38.2066C26.884 38.2051 26.884 38.204 26.884 38.2029C26.8877 38.2032 26.8914 38.2036 26.8947 38.2044C26.891 38.2051 26.8877 38.2058 26.884 38.2066ZM33.1942 8.7344C33.1901 8.73217 33.186 8.73031 33.1819 8.72808C33.1897 8.72399 33.1998 8.71953 33.2068 8.71581C33.2083 8.71581 33.2094 8.71581 33.2105 8.71619C33.2038 8.72213 33.199 8.72846 33.1942 8.7344ZM34.1323 7.09402C34.1301 7.09254 34.1275 7.09068 34.1249 7.08882C34.1219 7.08175 34.1189 7.07506 34.116 7.06837C34.1226 7.07655 34.1293 7.0851 34.1356 7.09365C34.1345 7.09402 34.1338 7.09402 34.1323 7.09402ZM34.3111 7.96589C34.3041 7.93875 34.3071 7.92165 34.3327 7.92388C34.3249 7.93801 34.3178 7.95177 34.3111 7.96589ZM35.208 8.37339C35.2077 8.37413 35.2073 8.37525 35.2069 8.37636C35.2032 8.37413 35.1999 8.37153 35.1973 8.36893C35.1988 8.36855 35.1995 8.36744 35.2003 8.36669C35.2032 8.36893 35.2066 8.37116 35.2095 8.37264C35.2088 8.37301 35.2084 8.37339 35.208 8.37339ZM35.181 7.5123C35.1887 7.50932 35.1969 7.50561 35.2047 7.50226C35.2088 7.50858 35.2129 7.5149 35.2162 7.52122C35.2029 7.5149 35.191 7.5123 35.181 7.5123ZM35.2637 8.71507C35.2622 8.71284 35.2607 8.71024 35.2593 8.70763C35.2615 8.70652 35.2637 8.7054 35.2652 8.70392C35.2645 8.70763 35.2645 8.71172 35.2637 8.71507ZM35.4949 6.83823C35.4834 6.83228 35.4726 6.82744 35.463 6.8241C35.4737 6.81778 35.4852 6.8122 35.4979 6.80848C35.4967 6.81889 35.4956 6.82856 35.4949 6.83823ZM35.8942 9.21923C35.9049 9.21142 35.9146 9.20362 35.9227 9.19544C35.9272 9.21105 35.9339 9.22592 35.9428 9.2408C35.9261 9.23447 35.9098 9.22778 35.8942 9.21923ZM37.5266 9.74124C37.5214 9.74049 37.5173 9.73975 37.5128 9.73938C37.5151 9.73678 37.5165 9.73454 37.5188 9.73194C37.5217 9.73454 37.5247 9.73752 37.5269 9.74049C37.5266 9.74087 37.5266 9.74087 37.5266 9.74124ZM37.6687 32.1094C37.5882 32.0979 37.6268 32.044 37.6846 31.9778C37.6576 32.0552 37.6538 32.0975 37.6687 32.1094ZM37.8787 8.48902C37.8917 8.46931 37.9032 8.4496 37.914 8.42878C37.9266 8.45853 37.9065 8.47452 37.8787 8.48902ZM38.0576 11.8415C38.0624 11.8367 38.0672 11.8315 38.0728 11.8263C38.0772 11.8311 38.081 11.8371 38.0843 11.8441C38.075 11.843 38.0661 11.8423 38.0576 11.8415ZM38.1804 10.8102C38.1819 10.8079 38.1834 10.8061 38.1849 10.8038C38.1975 10.8143 38.2101 10.8247 38.2234 10.8347C38.209 10.831 38.1949 10.8232 38.1804 10.8102ZM39.5523 11.1671C39.5608 11.1682 39.5712 11.1686 39.5823 11.1678C39.5708 11.1775 39.5608 11.1764 39.5523 11.1671ZM39.7197 13.773C39.7204 13.7678 39.72 13.763 39.7197 13.7585C39.7245 13.7593 39.7282 13.7604 39.7334 13.7611C39.7289 13.7652 39.7245 13.7693 39.7197 13.773ZM39.9727 17.3312C39.972 17.3312 39.9705 17.3312 39.9698 17.3308C39.9649 17.3233 39.9605 17.3159 39.9553 17.3088C39.966 17.3107 39.9779 17.3111 39.9891 17.3103C39.9835 17.317 39.9779 17.3241 39.9727 17.3312ZM40.0466 11.298C40.0803 11.318 40.1141 11.3385 40.1468 11.3578C40.1 11.3429 40.0648 11.3232 40.0466 11.298ZM40.1798 27.2154C40.1798 27.2099 40.1798 27.205 40.179 27.1998C40.1813 27.2006 40.1835 27.2013 40.1854 27.2024C40.1839 27.2065 40.182 27.211 40.1798 27.2154ZM40.4306 14.1787C40.4303 14.1787 40.4299 14.1787 40.4299 14.1783V14.1787C40.4299 14.1787 40.4303 14.179 40.4306 14.1787C40.4303 14.1802 40.4299 14.1813 40.4299 14.182C40.4299 14.1809 40.4299 14.1798 40.4299 14.1787C40.4292 14.1787 40.4292 14.1787 40.4288 14.1783L40.4292 14.1779C40.4292 14.1779 40.4295 14.1779 40.4299 14.1783C40.4303 14.1783 40.4306 14.1779 40.4314 14.1776C40.431 14.1779 40.4306 14.1783 40.4306 14.1787ZM40.7372 16.2046C40.7368 16.2027 40.7364 16.2009 40.7357 16.1994C40.7372 16.2001 40.7383 16.2013 40.7394 16.2024C40.7386 16.2031 40.7379 16.2039 40.7372 16.2046ZM40.7613 14.5181C40.768 14.5137 40.7743 14.5099 40.7806 14.5055C40.7817 14.5088 40.7832 14.5122 40.7846 14.5155C40.7772 14.5163 40.7694 14.517 40.7613 14.5181ZM40.8566 23.8934C40.8555 23.8934 40.854 23.8934 40.8526 23.8934C40.8544 23.893 40.8555 23.893 40.857 23.893C40.857 23.8927 40.857 23.893 40.8566 23.8934ZM40.88 19.0061C40.8796 19.005 40.8793 19.0039 40.8785 19.0028C40.8785 19.0028 40.8782 19.0028 40.8778 19.0031C40.8789 18.9946 40.8793 18.9864 40.8793 18.979C40.8822 18.9805 40.8845 18.9819 40.8871 18.9834C40.8852 18.9905 40.883 18.9979 40.88 19.0061ZM41.0147 21.2931C41.0162 21.2942 41.0184 21.2953 41.0199 21.2964C41.0199 21.2979 41.0203 21.2994 41.0207 21.3009C41.0188 21.2983 41.0169 21.2957 41.0147 21.2931ZM41.0362 19.8386C41.0359 19.8382 41.0359 19.8375 41.0359 19.8371C41.0366 19.8378 41.037 19.8389 41.0374 19.8397C41.037 19.8393 41.0366 19.8389 41.0362 19.8386ZM41.3134 20.1888C41.3068 20.1873 41.3005 20.1862 41.2934 20.1855C41.296 20.1765 41.2982 20.1676 41.3005 20.1587C41.3042 20.1658 41.3082 20.1732 41.3134 20.181C41.3138 20.1806 41.3146 20.1803 41.3153 20.1799C41.3146 20.1829 41.3142 20.1858 41.3134 20.1888ZM41.4155 20.4643C41.4159 20.4606 41.4159 20.4565 41.4159 20.4524C41.4199 20.4554 41.424 20.458 41.4277 20.461C41.424 20.4617 41.4199 20.4632 41.4155 20.4643ZM41.493 21.7887C41.4901 21.7846 41.4879 21.7801 41.4856 21.7753C41.4901 21.7779 41.4942 21.7809 41.499 21.7831C41.4975 21.7849 41.4945 21.7868 41.493 21.7887ZM41.7691 12.3725C41.7691 12.3721 41.7688 12.3721 41.7688 12.3721C41.7691 12.3721 41.7695 12.3721 41.7699 12.3721C41.7695 12.3717 41.7695 12.3721 41.7691 12.3725ZM42.0259 12.1472C42.0322 12.1371 42.0359 12.1252 42.0374 12.1111C42.0419 12.1222 42.046 12.1338 42.0504 12.1449C42.0411 12.1468 42.033 12.1475 42.0259 12.1472ZM42.1536 17.5409C42.1536 17.5401 42.1536 17.5397 42.1536 17.539C42.1536 17.5394 42.1536 17.5401 42.1536 17.5409ZM42.1558 17.5241C42.1569 17.5185 42.1588 17.5133 42.1606 17.5081C42.1517 17.5014 42.1443 17.4947 42.1372 17.4877C42.1528 17.494 42.1688 17.5003 42.184 17.507C42.1747 17.5115 42.1658 17.5171 42.1558 17.5241ZM42.6872 15.6001C42.6898 15.5856 42.692 15.5711 42.6927 15.5569C42.702 15.5547 42.7102 15.5547 42.7172 15.5558C42.7072 15.5711 42.6972 15.5856 42.6872 15.6001ZM42.7848 15.4197C42.7833 15.409 42.7851 15.3993 42.7926 15.3904C42.7903 15.4004 42.7877 15.4101 42.7848 15.4197ZM42.9499 14.9554C42.9466 14.9535 42.9432 14.952 42.9403 14.9502C42.9436 14.9498 42.9473 14.9494 42.9503 14.949C42.9499 14.9513 42.9499 14.9531 42.9499 14.9554ZM43.2078 16.4742C43.1952 16.4559 43.1818 16.4407 43.1674 16.4277C43.1926 16.4069 43.2189 16.3805 43.2471 16.3466C43.2342 16.3924 43.2197 16.4351 43.2078 16.4742Z" fill="#48BED8"/>
<path d="M35.1955 57.6C35.3377 57.6453 36.0824 57.9078 36.4097 57.8937C36.5559 57.9149 36.8951 57.9986 37.088 57.9736C37.2988 58.0015 37.5111 58.006 37.7237 57.9926C37.7367 57.9911 37.7497 57.9889 37.7627 57.9863C37.7623 57.9867 37.7616 57.9874 37.7612 57.9874C38.0495 57.993 38.3438 57.9249 38.618 57.8249C38.8095 57.8071 39.2949 57.5721 39.3861 57.5331C39.5602 57.468 39.7249 57.3858 39.8793 57.2825C39.8975 57.2713 39.9157 57.2598 39.9335 57.2494C39.994 57.2408 40.0285 57.2107 40.0515 57.1706C40.0508 57.1746 40.0504 57.1787 40.0496 57.1825C40.1866 57.1111 40.3176 57.0296 40.4378 56.9311C40.4311 56.9326 40.4252 56.933 40.42 56.9326C40.5447 56.9203 40.6927 56.7337 40.7888 56.663L40.8092 56.6366C40.8809 56.5816 40.9662 56.5437 41.02 56.4667C41.0311 56.4571 41.0427 56.447 41.0534 56.4374C41.0527 56.4363 41.0512 56.4355 41.0504 56.4344C41.0742 56.4251 41.1054 56.418 41.112 56.3835C41.3826 56.1537 41.6368 55.9049 41.8731 55.6391C41.9065 55.6075 41.947 55.5833 41.9607 55.5346C41.9592 55.5335 41.9577 55.532 41.9555 55.5313C42.0253 55.5023 42.1359 55.3874 42.1578 55.3108C42.1585 55.3149 42.1596 55.3186 42.16 55.3235C42.321 55.1602 42.4702 54.9866 42.6123 54.8063C42.616 54.8029 42.6194 54.7988 42.6227 54.7929C42.7099 54.6657 42.9541 54.4943 42.9571 54.3501C42.9637 54.356 42.9686 54.3631 42.9715 54.3713C43.166 54.1449 43.3504 53.9102 43.5311 53.6723C43.5233 53.6667 43.5152 53.6611 43.5074 53.6556L43.5066 53.6548C43.7872 53.4708 44.0042 53.0506 44.2332 52.7714C44.2302 52.7714 44.2269 52.7714 44.2243 52.7714C44.3371 52.7086 44.5048 52.3955 44.5605 52.3364C44.7947 52.0449 45.0069 51.7374 45.2028 51.4188C45.4956 51.0054 45.7532 50.5607 45.9498 50.0915C46.0504 49.9 46.1361 49.7015 46.201 49.4947C46.3116 49.2862 46.3807 49.0627 46.4463 48.8374C46.5194 48.6482 46.5777 48.4541 46.6196 48.2552C46.6797 48.1128 46.6972 47.9577 46.7276 47.8094C46.7284 47.812 46.7287 47.815 46.7291 47.8172C46.7488 47.7819 46.7536 47.7436 46.7525 47.7042C46.7714 47.6681 46.7814 47.6305 46.7721 47.59C46.7766 47.5729 46.7799 47.5562 46.7836 47.5391C46.8126 47.4833 46.8241 47.4249 46.8182 47.3625C46.8582 47.2238 46.8857 47.0825 46.8924 46.9375C46.9336 46.7293 46.9599 46.5192 46.9647 46.3069C46.9915 46.1802 46.984 46.0489 46.9833 45.9232C46.9844 45.9277 46.9848 45.9322 46.9844 45.9363C47.0033 45.8983 46.9937 45.8604 46.9851 45.8221C46.9785 45.7879 46.9707 45.7533 46.9881 45.7195C46.9889 45.715 46.9896 45.7106 46.9896 45.7065C47.0037 45.5923 47.0033 45.4789 46.9863 45.3655C46.9859 45.3655 46.9859 45.3655 46.9859 45.3652C47.0048 45.3213 46.9907 45.2778 46.9825 45.2339C46.9941 45.1752 46.9863 45.1176 46.9722 45.0614C46.967 45.0625 46.9614 45.0607 46.9547 45.0581C46.9599 45.0584 46.9658 45.0592 46.9722 45.0614C46.9714 44.9097 46.9618 44.7591 46.931 44.6104C46.931 44.5584 46.9243 44.5164 46.9139 44.4825C46.8831 44.1531 46.813 43.8289 46.7265 43.5125C46.7131 43.4415 46.7094 43.3675 46.6671 43.3047C46.669 43.2983 46.6679 43.2928 46.6634 43.2879C46.5814 42.9686 46.4679 42.6611 46.3228 42.367C46.3176 42.3837 46.3101 42.3904 46.3016 42.3926C46.3647 42.2893 46.0849 41.8989 46.0448 41.7933C46.0419 41.794 46.04 41.7948 46.037 41.7955C46.0255 41.7401 45.9992 41.6851 45.9714 41.6561C45.9498 41.5985 45.9201 41.5457 45.8812 41.4985H45.8815C45.8318 41.3858 45.765 41.2843 45.6919 41.1865C45.4574 40.8006 45.1847 40.4451 44.8689 40.1243C44.6073 39.8332 44.3249 39.5658 44.0124 39.3312C44.0091 39.3353 44.005 39.3398 44.0002 39.3454C43.9709 39.2747 43.8462 39.1784 43.7608 39.1401C43.7541 39.1353 43.7478 39.1305 43.7412 39.126C43.4866 38.9282 43.2142 38.7598 42.9274 38.614C42.8788 38.5746 42.8235 38.5475 42.7645 38.5281C42.7652 38.5308 42.7656 38.533 42.7663 38.5352C42.5993 38.4452 42.4361 38.3393 42.2483 38.2876C41.9722 38.1556 41.6839 38.0586 41.3889 37.9805H41.3885C41.3317 37.9507 41.2712 37.934 41.207 37.9288C40.6727 37.7719 40.1168 37.6782 39.5602 37.6444C39.3887 37.6615 39.021 37.5206 38.9019 37.6563C38.9041 37.6433 38.9067 37.6299 38.9101 37.6169C38.8744 37.5998 38.8388 37.6091 38.8028 37.6176H38.8024H38.8028L38.8032 37.6184C38.7308 37.6009 38.6585 37.6061 38.5857 37.6184C38.5883 37.6202 38.5913 37.6224 38.5939 37.6243C38.4918 37.6165 38.3894 37.6035 38.2874 37.6321C38.2929 37.6366 38.2989 37.6388 38.3048 37.6414C38.2989 37.6399 38.2929 37.6373 38.2874 37.6321C37.7905 37.6455 37.2999 37.7147 36.8127 37.8162C36.7904 37.8154 36.7719 37.8184 36.7544 37.824C36.6517 37.8288 36.5518 37.8496 36.455 37.8868C36.4494 37.8875 36.4442 37.889 36.4394 37.8916C36.4398 37.8909 36.4398 37.8905 36.4401 37.8898C36.1804 37.9366 35.9225 37.9928 35.6739 38.0865C35.6746 38.0872 35.6746 38.0879 35.6746 38.0887C35.6642 38.0894 35.652 38.0917 35.6375 38.0957C35.4241 38.1314 35.2341 38.2259 35.0445 38.3136C35.0464 38.308 35.0482 38.3028 35.0497 38.2969C34.8211 38.3701 34.6018 38.4642 34.3903 38.5795C34.358 38.5947 34.3253 38.6103 34.2923 38.6259C34.2927 38.6259 34.2927 38.6259 34.2927 38.6252C34.2511 38.6352 34.2133 38.6534 34.1799 38.681C33.9921 38.7743 33.8029 38.8754 33.6292 38.9955C33.2756 39.1729 32.9831 39.4208 32.7004 39.6807C32.7059 39.6666 32.71 39.6521 32.7145 39.6369C32.523 39.7733 32.3427 39.922 32.1749 40.0875C32.0888 40.1429 31.9857 40.2548 31.9527 40.2897C31.8502 40.3712 31.7563 40.4619 31.6714 40.5619C31.6721 40.5619 31.6721 40.5619 31.6725 40.5619C31.5612 40.6474 31.468 40.7608 31.3738 40.8653C31.2558 40.9783 31.1481 41.1006 31.0498 41.2322C31.0053 41.2683 30.9682 41.3114 30.9411 41.3627C30.9136 41.3839 30.8661 41.4312 30.8591 41.4669C30.858 41.4669 30.8572 41.4669 30.8557 41.4669C30.8246 41.4947 30.7889 41.5342 30.7659 41.5773C30.714 41.6316 30.6661 41.6884 30.6283 41.7535C30.4542 41.9703 30.2969 42.1986 30.1544 42.4373C29.8668 42.8879 29.597 43.3534 29.403 43.8546C29.4107 43.8456 29.4197 43.8397 29.4293 43.8363C29.4208 43.8427 29.4115 43.8486 29.403 43.8546C29.3269 44.0074 29.2657 44.1661 29.2141 44.329C28.9621 44.935 28.7948 45.5909 28.6764 46.2281C28.6593 46.2631 28.6571 46.3014 28.653 46.3389C28.6541 46.3378 28.6556 46.3378 28.656 46.3374C28.6537 46.3527 28.6504 46.3679 28.6482 46.3835C28.6318 46.5137 28.5402 46.7988 28.5458 46.9974C28.4979 47.2398 28.4756 47.4848 28.4689 47.7317C28.45 47.8559 28.4452 47.9812 28.4522 48.1061C28.4849 48.0789 28.5016 48.0838 28.5116 48.1031C28.2778 48.1109 28.6144 50.0379 28.702 50.2681C28.7539 50.4057 28.912 51.314 29.0846 51.3203C29.0686 51.3266 29.0478 51.3203 29.0196 51.2924C29.0296 51.343 29.0423 51.392 29.0734 51.4341C29.0768 51.4701 29.0886 51.488 29.1061 51.4965C29.1039 51.4965 29.1013 51.4965 29.099 51.4962C29.1039 51.5095 29.1087 51.5222 29.1139 51.5352C29.1165 51.5348 29.1191 51.5341 29.1217 51.5333C29.1098 51.5519 29.1131 51.5753 29.1428 51.6014L29.1436 51.6092L29.1484 51.6155C29.1855 51.7356 29.2367 51.8486 29.2983 51.9568C29.3124 52.0089 29.3324 52.0576 29.367 52.0988C29.4178 52.2282 29.4813 52.3502 29.554 52.468C29.557 52.4766 29.5625 52.4859 29.5696 52.4933C29.5807 52.5394 29.6019 52.5799 29.6349 52.6138C29.7084 52.7699 29.7967 52.9183 29.8876 53.0644C29.9922 53.2644 30.1236 53.4459 30.2542 53.6284C30.2557 53.6188 30.2572 53.6109 30.2594 53.6043C30.2653 53.7582 31.5485 55.3071 31.6547 55.3539C31.8165 55.5287 32.0109 55.8499 32.2317 55.9135C32.2187 55.9157 32.2057 55.918 32.1946 55.9235C32.3248 56.0444 32.7119 56.4593 32.8629 56.44C32.8588 56.4504 32.8551 56.4604 32.8522 56.4712C32.9638 56.5638 33.0841 56.6437 33.2147 56.7073C33.2325 56.7181 33.2503 56.7285 33.2681 56.7389C33.2856 56.7489 33.303 56.7593 33.3208 56.769C33.7056 56.9977 34.1034 57.217 34.5268 57.3594C34.6196 57.375 34.6864 57.4565 34.7821 57.4632H34.7825C34.833 57.4907 34.8857 57.5119 34.9436 57.5186C35.0241 57.5561 35.1083 57.5818 35.1955 57.6ZM40.2638 38.1463C40.2671 38.1452 40.2693 38.1441 40.2723 38.1441C40.2715 38.1471 40.2712 38.15 40.2712 38.1523C40.269 38.1504 40.2664 38.1482 40.2638 38.1463ZM43.894 39.4301C43.9003 39.4301 43.9059 39.4301 43.9119 39.4294C43.9041 39.4324 43.8959 39.4346 43.8885 39.4365C43.8903 39.4342 43.8922 39.432 43.894 39.4301ZM39.3164 38.3144C39.3145 38.324 39.3119 38.3337 39.3082 38.3426C39.3086 38.333 39.3112 38.3237 39.3164 38.3144ZM43.6272 39.4796C43.628 39.4796 43.6287 39.4796 43.6295 39.4796C43.6283 39.4803 43.6272 39.4822 43.6261 39.4837C43.6265 39.4822 43.6269 39.4807 43.6272 39.4796ZM43.6398 39.5413C43.6402 39.5413 43.6402 39.5417 43.6398 39.5413C43.6402 39.5417 43.6398 39.5417 43.6395 39.542C43.6398 39.5417 43.6398 39.5413 43.6398 39.5413ZM44.1575 39.7629C44.1601 39.7629 44.1627 39.7629 44.1649 39.7629C44.1627 39.764 44.1601 39.7655 44.1582 39.767C44.1579 39.7655 44.1579 39.764 44.1575 39.7629ZM41.4972 39.2673C41.4976 39.268 41.4976 39.268 41.4983 39.268C41.4976 39.268 41.4976 39.268 41.4972 39.2673ZM42.2283 54.3025C42.2283 54.3025 42.2283 54.3032 42.2279 54.3032C42.2275 54.3029 42.2275 54.3025 42.2271 54.3021C42.2279 54.3021 42.2283 54.3021 42.2283 54.3025ZM41.4256 54.0303C41.4282 54.0262 41.4312 54.0225 41.4345 54.0196C41.4312 54.0236 41.4286 54.027 41.4256 54.0303ZM42.852 53.37C42.8513 53.3722 42.8513 53.3745 42.8513 53.3763C42.8502 53.3756 42.8491 53.3752 42.8476 53.3741C42.8494 53.3726 42.8506 53.3715 42.852 53.37ZM43.1099 53.3406C43.1081 53.3436 43.1066 53.3462 43.1051 53.3492C43.1036 53.3492 43.1029 53.3496 43.1014 53.3496C43.1022 53.3462 43.1033 53.3421 43.104 53.3388C43.1044 53.3395 43.1048 53.3406 43.1051 53.3418C43.1066 53.3414 43.1088 53.3406 43.1099 53.3406ZM43.4335 52.7737C43.4332 52.7737 43.4328 52.774 43.4328 52.774C43.4324 52.7737 43.432 52.7737 43.4317 52.7733C43.432 52.7729 43.4324 52.7729 43.4324 52.7725C43.4328 52.7729 43.4332 52.7729 43.4335 52.7737ZM43.9226 52.6878C43.9104 52.6844 43.9015 52.6777 43.8992 52.6647C43.8985 52.6647 43.8985 52.6643 43.8985 52.6636C43.9059 52.6725 43.9141 52.6807 43.9226 52.6878ZM44.5379 51.7605C44.5286 51.759 44.5193 51.7583 44.5111 51.7575C44.5215 51.7557 44.5301 51.7568 44.5379 51.7605ZM45.8986 49.6316C45.8938 49.6316 45.8897 49.6316 45.8856 49.6316C45.8905 49.623 45.8949 49.6145 45.8997 49.6059C45.899 49.6148 45.8986 49.6238 45.8986 49.6316ZM46.6348 47.5421C46.6341 47.5424 46.6341 47.5428 46.6337 47.5428V47.5421C46.6341 47.5421 46.6341 47.5424 46.6348 47.5421ZM46.7265 47.0695C46.7265 47.0647 46.7276 47.0598 46.7284 47.0557C46.7399 47.0602 46.7354 47.065 46.7265 47.0695ZM45.8801 41.5799C45.8793 41.5799 45.879 41.5791 45.8782 41.5784C45.8797 41.578 45.8808 41.5773 45.8819 41.5765C45.8815 41.578 45.8804 41.5791 45.8801 41.5799ZM45.5309 41.2717C45.5309 41.2687 45.5312 41.2653 45.5324 41.2624C45.5338 41.262 45.5342 41.262 45.535 41.2616C45.5338 41.2653 45.5324 41.2687 45.5309 41.2717ZM40.3291 39.0085C40.3335 39.0096 40.338 39.0107 40.3424 39.0119C40.3402 39.0137 40.3387 39.0152 40.3361 39.0171C40.3335 39.0141 40.3313 39.0115 40.3291 39.0085ZM40.5873 39.1621C40.5896 39.1621 40.591 39.1624 40.5925 39.1628C40.5977 39.1647 40.6018 39.1658 40.607 39.1669C40.607 39.1673 40.607 39.1684 40.607 39.1688C40.6003 39.1669 40.594 39.1643 40.5873 39.1621ZM40.9662 39.4863C40.967 39.4863 40.9677 39.4863 40.9677 39.4863C40.9677 39.4866 40.9673 39.4866 40.967 39.487C40.967 39.4866 40.9662 39.4866 40.9662 39.4863ZM40.7091 39.6205C40.7079 39.6212 40.7068 39.6227 40.7061 39.6242C40.7061 39.6235 40.7061 39.6227 40.7061 39.622C40.7068 39.6216 40.7076 39.6209 40.7091 39.6205ZM40.3732 39.5391C40.3747 39.5413 40.3758 39.5443 40.3777 39.5465C40.3751 39.5435 40.3736 39.5413 40.3732 39.5391ZM40.1751 39.5629C40.1795 39.5666 40.1836 39.5703 40.1881 39.574C40.1836 39.5744 40.1791 39.5748 40.1751 39.5751C40.1758 39.5718 40.1758 39.5673 40.1751 39.5629ZM40.5799 39.8038C40.5836 39.8038 40.587 39.8049 40.5899 39.8049C40.5881 39.8071 40.5862 39.809 40.584 39.8109C40.5829 39.8086 40.5818 39.806 40.5799 39.8038ZM40.2519 39.767C40.2515 39.7674 40.2511 39.7681 40.2504 39.7685C40.2452 39.7685 40.2433 39.7692 40.2452 39.7726C40.2422 39.7752 40.2389 39.7774 40.2359 39.7796C40.2285 39.7781 40.2189 39.7755 40.2133 39.7755C40.2278 39.7737 40.2404 39.7707 40.2519 39.767ZM40.4853 39.9499C40.4868 39.9469 40.489 39.9436 40.4912 39.941C40.4901 39.9447 40.489 39.9481 40.4883 39.9514C40.4868 39.9514 40.4853 39.9514 40.4838 39.9514C40.4845 39.951 40.4853 39.9507 40.4853 39.9499ZM38.9783 39.6242H38.9791C38.9783 39.625 38.9783 39.6261 38.978 39.6268C38.978 39.6264 38.9783 39.6253 38.9783 39.6242ZM35.2712 38.7096C35.272 38.71 35.2727 38.71 35.2731 38.7096C35.2727 38.7096 35.272 38.71 35.2712 38.7103C35.2712 38.7103 35.2712 38.71 35.2712 38.7096ZM37.9645 39.4141C37.9723 39.4127 37.9805 39.4115 37.9879 39.4093C37.9801 39.4186 37.972 39.4186 37.9645 39.4141ZM40.3684 40.0451C40.3706 40.0432 40.3721 40.0406 40.3732 40.038C40.3736 40.038 40.3736 40.038 40.3736 40.038C40.3721 40.0403 40.371 40.0432 40.3699 40.0455C40.3695 40.0455 40.3691 40.0451 40.3684 40.0451ZM35.957 39.413C35.9574 39.4127 35.9581 39.4127 35.9585 39.4123C35.9581 39.4127 35.9574 39.413 35.957 39.4138C35.957 39.4134 35.957 39.4134 35.957 39.413ZM35.4957 39.7566C35.4957 39.7569 35.4957 39.7569 35.4965 39.7573C35.4957 39.7573 35.4957 39.7573 35.4957 39.7573C35.4957 39.7569 35.4954 39.7569 35.4957 39.7566ZM33.7724 39.3859C33.7828 39.3814 33.7928 39.3825 33.8006 39.3974C33.7921 39.3933 33.7825 39.39 33.7724 39.3859ZM35.1855 39.7949C35.1855 39.7941 35.1855 39.7934 35.1851 39.7923C35.1981 39.793 35.2081 39.7934 35.2152 39.7938C35.213 39.7964 35.2104 39.7986 35.2074 39.8008C35.1981 39.8109 35.1863 39.8086 35.1855 39.7949ZM34.2393 40.0295C34.2385 40.0269 34.237 40.0246 34.2355 40.0232C34.2456 40.0239 34.2552 40.0246 34.2645 40.025C34.2556 40.028 34.2463 40.031 34.237 40.0336C34.2378 40.0321 34.2385 40.0306 34.2393 40.0295ZM34.2934 40.2414C34.3009 40.2381 34.3079 40.2358 34.3146 40.2347C34.3146 40.2351 34.3138 40.2362 34.3138 40.2369C34.3138 40.2369 34.3146 40.2373 34.3146 40.2377C34.3072 40.2388 34.3009 40.2392 34.2934 40.2414ZM32.6714 40.0555C32.6722 40.0644 32.6726 40.0733 32.6737 40.0823C32.6685 40.0745 32.6677 40.0641 32.6714 40.0555ZM30.6123 42.7135C30.6131 42.7135 30.6138 42.7135 30.6145 42.7139C30.6138 42.7142 30.6134 42.715 30.6127 42.7154C30.6127 42.715 30.6123 42.7142 30.6123 42.7135ZM30.0483 43.7055C30.0486 43.7055 30.049 43.7051 30.0497 43.7047C30.0494 43.7051 30.0494 43.7058 30.049 43.7062C30.0486 43.7062 30.0486 43.7058 30.0483 43.7055ZM30.0798 43.9393C30.082 43.9393 30.0846 43.9386 30.0872 43.9382C30.0872 43.9386 30.0872 43.9386 30.0872 43.9386C30.0846 43.939 30.082 43.9401 30.0794 43.9408C30.0794 43.9408 30.0794 43.9401 30.0798 43.9393ZM28.8018 46.5103C28.804 46.5114 28.8066 46.5129 28.8096 46.514C28.8059 46.514 28.8025 46.5144 28.7999 46.5144C28.8003 46.5129 28.8011 46.5114 28.8018 46.5103ZM28.6404 47.197C28.6474 47.2 28.6541 47.2022 28.6615 47.2041C28.6608 47.206 28.6593 47.2074 28.6582 47.2093C28.6482 47.206 28.643 47.2022 28.6404 47.197ZM28.8389 47.7157C28.846 47.7231 28.8534 47.7298 28.8623 47.7369C28.8519 47.7317 28.8445 47.725 28.8389 47.7157ZM28.8244 47.9551C28.8252 47.9551 28.8256 47.9551 28.8263 47.9555C28.8256 47.957 28.8252 47.9588 28.8241 47.9607C28.8244 47.9588 28.8244 47.9566 28.8244 47.9551ZM41.0705 54.1266C41.072 54.1248 41.0738 54.1233 41.0746 54.1214C41.0757 54.1255 41.0768 54.1303 41.0775 54.1344C41.0772 54.1352 41.0772 54.1356 41.0768 54.1359C41.0742 54.1318 41.0731 54.1289 41.0705 54.1266ZM41.6846 54.7401C41.6854 54.7394 41.6869 54.7382 41.6876 54.7375C41.6909 54.7368 41.6946 54.736 41.6976 54.7356C41.6932 54.7375 41.6887 54.7397 41.6843 54.7416C41.6843 54.7408 41.6843 54.7408 41.6846 54.7401ZM41.2798 54.7256C41.2924 54.7252 41.2998 54.7286 41.2957 54.7401C41.2905 54.7349 41.2853 54.7301 41.2798 54.7256ZM40.9966 55.0933C40.9966 55.0929 40.9959 55.0926 40.9955 55.0926C40.997 55.0911 40.9985 55.0896 41 55.0888C41 55.0896 41.0003 55.0903 41.0011 55.0903C40.9996 55.0914 40.9981 55.0926 40.997 55.0941C40.997 55.0933 40.997 55.0933 40.9966 55.0933ZM41.3796 55.1758C41.3796 55.1796 41.3807 55.184 41.3811 55.1881C41.3777 55.1892 41.3748 55.1907 41.3714 55.1915C41.3751 55.1859 41.3781 55.1807 41.3796 55.1758ZM40.8404 55.0807C40.8415 55.0803 40.8426 55.0796 40.8441 55.0796C40.8445 55.0807 40.8445 55.0818 40.8449 55.0825C40.843 55.0818 40.8419 55.0814 40.8404 55.0807ZM41.6401 55.3956C41.6442 55.3907 41.6471 55.3863 41.6497 55.3822C41.6512 55.3881 41.6523 55.3941 41.6523 55.4C41.6483 55.3982 41.6442 55.3967 41.6401 55.3956ZM40.5454 55.3149C40.5476 55.3209 40.5502 55.3261 40.5528 55.3309C40.5454 55.3309 40.5384 55.3328 40.5302 55.335C40.535 55.3283 40.5398 55.3209 40.5454 55.3149ZM40.1272 56.0083C40.1283 56.0061 40.1287 56.0046 40.1298 56.002C40.1309 56.0035 40.1313 56.0042 40.1324 56.0057C40.1309 56.0061 40.1294 56.0076 40.1279 56.0083C40.1272 56.0083 40.1272 56.0083 40.1272 56.0083ZM30.2639 53.5938C30.278 53.5582 30.2976 53.5816 30.3195 53.6158C30.2887 53.595 30.2709 53.5883 30.2639 53.5938ZM40.6382 56.3091C40.6456 56.3169 40.6526 56.3247 40.6604 56.3321C40.6456 56.3347 40.6411 56.3236 40.6382 56.3091ZM39.1412 56.0198C39.1427 56.0224 39.1446 56.0254 39.1464 56.0284C39.1435 56.0299 39.1405 56.0314 39.1372 56.0317C39.1386 56.0276 39.1401 56.0239 39.1412 56.0198ZM39.5813 56.1905C39.5821 56.1916 39.5828 56.1924 39.5836 56.1935C39.5776 56.1979 39.5713 56.2024 39.5654 56.2076C39.5687 56.2013 39.5739 56.1961 39.5813 56.1905ZM39.2655 56.7824C39.2641 56.7865 39.2626 56.7906 39.2615 56.7962C39.2589 56.7898 39.2607 56.7854 39.2655 56.7824ZM38.0989 56.5701C38.1015 56.5712 38.1037 56.5716 38.1055 56.572C38.1048 56.5738 38.1037 56.5757 38.1029 56.5779C38.1015 56.5757 38.1 56.5731 38.0989 56.5701ZM36.5036 56.2924C36.5036 56.2924 36.504 56.2912 36.504 56.2916C36.508 56.2901 36.5118 56.2886 36.5155 56.2872C36.5132 56.292 36.5118 56.2972 36.5106 56.3024C36.5088 56.2991 36.5062 56.2961 36.5036 56.2924ZM39.1509 56.9951C39.1386 57.0084 39.1256 57.0218 39.113 57.0345C39.1253 57.0148 39.1379 57.001 39.1509 56.9951ZM32.1282 55.2919C32.1304 55.2926 32.133 55.293 32.1352 55.2933C32.1345 55.2945 32.1341 55.2952 32.1337 55.2959C32.1315 55.2948 32.13 55.2933 32.1282 55.2919ZM37.8384 56.8527C37.838 56.8527 37.8373 56.8527 37.8369 56.8523C37.8376 56.8523 37.838 56.8523 37.8384 56.8527C37.8384 56.8523 37.8387 56.8523 37.8387 56.8523H37.8391C37.8391 56.8519 37.8387 56.8523 37.8384 56.8527C37.8387 56.8527 37.8391 56.8527 37.8391 56.853C37.8387 56.853 37.8384 56.8527 37.8384 56.8527ZM36.911 56.7694C36.9122 56.7694 36.9129 56.7694 36.9136 56.7694C36.9129 56.7698 36.9125 56.7701 36.9122 56.7709C36.9114 56.7698 36.9114 56.7694 36.911 56.7694ZM37.651 56.9672C37.6521 56.9709 37.6528 56.9742 37.6543 56.9772C37.6525 56.9772 37.651 56.9776 37.6491 56.9783C37.6499 56.9746 37.6506 56.9713 37.651 56.9672ZM33.5127 55.9715C33.513 55.9711 33.5134 55.9704 33.5134 55.97C33.5134 55.9708 33.513 55.9715 33.5127 55.9715C33.513 55.9719 33.513 55.9719 33.5127 55.9715ZM35.6616 56.5244C35.662 56.5244 35.6627 56.5244 35.6635 56.524H35.6631C35.6672 56.5251 35.6709 56.5262 35.6735 56.5273C35.6724 56.5285 35.6716 56.5292 35.6705 56.5303C35.6679 56.5285 35.6642 56.5266 35.6616 56.5244ZM34.6393 56.3329C34.6385 56.3333 34.6378 56.3344 34.6371 56.3344C34.6363 56.3344 34.6356 56.3344 34.6348 56.3344C34.6363 56.334 34.6378 56.3336 34.6393 56.3329ZM35.2768 56.5039H35.2775C35.2768 56.5039 35.2768 56.5039 35.2761 56.5039H35.2768ZM35.0905 56.5928C35.092 56.5898 35.0935 56.5868 35.0942 56.5839C35.0979 56.5861 35.1016 56.5883 35.1054 56.5902C35.1016 56.5905 35.0976 56.5924 35.0942 56.5939C35.0942 56.5939 35.0942 56.5943 35.0946 56.5943C35.0931 56.5939 35.092 56.5931 35.0905 56.5928ZM34.9573 56.6091C34.9595 56.6095 34.9614 56.6099 34.9629 56.6103C34.9614 56.6117 34.9595 56.6136 34.9573 56.6151C34.958 56.6132 34.958 56.611 34.9573 56.6091ZM34.3658 56.498C34.368 56.4972 34.3702 56.4969 34.3725 56.4961C34.3706 56.498 34.3688 56.4995 34.3673 56.5017C34.3665 56.5002 34.3665 56.4987 34.3658 56.498ZM38.4789 57.6688C38.4792 57.6688 38.4792 57.6688 38.4789 57.6688C38.4792 57.6688 38.4792 57.6688 38.4789 57.6688C38.4792 57.6688 38.4792 57.6688 38.4789 57.6688ZM38.5486 57.8119C38.5523 57.816 38.5572 57.8193 38.5631 57.8212C38.5575 57.8223 38.5523 57.8227 38.5468 57.8238C38.5471 57.819 38.5479 57.8153 38.5486 57.8119ZM36.1592 57.2724C36.16 57.2724 36.16 57.2728 36.1603 57.2728C36.16 57.2728 36.1596 57.2728 36.1592 57.2724ZM36.1666 57.2758C36.1692 57.2765 36.1715 57.278 36.1733 57.2799C36.1774 57.2761 36.1811 57.2739 36.1852 57.2713C36.1804 57.278 36.1759 57.2843 36.1711 57.2906C36.17 57.2858 36.1685 57.281 36.1666 57.2758ZM36.9522 57.7335C36.9585 57.7361 36.9641 57.739 36.9708 57.7409C36.9708 57.7457 36.9697 57.7491 36.9682 57.752C36.9626 57.7457 36.9578 57.7394 36.9522 57.7335ZM37.0201 57.7982C37.0253 57.7985 37.0294 57.8008 37.0324 57.8052C37.0287 57.803 37.0242 57.8008 37.0201 57.7982ZM37.2057 57.9261C37.2072 57.9246 37.2083 57.9235 37.2094 57.9223C37.2094 57.9235 37.2086 57.9257 37.2086 57.9268C37.2075 57.9264 37.2072 57.9264 37.2057 57.9261ZM36.5077 57.8762C36.517 57.8725 36.5251 57.8681 36.5325 57.8625C36.5385 57.8766 36.5474 57.8911 36.5585 57.9082C36.5403 57.8974 36.5236 57.8859 36.5077 57.8762Z" fill="#C2E65E"/>
</g>
<defs>
<clipPath id="clip0_231_32">
<rect width="47" height="58" fill="white"/>
</clipPath>
</defs>
</svg>
