<svg width="150" height="160" viewBox="0 0 150 160" fill="none" xmlns="http://www.w3.org/2000/svg">
<path d="M31.0415 32.0206L27.9915 25.4895L22.2143 12.5854C18.0418 3.66339 14.1904 5.25661 14.1904 5.25661C13.5485 6.05221 10.9808 11.4712 10.9808 11.4712C10.9808 11.4712 7.45033 14.8159 6.96789 15.2949C6.48747 15.7718 0.389319 31.8643 0.389319 31.8643C-1.37694 36.8023 3.4394 36.9606 3.4394 36.9606C6.64693 37.5979 8.4132 32.6599 8.4132 32.6599C8.4132 32.6599 9.21458 33.0567 9.45681 33.217C9.69702 33.3754 10.02 33.5357 10.5004 33.9325C10.9808 34.3313 11.9437 34.171 13.1488 34.0928C14.3519 34.0106 16.8388 32.9766 17.081 32.8162C17.3212 32.6579 19.5679 31.9405 19.5679 31.9405L22.3758 37.2772L22.5352 37.7562C25.9042 42.6942 29.5962 39.0308 29.5962 39.0308C32.4848 37.9165 31.0415 32.0206 31.0415 32.0206ZM18.1246 28.1188C18.1246 28.1188 18.3366 27.5616 15.7023 26.9243C13.0681 26.2871 11.1726 26.0305 11.1726 26.0305L11.1282 26.1127C11.0717 26.2149 11.0212 26.3031 10.9849 26.3672L11.1282 26.1127C11.1847 26.0125 11.2473 25.8983 11.32 25.768C12.4201 23.766 15.236 18.4833 15.236 18.4833L16.8408 23.9804C16.8408 23.9804 17.8037 25.253 18.1246 25.8923C18.4456 26.5296 18.6858 27.3252 18.6858 27.3252L18.1246 28.1188Z" fill="#2E3AA4"/>
<path d="M5.6882 46.7584C5.6882 46.7584 -2.25493 46.5199 1.59653 52.4919L5.6882 54.8026H7.85415L11.3847 55.5181C11.3847 55.5181 14.4327 56.8728 14.8344 56.8728C15.2361 56.8728 16.2777 56.474 16.2777 56.474L12.1073 59.2616L5.28852 64.3599L2.24046 68.5804L1.35834 70.334C1.35834 70.334 1.35834 70.334 1.59855 70.9713C1.83876 71.6085 2.00025 72.1657 2.56142 72.7228C3.12258 73.2819 2.7229 73.0434 4.64661 74.0775C6.57234 75.1136 6.4916 75.1136 7.37574 75.3521C8.25786 75.5906 7.37574 75.4323 9.7819 76.1497C12.188 76.8652 14.033 76.8652 14.2753 77.0255C14.5155 77.1858 13.7666 76.9453 15.7044 77.5044C17.6443 78.0616 23.0198 78.9373 23.0198 78.9373C23.0198 78.9373 23.9826 78.6989 25.2665 78.9373C26.5503 79.1758 25.9064 79.0175 27.2729 78.9373C28.6375 78.8572 28.7162 79.0175 28.9564 78.1417C29.1967 77.266 29.1179 77.0255 29.5176 75.4343C29.9193 73.8411 29.2774 72.6466 29.5176 72.0895C29.7578 71.5324 29.6529 71.1336 29.6529 71.1336C29.6529 71.1336 23.3407 70.0975 22.4586 69.9392C21.5745 69.7788 19.4893 69.1416 18.6859 69.1416C17.8845 69.1416 18.5789 68.9031 15.7024 68.7448C12.8279 68.5844 12.2668 68.4261 12.2668 68.4261L15.1069 66.1956C15.1069 66.1956 16.1162 65.4 17.4 64.6024C18.6839 63.8048 18.6839 63.4541 19.4873 62.913C20.2886 62.3719 19.4045 62.0532 21.4917 61.4961C23.5789 60.939 21.8127 61.8148 24.3016 60.7005C26.7885 59.5863 27.1902 59.1875 27.1902 59.1875C27.1902 59.1875 27.1902 57.9129 27.1902 57.6744C27.1902 57.4359 27.8301 56.5582 28.153 56.1614C28.474 55.7626 28.6355 55.4439 28.6355 55.0451C28.6355 54.6463 28.474 52.7344 28.474 52.7344C28.474 52.7344 28.474 51.9388 28.474 51.6202C28.474 51.3015 27.4324 50.1853 27.1094 49.8666C26.7885 49.548 25.6661 48.9087 25.4259 48.9087C25.1857 48.9087 23.26 48.3516 23.26 48.3516C23.26 48.3516 15.0625 48.6702 15.1089 48.5119C15.1554 48.3516 10.662 46.7564 10.4218 46.7584C10.1796 46.7584 5.6882 46.7584 5.6882 46.7584Z" fill="#2E3AA4"/>
<path d="M88.3271 28.1188C87.6852 24.8522 88.4865 23.8181 87.5257 23.299C86.5648 22.78 85.279 21.1707 85.279 21.1707C85.279 21.1707 84.4776 20.5495 83.9952 20.2328C83.5148 19.9142 83.0323 18.321 82.0695 18.4793C82.4328 18.4192 83.0323 18.319 83.0323 18.319C83.0323 18.319 84.6371 15.9302 84.9581 15.1325C85.279 14.3369 85.9209 13.2207 86.4013 10.3529C86.8818 7.48511 88.0041 8.28272 86.4013 6.05222C84.7966 3.82171 82.0695 0.95593 82.0695 0.95593C82.0695 0.95593 80.9471 0 80.3032 0C79.6613 0 79.5523 1.11625 77.0957 1.11625C74.637 1.11625 70.3031 1.11625 70.3031 1.11625L64.4169 3.18643L66.0217 10.9942C66.0217 10.9942 65.3798 12.5854 65.2183 13.0644C65.0588 13.5413 66.1812 17.5254 66.0217 18.4813C65.8602 19.4372 65.073 21.4293 65.2264 23.301C65.3778 25.1728 66.3729 27.243 66.0358 28.6779C65.6987 30.1108 65.7088 33.9345 66.1045 34.4135C66.5021 34.8904 67.7859 38.8745 67.7859 38.8745H70.1921H71.7969C71.7969 38.8745 74.3645 39.5098 74.847 38.8745C75.3274 38.2372 82.8688 36.644 82.8688 36.644C82.8688 36.644 83.9932 36.644 84.4736 36.165C84.956 35.688 86.3993 34.7301 86.8797 34.0948C87.3602 33.4575 88.323 33.6159 88.323 32.0226C88.3271 30.4294 88.969 31.3854 88.3271 28.1188ZM73.0847 7.96608L74.9035 7.27669C74.9035 7.27669 77.8466 7.85987 78.3795 7.96608C78.9124 8.0723 78.9144 8.39094 79.3948 8.92201C79.8773 9.45308 79.3948 9.40098 79.3948 10.1445C79.3948 10.888 79.2354 10.5673 79.0214 11.3649C78.8074 12.1605 78.432 12.2147 78.0585 12.6395C77.6831 13.0644 75.9733 14.1806 75.9733 14.1806L72.2289 13.9141C72.2289 13.9141 72.9757 8.1264 73.0847 7.96608ZM78.111 32.3413C76.7222 32.9786 75.9713 32.6078 75.5979 32.6078C75.2244 32.6078 73.4057 33.0307 73.4057 33.0307L73.0322 26.8702L73.4057 26.9223C73.4057 26.9223 76.0258 26.6578 76.1853 26.6578C76.3468 26.6578 78.432 27.241 78.432 27.241L79.6088 27.9845L81.1591 30.5857C81.1611 30.5877 79.5018 31.704 78.111 32.3413Z" fill="#2E3AA4"/>
<path d="M148.715 26.0746C148.715 26.0746 143.741 12.8519 137.056 5.948L135.717 3.18643C135.717 3.18643 134.916 2.44293 134.702 2.1784C134.488 1.91386 133.578 1.11625 133.578 1.11625H132.187L129.621 3.7175C129.621 3.7175 128.658 5.47104 128.337 5.948C128.016 6.42497 126.894 8.44505 126.735 8.55126C126.573 8.65747 116.84 23.8962 116.84 23.8962L115.772 28.6759C115.772 28.6759 114.595 31.1188 116.735 32.9245L119.248 33.5096C119.248 33.5096 120.372 32.7661 121.119 32.8182C121.868 32.8703 124.383 32.6599 124.383 32.6599L131.979 32.8703L134.385 32.712C134.385 32.712 136.365 33.191 136.632 33.2431C136.898 33.2972 139.573 32.9245 140.374 32.8182C141.176 32.712 143.743 32.5537 144.171 32.5537C144.599 32.5537 147.005 31.5457 147.005 31.5457L149.04 30.9084L149.306 27.5095L148.715 26.0746ZM140.427 24.9123C140.427 24.9123 138.66 24.269 138.342 24.2169C138.019 24.1628 135.023 24.6397 134.329 24.6397C133.634 24.6397 128.071 24.9604 127.536 24.9063C127.001 24.8522 126.789 24.6397 126.789 24.6397L125.986 23.8962C126.361 23.7379 126.252 23.8962 126.252 23.8962C126.252 23.8962 133.903 13.1185 134.117 12.9582C134.117 12.9582 135.08 14.1806 135.4 14.4973C135.719 14.8179 136.898 16.4632 136.898 16.4632C136.898 16.4632 136.632 17.2588 136.737 17.6837C136.844 18.1085 137.645 19.1707 138.126 20.1807C138.606 21.1908 140.051 23.4193 140.427 23.8962C140.8 24.3752 140.427 24.9123 140.427 24.9123Z" fill="#2E3AA4"/>
<path d="M123.204 65.7427L143.957 65.2637L145.883 65.5042L146.42 66.9652V71.5865C146.42 71.5865 145.883 73.9753 144.012 74.2419L137.487 73.817L135.99 73.7088L136.418 85.7651C136.418 85.7651 136.577 86.1379 136.846 86.188C137.114 86.2421 139.789 86.188 139.948 86.188C140.11 86.188 143.691 86.212 143.691 86.212C143.691 86.212 144.708 86.9315 144.867 86.9315C145.027 86.9315 146.044 86.9315 146.42 86.9315C146.793 86.9315 147.756 87.4104 147.756 87.5688C147.756 87.7271 147.756 91.4987 147.756 91.4987L146.634 94.2603L145.725 94.8975L144.33 95.1621L143.047 95.7473L138.125 95.2162L129.355 95.7473C129.355 95.7473 123.311 96.12 123.204 96.12C123.097 96.12 120.154 96.3324 119.994 96.12C119.835 95.9076 119.3 94.8996 119.3 94.6851C119.3 94.4747 119.566 91.7652 119.566 91.7652C119.566 91.7652 119.512 90.649 119.887 90.2782C120.261 89.9055 121.064 89.0037 121.438 88.6329C121.813 88.2602 122.132 87.9435 122.132 87.9435L122.239 87.3583C122.239 87.3583 124.54 86.6669 124.702 86.6669C124.861 86.6669 131.173 86.4024 131.173 86.4024L131.385 73.2859L125.608 73.5525L122.239 72.7549L121.062 72.2779C121.062 72.2779 120.37 72.0655 120.261 71.5344C120.154 71.0033 119.137 69.7308 119.298 69.5163C119.457 69.3039 119.157 67.9752 119.282 67.8169C119.407 67.6586 119.619 66.4902 119.619 66.4902C119.619 66.4902 120.315 65.5864 120.475 65.5343C120.634 65.4762 123.204 65.7427 123.204 65.7427Z" fill="#2E3AA4"/>
<path d="M149.914 138.76C150.108 137.724 149.914 131.273 149.914 131.273L147.752 130.397L119.619 130.794C119.298 130.874 119.136 132.387 118.737 132.786C118.335 133.183 117.691 134.54 117.532 134.936C117.372 135.333 116.973 137.483 117.132 137.962C117.292 138.441 117.772 138.999 117.772 138.999L123.789 139.954C123.789 139.954 126.837 140.193 127.078 140.353C127.318 140.514 128.925 140.592 128.844 140.991C128.763 141.389 129.966 146.007 130.206 146.327C130.447 146.648 131.49 148.558 131.49 148.558C131.49 148.558 132.615 150.548 132.776 150.786C132.936 151.025 133.095 150.786 134.298 151.584C135.501 152.382 136.625 152.778 136.866 153.017C137.108 153.255 136.785 153.494 139.191 153.652C141.599 153.814 142.883 153.097 143.364 153.097C143.846 153.097 143.846 153.494 144.647 152.776C145.451 152.061 146.894 150.784 147.134 150.229C147.374 149.67 148.257 147.68 148.418 147.44C148.58 147.201 149.702 145.367 149.861 144.411C150.023 143.456 149.7 142.9 149.861 141.782C150.027 140.672 149.718 139.796 149.914 138.76ZM146.577 141.546C146.577 142.423 145.854 143.776 145.534 144.814C145.215 145.848 144.571 146.087 143.931 147.043C143.289 147.999 143.931 147.043 143.37 147.838C142.808 148.634 143.049 148.315 142.326 148.714C141.605 149.113 142.326 148.714 141.363 148.396C140.398 148.077 140.398 148.157 139.837 147.758C139.276 147.361 137.752 147.361 137.752 147.361C137.752 147.361 135.505 147.121 135.103 146.566C134.702 146.007 135.103 146.566 134.863 145.528C134.621 144.494 134.621 144.494 134.462 143.776C134.3 143.061 134.942 141.307 135.263 140.828C135.584 140.351 136.226 138.121 136.226 138.121H146.175C146.175 138.121 146.494 139.077 146.575 139.872C146.658 140.672 146.577 140.672 146.577 141.546Z" fill="#2E3AA4"/>
<path d="M97.4751 126.97C98.0342 126.89 104.615 126.574 104.534 126.97C104.455 127.369 105.095 137.566 105.015 138.123C104.936 138.68 105.578 140.115 105.578 140.912C105.578 141.708 105.578 152.221 105.578 152.221C105.578 152.221 104.534 155.328 101.526 155.169C101.526 155.169 98.5167 155.009 98.117 151.504C98.117 151.504 97.8768 147.522 97.8768 147.203C97.8768 146.885 98.5167 143.502 98.5167 143.502C98.5167 143.502 97.9576 133.343 97.9576 133.105C97.9576 132.866 97.4771 129.042 97.4771 129.042V126.97H97.4751Z" fill="#2E3AA4"/>
<path d="M63.2157 127.926C63.2157 127.926 64.5803 126.976 64.8205 126.776C65.0607 126.573 65.9428 126.579 66.1831 126.776C66.4233 126.97 67.9493 127.183 68.1895 127.277C68.4297 127.369 69.873 128.006 69.9538 128.325C70.0345 128.642 69.6328 129.281 69.9538 129.519C70.2747 129.758 69.9639 138.281 69.9639 138.281C69.9639 138.281 69.0696 143.379 69.2311 143.776C69.3926 144.175 70.0991 144.814 70.0991 144.814C70.0991 144.814 70.5654 145.848 70.0991 146.247C69.6328 146.644 69.2311 146.484 69.3119 147.52C69.3926 148.556 69.3926 149.351 69.3926 149.828C69.3926 150.305 68.7507 150.706 68.7507 150.706H80.0628C80.0628 150.706 79.7419 151.422 80.0628 151.662C80.3838 151.903 80.7855 154.291 80.7855 154.291C80.7855 154.291 81.2659 155.021 80.7855 155.173C80.3031 155.326 79.5824 156.52 79.5824 156.52L79.2615 156.999C79.2615 156.999 79.1807 157.636 78.9405 157.714C78.7003 157.797 70.8379 158.43 69.0716 158.512C67.3074 158.592 60.4886 157.556 60.0869 157.714C59.6852 157.875 52.4648 157.797 52.4648 157.797C52.4648 157.797 51.5019 156.999 50.9407 156.043C50.3796 155.087 49.1745 152.62 49.1745 152.62L48.7748 151.903V150.231C48.7748 150.231 50.9407 149.991 51.9823 150.069C53.0259 150.151 62.8948 149.83 62.8948 149.83L64.1786 150.39C64.1786 150.39 64.0171 148.239 63.9384 147.602C63.8576 146.963 63.5367 142.878 63.6174 142.572C63.6982 142.265 63.2965 133.822 63.2965 133.584C63.2965 133.345 64.0191 131.273 63.8576 130.397C63.6962 129.519 63.2157 127.926 63.2157 127.926Z" fill="#2E3AA4"/>
<path d="M25.0241 129.998C24.4609 129.6 23.3386 128.485 22.3757 128.485C21.4129 128.485 19.9696 128.167 18.1246 128.485C16.2776 128.806 14.1924 128.343 14.1924 128.343L13.6312 129.998C13.6312 129.998 10.7426 129.918 10.5024 129.998C10.2622 130.077 6.00904 130.077 5.76883 130.397C5.5266 130.716 4.00256 131.433 4.00256 131.433V134.461C4.00256 134.461 5.20564 135.257 5.28638 135.497C5.36713 135.736 7.69455 137.329 7.69455 137.329C7.69455 137.329 8.33444 137.886 10.022 137.726C11.7055 137.568 11.4653 137.726 12.4281 137.249C13.393 136.772 12.9086 136.532 13.8734 136.215C14.8363 135.894 16.4391 136.055 17.083 136.135C17.7229 136.215 18.1266 136.532 18.1266 136.532L17.5654 141.311C17.5654 141.311 16.6813 141.281 16.4411 140.977C16.2009 140.674 13.393 141.231 12.9913 141.311C12.5896 141.393 11.7882 142.724 11.2251 142.574C10.6639 142.427 9.21859 141.892 8.01551 142.039C6.81243 142.187 4.485 142.586 4.485 142.586C4.485 142.586 4.72522 145.215 4.72522 145.454C4.72522 145.694 5.60936 146.808 5.60936 146.808C5.60936 146.808 6.9719 148.72 7.61583 148.48C8.25774 148.241 10.1814 148.081 10.1814 148.081C10.1814 148.081 15.5569 148.203 16.0374 148.498C16.5198 148.798 18.5243 148.498 18.5243 148.498L18.4435 153.678C18.4435 153.678 9.85848 153.702 9.45678 153.678C9.0571 153.654 8.17296 153.975 7.69253 154.055C7.21009 154.133 5.92627 154.055 5.92627 154.055L4.96139 156.923L5.44383 158.913C5.44383 158.913 5.36309 159.55 5.6033 159.708C5.84351 159.867 7.69052 159.39 8.33041 159.708C8.97232 160.027 11.219 159.39 11.219 159.39L15.7124 159.151L17.3171 158.52C17.3171 158.52 21.0879 158.444 21.4088 158.52C21.7298 158.596 24.0572 157.957 24.0572 157.957C24.0572 157.957 25.66 156.923 25.66 154.372C25.66 154.372 25.9002 152.861 25.66 152.62C25.4198 152.38 24.9393 152.299 24.9393 152.061C24.9393 151.822 24.6991 150.39 24.6991 149.911C24.6991 149.432 24.1379 140.973 24.1379 140.973L24.3782 136.608L25.1028 134.776C25.1028 134.776 25.343 133.263 25.343 132.864C25.3451 132.467 25.0241 129.998 25.0241 129.998Z" fill="#2E3AA4"/>
<path d="M22.6988 82.7871C22.6988 82.7871 25.9063 88.4966 22.6988 90.3303C22.6988 90.3303 19.7294 92.3224 16.1202 88.659C16.1202 88.659 14.9958 86.8253 11.3059 88.18C11.3059 88.18 2.72283 92.162 1.91943 101.563C1.91943 101.563 2.72283 104.511 4.00665 106.501C4.00665 106.501 3.36474 109.449 3.60495 109.527C3.84718 109.607 5.13101 110.882 5.13101 110.882L7.13748 111.439L8.58077 113.75C8.58077 113.75 10.1835 115.742 10.4258 115.661C10.666 115.581 11.869 115.663 11.869 115.663L17.0851 116.379L19.9737 115.661L21.5784 115.343L22.0589 118.848L22.4606 121.315L23.0217 122.75L24.1279 124.104L25.2684 124.982L26.8712 124.503C26.8712 124.503 27.9955 122.591 28.155 122.353C28.3145 122.114 30.1615 119.086 30.1615 119.086L30.6439 114.683C30.6439 114.683 28.7969 106.343 22.941 105.068C22.941 105.068 20.1311 104.032 16.7621 106.741C16.7621 106.741 12.7512 109.689 9.21864 104.83C9.21864 104.83 7.61588 100.689 11.5461 97.2623L15.1109 97.8996L16.7621 98.2183C16.7621 98.2183 16.7621 100.13 23.7424 99.1742C23.7424 99.1742 28.9584 97.7413 30.002 95.4306C30.002 95.4306 34.0149 87.8634 28.6395 81.6508L25.7771 80.775C25.7771 80.775 25.1877 81.0937 24.9475 81.1739C24.7072 81.254 22.6988 82.7871 22.6988 82.7871Z" fill="#2E3AA4"/>
<path d="M113.521 104.509C113.521 103.872 113.842 82.8412 113.842 81.8853C113.842 80.9294 114.001 62.911 114.001 62.911C114.001 62.911 114.163 52.5741 114.163 52.0971C114.163 51.6182 113.68 43.4938 113.68 43.4938L113.04 40.2653C113.04 40.2653 110.794 37.0508 105.58 39.159C105.58 39.159 96.5143 40.3755 94.2676 40.3414C92.0209 40.3094 77.259 41.2633 77.0996 41.2633C76.9381 41.2633 68.5932 39.8965 68.1108 40.3414C67.6304 40.7863 56.5584 41.105 56.5584 41.105L37.1417 40.3414C37.1417 40.3414 33.2902 39.5117 33.6112 43.3355C33.6112 43.3355 33.4134 53.8487 33.593 54.3277C33.7727 54.8046 33.5163 62.913 33.5163 62.913C33.5163 62.913 34.574 64.0974 34.574 65.2657C34.574 66.4341 33.5163 67.5503 33.5163 67.5503C33.5163 67.5503 34.4125 77.6808 34.4125 79.0676C34.4125 80.4564 34.4125 85.234 34.4125 85.234L35.331 100.05V109.449V111.042C35.331 111.042 35.9245 112.794 35.331 113.75C34.7355 114.706 35.331 119.008 35.331 119.008V121.555H37.9451H51.7441C51.7441 121.555 59.447 121.397 60.5694 121.555C61.6937 121.714 73.7285 121.555 73.7285 121.555C73.7285 121.555 79.8267 122.177 80.3071 121.628C80.7895 121.078 82.3923 120.92 82.3923 120.92C82.3923 120.92 86.9765 120.281 88.6156 120.122C90.2567 119.962 103.573 121.078 103.573 121.078L107.265 120.601C107.265 120.601 111.438 120.601 112.08 120.601C112.722 120.601 114.167 119.329 114.167 119.329L115.449 118.213C115.445 118.209 113.521 105.146 113.521 104.509ZM72.2287 87.9395C72.2287 87.9395 71.6393 92.5588 71.4798 93.0378C71.3183 93.5148 71.4798 99.4087 71.4798 99.4087V105.623L72.2287 115.714L70.0365 114.681H63.4559L59.445 115.501C59.445 115.501 56.5564 115.98 55.9932 115.501C55.428 115.024 51.4232 115.501 51.4232 115.501H41.4736L40.6702 113.271L41.4736 107.695C41.4736 107.695 41.633 103.711 41.633 102.876C41.633 102.04 40.6702 98.6151 40.6702 98.6151V88.2602L41.954 86.5086L45.323 85.0737L47.7292 85.234C47.7292 85.234 49.6569 84.5968 50.9387 84.4545C52.2225 84.3142 53.6658 85.3924 53.6658 85.3924L60.4059 84.4545H62.3316L65.8601 84.5968C65.8601 84.5968 68.2683 84.2781 68.9102 84.5968C69.5521 84.9154 72.2267 84.5968 72.2267 84.5968V87.9395H72.2287ZM71.4798 73.6026L72.2287 75.1958V79.0656C72.2287 79.0656 70.196 79.1778 69.3946 79.0656C68.5912 78.9534 64.7398 78.3822 64.4188 78.2239C64.0979 78.0636 60.0869 78.2239 60.0869 78.2239C51.5826 77.5866 40.6702 80.1478 40.6702 80.1478V73.2859C40.6702 73.2859 40.3492 70.4181 39.8688 69.7808C39.3863 69.1436 40.5975 65.2677 40.5975 65.2677L40.6702 60.5422C40.6702 60.5422 40.5087 47.0009 40.6702 46.7604H71.4798L72.2287 48.9107C72.2287 48.9107 71.3183 60.0632 71.3183 60.5422C71.3183 61.0172 71.4798 73.6026 71.4798 73.6026ZM108.547 114.681H90.2527L77.0955 115.714V113.908L78.2179 110.882V108.649C78.2179 108.649 77.576 106.737 77.0955 106.26C76.6131 105.784 76.2921 103.711 75.9187 102.876C75.5432 102.04 75.9187 98.2964 75.9187 98.2964L77.0955 96.7032V84.4404L79.6087 85.0717L83.1917 84.4404C83.1917 84.4404 86.7222 85.3924 87.685 85.3924C88.6479 85.3924 92.1481 84.4404 92.1481 84.4404C92.1481 84.4404 95.2265 84.1178 96.1873 83.7991C97.1502 83.4805 101.484 83.7991 101.524 83.7991C101.565 83.7991 107.421 83.7991 107.421 83.7991C107.421 83.7991 107.582 86.8253 107.742 87.6229C107.903 88.4185 108.545 91.4466 108.545 91.4466V114.681H108.547ZM108.547 63.4521C107.905 64.4521 108.547 70.0975 108.547 70.0975V77.266C108.547 77.266 106.621 77.1076 104.855 77.1076C103.089 77.1076 102.449 76.9473 102.449 76.9473L98.759 76.6287C98.759 76.6287 95.8704 77.7429 95.39 77.7429C94.9075 77.7429 87.5256 77.9032 87.0451 77.9032C86.5647 77.9032 79.6107 79.0656 79.6107 79.0656L77.8182 77.9032L77.0975 75.3541V69.2999L78.5408 59.7406V46.7564H87.5276L92.1804 45.7203L105.58 46.7564L106.942 49.2274L108.226 55.1213L109.671 58.1494C109.671 58.1494 109.189 62.4521 108.547 63.4521Z" fill="#2E3AA4"/>
</svg>
