<svg width="22" height="22" viewBox="0 0 22 22" fill="none" xmlns="http://www.w3.org/2000/svg" id="magnifying_glass">
<path d="M21.4452 19.8541L16.5428 14.9517C17.7477 13.4062 18.4688 11.4597 18.4688 9.3457C18.4688 4.30919 14.3822 0.222656 9.3457 0.222656C4.30482 0.222656 0.222656 4.30927 0.222656 9.3457C0.222656 14.3821 4.30482 18.4688 9.3457 18.4688C11.4595 18.4688 13.4021 17.7518 14.9475 16.547L19.851 21.4463C19.851 21.4463 19.851 21.4464 19.851 21.4464C20.2922 21.8875 21.0044 21.8877 21.4458 21.4469C21.8878 21.0097 21.8879 20.292 21.4458 19.8548C21.4456 19.8546 21.4454 19.8544 21.4452 19.8541ZM9.3457 16.2027C5.56063 16.2027 2.48438 13.1263 2.48438 9.3457C2.48438 5.56493 5.56083 2.48438 9.3457 2.48438C13.1264 2.48438 16.207 5.56502 16.207 9.3457C16.207 13.1262 13.1266 16.2027 9.3457 16.2027Z" fill="white" stroke="white" stroke-width="0.5"/>
</svg>
