<svg width="25" height="25" viewBox="0 0 25 25" fill="none" xmlns="http://www.w3.org/2000/svg">
<path d="M24.1875 0.125L23.9675 0.16625L16.625 3.0125L8.375 0.125L0.62 2.7375C0.33125 2.83375 0.125 3.08125 0.125 3.3975V24.1875C0.125 24.5725 0.4275 24.875 0.8125 24.875L1.0325 24.8337L8.375 21.9875L16.625 24.875L24.38 22.2625C24.6687 22.1663 24.875 21.9188 24.875 21.6025V0.8125C24.875 0.4275 24.5725 0.125 24.1875 0.125ZM9.75 3.52125L15.25 5.44625V21.4788L9.75 19.5537V3.52125ZM2.875 4.8825L7 3.49375V19.5812L2.875 21.1762V4.8825ZM22.125 20.1175L18 21.5062V5.4325L22.125 3.8375V20.1175Z" fill="white"/>
</svg>
