<svg width="88" height="89" viewBox="0 0 88 89" fill="none" xmlns="http://www.w3.org/2000/svg" id="map_large">
<path d="M85.0833 0.625L84.31 0.77125L58.5 10.8625L29.5 0.625L2.24 9.8875C1.225 10.2288 0.5 11.1063 0.5 12.2275V85.9375C0.5 87.3025 1.56333 88.375 2.91667 88.375L3.69 88.2287L29.5 78.1375L58.5 88.375L85.76 79.1125C86.775 78.7713 87.5 77.8938 87.5 76.7725V3.0625C87.5 1.6975 86.4367 0.625 85.0833 0.625ZM34.3333 12.6662L53.6667 19.4912V76.3338L34.3333 69.5087V12.6662ZM10.1667 17.4925L24.6667 12.5687V69.6062L10.1667 75.2612V17.4925ZM77.8333 71.5075L63.3333 76.4312V19.4425L77.8333 13.7875V71.5075Z" fill="white"/>
</svg>
