<svg width="130" height="118" viewBox="0 0 130 118" fill="none" xmlns="http://www.w3.org/2000/svg">
<path d="M6.41191 53.9898C6.27184 54.8591 5.39053 59.4425 5.74092 61.3458C5.7416 62.2173 5.5423 64.272 5.84295 65.3781C5.85846 66.6372 6.00639 67.8804 6.25792 69.112C6.27775 69.1872 6.30069 69.2617 6.32484 69.3343C6.32202 69.332 6.31922 69.3297 6.3155 69.3264C6.52397 71.0169 7.14939 72.6761 7.94036 74.1915C8.19994 75.2926 9.9313 77.9263 10.2268 78.4273C10.7371 79.385 11.3381 80.2777 12.0536 81.0906C12.1313 81.1857 12.2098 81.2818 12.2875 81.3768C12.3863 81.7257 12.5837 81.901 12.8305 81.9989C12.808 82.0007 12.7846 82.0014 12.7613 82.001C13.2795 82.739 13.8478 83.4318 14.5051 84.0473C14.4905 84.0108 14.4837 83.977 14.4819 83.9447C14.6541 84.664 15.8339 85.3671 16.3144 85.8646L16.4822 85.9607C16.8527 86.3308 17.1355 86.7974 17.6175 87.0474C17.6819 87.103 17.7462 87.1596 17.8106 87.2152C17.8174 87.2079 17.8212 87.2002 17.8259 87.1937C17.8977 87.3273 17.9662 87.5036 18.1673 87.5108C19.6936 88.8945 21.3101 90.1579 23.0141 91.3068C23.2195 91.4738 23.3923 91.6917 23.6776 91.7294C23.6838 91.718 23.6898 91.7086 23.696 91.6972C23.9155 92.0772 24.6586 92.6251 25.1109 92.6856C25.0887 92.6944 25.0657 92.7021 25.0416 92.7097C26.1005 93.506 27.2085 94.228 28.348 94.899C28.3695 94.9172 28.3962 94.9339 28.4303 94.9484C29.2248 95.3481 30.3979 96.6231 31.218 96.516C31.1903 96.5593 31.1542 96.5958 31.109 96.6223C32.5545 97.5587 34.038 98.4297 35.536 99.2772C35.5615 99.2256 35.5858 99.1749 35.6113 99.1233C35.6124 99.1224 35.6136 99.1205 35.6147 99.1196C36.8882 100.597 39.4508 101.498 41.2223 102.592C41.221 102.575 41.2187 102.556 41.2164 102.539C41.6669 103.143 43.5787 103.849 43.9597 104.125C45.8063 105.238 47.7241 106.208 49.6926 107.077C52.2802 108.426 55.013 109.542 57.8374 110.28C59.0071 110.701 60.2017 111.024 61.4291 111.225C62.7021 111.687 64.0291 111.895 65.3603 112.081C66.4952 112.344 67.6432 112.516 68.8069 112.583C69.6633 112.81 70.5581 112.778 71.4214 112.825C71.4077 112.831 71.3949 112.837 71.3802 112.842C71.597 112.925 71.8176 112.92 72.0408 112.879C72.2603 112.956 72.4807 112.983 72.7048 112.892C72.8043 112.901 72.9028 112.91 73.0014 112.918C73.3405 113.035 73.6836 113.053 74.0314 112.962C74.8518 113.075 75.6758 113.11 76.502 113.023C77.7181 113.083 78.9313 113.05 80.1416 112.895C80.8835 112.941 81.6227 112.78 82.336 112.666C82.3116 112.677 82.2866 112.683 82.2611 112.685C82.4919 112.76 82.7013 112.674 82.9096 112.59C83.099 112.521 83.2875 112.442 83.4941 112.516C83.5214 112.517 83.5469 112.515 83.5704 112.514C84.2275 112.494 84.8726 112.393 85.5031 112.194C85.5032 112.193 85.5033 112.192 85.5045 112.19C85.7718 112.265 86.006 112.145 86.2458 112.059C86.5881 112.075 86.9071 111.978 87.2187 111.845C87.2083 111.817 87.213 111.781 87.223 111.741C87.2251 111.771 87.2238 111.805 87.2187 111.845C88.0782 111.709 88.9256 111.521 89.7421 111.208C90.0385 111.165 90.2713 111.089 90.453 110.997C92.298 110.53 94.0787 109.836 95.8046 109.052C96.1959 108.911 96.6131 108.827 96.9325 108.525C96.9707 108.529 97.0013 108.517 97.0265 108.489C98.771 107.73 100.42 106.797 101.972 105.689C101.874 105.675 101.829 105.638 101.811 105.59C102.449 105.868 104.433 103.892 105 103.564C104.994 103.549 104.988 103.536 104.983 103.523C105.288 103.403 105.576 103.205 105.718 103.015C106.026 102.839 106.301 102.622 106.537 102.352C107.135 101.964 107.657 101.484 108.152 100.972C110.149 99.2627 111.942 97.358 113.506 95.2319C114.942 93.4488 116.227 91.5613 117.304 89.5336C117.278 89.518 117.247 89.4978 117.212 89.4743C117.592 89.2407 118.035 88.4278 118.183 87.8952C118.205 87.8533 118.226 87.8123 118.247 87.7702C119.161 86.1093 119.893 84.3688 120.484 82.565C120.484 82.564 120.484 82.563 120.484 82.562C120.668 82.2436 120.778 81.8976 120.838 81.5346C120.823 81.5391 120.812 81.5451 120.798 81.5507C121.173 80.4954 121.641 79.4494 121.78 78.3082C122.3 76.5774 122.616 74.8062 122.817 73.0134L122.817 73.0125C122.938 72.6525 122.985 72.2842 122.96 71.9057C123.411 68.6439 123.49 65.3146 123.224 62.0319C122.986 61.0474 123.482 58.7718 122.618 58.1947C122.693 58.1952 122.77 58.1979 122.846 58.2075C122.915 57.9839 122.833 57.7831 122.756 57.5818L122.751 57.5853C122.789 57.1479 122.701 56.7279 122.573 56.3139C122.564 56.3321 122.555 56.3503 122.546 56.3684C122.506 55.7648 122.496 55.155 122.25 54.5838C122.231 54.619 122.221 54.6561 122.214 54.6926C122.216 54.6566 122.225 54.6214 122.25 54.5838C121.767 51.6904 120.974 48.8823 119.997 46.1268C119.982 45.998 119.95 45.8894 119.904 45.7916C119.791 45.1956 119.592 44.6312 119.301 44.0975C119.293 44.0666 119.28 44.0382 119.264 44.0126C119.267 44.0129 119.269 44.0131 119.272 44.0134C118.794 42.5354 118.264 41.0793 117.53 39.707C117.525 39.7085 117.521 39.7091 117.516 39.7106C117.502 39.6511 117.481 39.5827 117.446 39.5021C117.069 38.2839 116.378 37.2578 115.724 36.2285C115.756 36.2337 115.787 36.2389 115.821 36.2423C115.22 34.9705 114.505 33.7696 113.68 32.6358C113.566 32.4599 113.449 32.2828 113.333 32.1046C113.334 32.1047 113.335 32.1058 113.337 32.106C113.248 31.8684 113.113 31.6653 112.929 31.4955C112.246 30.4783 111.517 29.4634 110.693 28.5514C109.398 26.6393 107.748 25.148 106.045 23.7224C106.129 23.7409 106.215 23.7555 106.305 23.7666C105.374 22.7695 104.383 21.8407 103.306 21.0066C102.92 20.5506 102.202 20.0473 101.975 19.8851C101.428 19.3579 100.838 18.8895 100.2 18.4824C100.2 18.4834 100.2 18.4844 100.199 18.4864C99.6213 17.9119 98.9033 17.4667 98.2334 17.0074C97.4946 16.4167 96.7125 15.8929 95.8863 15.4349C95.6447 15.2051 95.3704 15.0281 95.0574 14.9134C94.9153 14.7728 94.6086 14.5344 94.3985 14.5263C94.398 14.5213 94.3976 14.5152 94.3962 14.5091C94.2124 14.3492 93.959 14.1763 93.6978 14.0809C93.3483 13.8242 92.985 13.5942 92.5827 13.4294C91.2103 12.6036 89.7856 11.8839 88.3141 11.2568C85.5196 9.9693 82.6601 8.80263 79.6572 8.10488C79.7132 8.1426 79.753 8.19072 79.7821 8.24378C79.74 8.19844 79.698 8.15211 79.6572 8.10488C78.7269 7.79383 77.7752 7.5759 76.8083 7.4176C73.1627 6.47479 69.3055 6.07327 65.591 5.93679C65.381 5.86656 65.1615 5.89063 64.9456 5.90003C64.9491 5.90539 64.9526 5.91076 64.9571 5.91623C64.8681 5.9143 64.7781 5.91129 64.6891 5.90936C63.9369 5.92605 62.2423 5.64152 61.1193 5.84658C59.7039 5.7816 58.2953 5.86171 56.89 6.03942C56.169 6.03819 55.4559 6.11998 54.75 6.27168C54.932 6.43937 54.9188 6.54033 54.8168 6.61633C54.5793 5.25578 43.923 8.91133 42.6893 9.6227C41.951 10.0459 36.9253 11.7662 37.0323 12.7807C36.9822 12.6934 36.9999 12.5679 37.1365 12.379C36.8578 12.4784 36.5894 12.5958 36.3768 12.8141C36.1759 12.8651 36.083 12.9521 36.0478 13.0598C36.0471 13.0467 36.0465 13.0326 36.0459 13.0185C35.976 13.0586 35.907 13.0988 35.8381 13.139C35.8437 13.1536 35.8492 13.1692 35.8549 13.1839C35.7395 13.1311 35.6087 13.1712 35.4876 13.3666L35.4429 13.3781L35.4111 13.412C34.7612 13.7328 34.1612 14.1328 33.5962 14.5874C33.3137 14.7145 33.0543 14.8739 32.8478 15.1119C32.1556 15.5207 31.5134 15.9977 30.9076 16.5255C30.8582 16.5526 30.8115 16.594 30.7756 16.6385C30.5243 16.7477 30.3097 16.9046 30.1453 17.1277C29.3186 17.6945 28.5502 18.3373 27.7942 18.9974C26.7466 19.7846 25.8209 20.7104 24.8926 21.632C24.9493 21.6336 24.9965 21.6374 25.0365 21.6434C24.1686 21.8129 16.4281 30.6679 16.2499 31.3319C15.3922 32.429 13.7264 33.847 13.5466 35.1927C13.5237 35.1182 13.5028 35.0429 13.4588 34.9863C12.8812 35.8499 10.8436 38.476 11.0769 39.3437C11.0154 39.3295 10.954 39.3153 10.8912 39.304C10.4582 40.0407 10.1027 40.8132 9.85005 41.6321C9.80425 41.7449 9.75955 41.8567 9.71264 41.9703C9.67004 42.0813 9.62654 42.1913 9.58395 42.3023C8.60169 44.7507 7.68443 47.2687 7.22356 49.8677C7.20938 50.4228 6.80408 50.8835 6.84432 51.4521C6.73009 51.7715 6.65369 52.0978 6.65895 52.4392C6.52235 52.951 6.44519 53.4667 6.41191 53.9898ZM120.954 66.5811C120.964 66.5971 120.971 66.6129 120.973 66.6291C120.956 66.6274 120.94 66.6278 120.925 66.6283C120.936 66.6143 120.944 66.5982 120.954 66.5811ZM116.647 88.9232C116.653 88.9598 116.659 88.9946 116.665 89.0273C116.642 88.9828 116.622 88.9387 116.606 88.896C116.619 88.9054 116.633 88.9147 116.647 88.9232ZM119.224 61.1919C119.166 61.1901 119.11 61.1835 119.056 61.17C119.112 61.1626 119.168 61.1672 119.224 61.1919ZM116.146 87.4088C116.147 87.4129 116.147 87.417 116.148 87.421C116.139 87.4152 116.131 87.4103 116.122 87.4044C116.13 87.4062 116.139 87.4071 116.146 87.4088ZM115.807 87.5352C115.806 87.5361 115.806 87.5371 115.804 87.5379C115.804 87.5369 115.804 87.5359 115.803 87.5338C115.804 87.5349 115.806 87.5351 115.807 87.5352ZM114.973 90.7555C114.976 90.7698 114.978 90.7831 114.98 90.7963C114.971 90.7864 114.961 90.7734 114.951 90.7623C114.959 90.7602 114.967 90.7579 114.973 90.7555ZM114.485 87.8747C114.485 87.8756 114.485 87.8756 114.485 87.8747C114.484 87.8746 114.485 87.8747 114.485 87.8747ZM115.603 74.7726C115.603 74.7726 115.603 74.7736 115.603 74.7746C115.602 74.7765 115.6 74.7783 115.599 74.7792C115.601 74.7764 115.602 74.7745 115.603 74.7726ZM30.8899 92.2102C30.8879 92.21 30.885 92.2087 30.8831 92.2076C30.8852 92.2068 30.8863 92.2059 30.8885 92.2041C30.8884 92.2051 30.8892 92.2072 30.8899 92.2102ZM31.7738 87.2782C31.7991 87.2888 31.8219 87.3041 31.8425 87.3212C31.8185 87.3078 31.7956 87.2934 31.7738 87.2782ZM36.6889 95.039C36.6769 95.0378 36.6655 95.0396 36.6532 95.0414C36.656 95.0337 36.6588 95.0259 36.6616 95.0182C36.6721 95.0243 36.6806 95.0311 36.6889 95.039ZM37.0696 96.5192C37.0532 96.5115 37.0345 96.5056 37.0138 96.4995C37.0134 96.4935 37.011 96.4872 37.0097 96.4801C37.0309 96.4802 37.0521 96.4813 37.0751 96.4846C37.0697 96.4881 37.0634 96.4905 37.058 96.494C37.0622 96.5024 37.0654 96.5107 37.0696 96.5192ZM40.551 97.9158C40.5502 97.9137 40.5494 97.9116 40.5485 97.9105C40.5497 97.9086 40.551 97.9058 40.5532 97.904C40.5551 97.9052 40.5571 97.9054 40.5591 97.9066C40.5567 97.9103 40.5533 97.913 40.551 97.9158ZM41.4379 100.698C41.4473 100.624 41.4783 100.568 41.5478 100.543C41.5499 100.542 41.553 100.541 41.5562 100.54C41.5117 100.589 41.4729 100.643 41.4379 100.698ZM47.2077 103.484C47.2064 103.427 47.2035 103.374 47.2004 103.325C47.2191 103.381 47.2227 103.435 47.2077 103.484ZM60.4025 109.572C60.4001 109.544 60.3945 109.52 60.3889 109.495C60.4424 109.517 60.4952 109.537 60.5491 109.555C60.4969 109.56 60.4466 109.566 60.4025 109.572ZM72.8597 112.046C72.8579 112.044 72.8561 112.042 72.8553 112.04C72.8563 112.04 72.8585 112.038 72.8605 112.038C72.8603 112.04 72.8601 112.042 72.8597 112.046ZM75.6175 112.166C75.6451 112.164 75.6724 112.164 75.6996 112.166C75.6814 112.237 75.6519 112.218 75.6175 112.166ZM106.074 102.412C106.076 102.409 106.08 102.406 106.082 102.403C106.086 102.409 106.09 102.416 106.095 102.422C106.088 102.419 106.08 102.416 106.074 102.412ZM107.537 100.103C107.555 100.101 107.573 100.101 107.592 100.106C107.593 100.11 107.595 100.113 107.597 100.117C107.577 100.112 107.557 100.108 107.537 100.103ZM116.115 67.7174C116.113 67.7443 116.111 67.7721 116.108 67.7999C116.097 67.7898 116.085 67.7785 116.071 67.7682C116.087 67.7507 116.101 67.7341 116.115 67.7174ZM115.459 69.3632C115.458 69.3742 115.458 69.3842 115.458 69.3952C115.451 69.4236 115.447 69.4523 115.446 69.4823C115.443 69.482 115.439 69.4816 115.436 69.4813C115.439 69.4414 115.448 69.4022 115.459 69.3632ZM113.928 71.8627C113.929 71.8648 113.928 71.8688 113.929 71.8719C113.927 71.8697 113.924 71.8684 113.922 71.8662C113.925 71.8644 113.926 71.8635 113.928 71.8627ZM112.955 70.4744C112.947 70.4707 112.939 70.4659 112.932 70.4621C112.936 70.4615 112.94 70.4589 112.944 70.4583C112.947 70.4636 112.951 70.4681 112.955 70.4744ZM113.142 68.4406C113.143 68.4407 113.143 68.4407 113.142 68.4406C113.13 68.4514 113.116 68.4611 113.102 68.4717C113.117 68.4561 113.13 68.4454 113.142 68.4406ZM112.843 67.3025C112.826 67.3319 112.809 67.3603 112.791 67.3885C112.785 67.3628 112.778 67.3371 112.771 67.3124C112.794 67.3126 112.818 67.3091 112.843 67.3025ZM111.81 69.8822C111.81 69.9032 111.81 69.9233 111.811 69.9434C111.797 69.934 111.784 69.9246 111.771 69.9143C111.784 69.9046 111.797 69.8939 111.81 69.8822ZM111.747 67.9314C111.744 67.9291 111.741 67.9258 111.738 67.9236C111.734 67.895 111.727 67.8843 111.711 67.8967C111.695 67.8811 111.679 67.8655 111.664 67.8489C111.666 67.803 111.673 67.7465 111.668 67.7139C111.691 67.7965 111.719 67.8684 111.747 67.9314ZM110.9 69.4548C110.921 69.4609 110.94 69.4698 110.958 69.4807C110.937 69.4776 110.917 69.4746 110.896 69.4725C110.895 69.4643 110.894 69.4562 110.892 69.449C110.896 69.4514 110.897 69.4545 110.9 69.4548ZM111.515 60.3643C111.515 60.3653 111.515 60.3663 111.515 60.3673C111.509 60.3667 111.504 60.3652 111.498 60.3636C111.503 60.3631 111.509 60.3637 111.515 60.3643ZM113.665 37.8948C113.664 37.8987 113.665 37.9028 113.664 37.9068C113.664 37.9027 113.661 37.8994 113.659 37.8963C113.662 37.8945 113.663 37.8946 113.665 37.8948ZM111.876 54.2517C111.89 54.2992 111.905 54.3428 111.921 54.3845C111.862 54.3465 111.856 54.3018 111.876 54.2517ZM110.265 68.8575C110.28 68.866 110.294 68.8725 110.31 68.8771C110.31 68.8781 110.31 68.8791 110.31 68.8801C110.295 68.8736 110.279 68.87 110.264 68.8645C110.265 68.8625 110.265 68.8595 110.265 68.8575ZM110.237 42.5202C110.239 42.5224 110.241 42.5246 110.244 42.5269C110.241 42.5246 110.237 42.5222 110.234 42.5199C110.234 42.5199 110.236 42.5201 110.237 42.5202ZM107.909 40.1234C107.908 40.1252 107.907 40.1261 107.906 40.128C107.906 40.126 107.906 40.125 107.906 40.1241C107.906 40.1241 107.907 40.1232 107.909 40.1234ZM108.601 29.727C108.634 29.7834 108.636 29.8428 108.558 29.9002C108.573 29.8486 108.584 29.7875 108.601 29.727ZM107.436 38.345C107.442 38.3436 107.446 38.3431 107.452 38.3417C107.459 38.4185 107.461 38.4759 107.467 38.5176C107.451 38.507 107.435 38.4934 107.421 38.4759C107.357 38.4304 107.36 38.3595 107.436 38.345ZM105.331 33.0165C105.344 33.0108 105.354 33.0008 105.364 32.9927C105.367 33.0502 105.371 33.1057 105.375 33.1613C105.351 33.1118 105.328 33.0613 105.305 33.0099C105.314 33.0128 105.322 33.0136 105.331 33.0165ZM104.173 33.5189C104.198 33.5615 104.216 33.6014 104.228 33.6387C104.223 33.6382 104.218 33.6367 104.213 33.6362C104.212 33.6371 104.211 33.639 104.21 33.6399C104.201 33.6019 104.189 33.5606 104.173 33.5189ZM103.897 23.8787C103.847 23.8887 103.798 23.8998 103.748 23.9118C103.788 23.8767 103.848 23.8637 103.897 23.8787ZM87.1259 14.1708C87.1255 14.1748 87.1251 14.1787 87.1246 14.1837C87.1218 14.1814 87.1181 14.178 87.1143 14.1747C87.1186 14.1731 87.1228 14.1715 87.1259 14.1708ZM81.0353 11.741C81.0371 11.7431 81.0399 11.7454 81.0417 11.7476C81.0387 11.7473 81.0357 11.747 81.0317 11.7466C81.033 11.7437 81.0342 11.7418 81.0353 11.741ZM79.7336 12.1296C79.7373 12.143 79.743 12.1567 79.7478 12.1702C79.7467 12.1711 79.7457 12.171 79.7445 12.1718C79.7389 12.1572 79.7323 12.1425 79.7244 12.1297C79.7265 12.1289 79.7306 12.1293 79.7336 12.1296ZM64.1003 6.91415C64.094 6.92655 64.0884 6.94202 64.0836 6.95959C64.0805 6.93924 64.0763 6.92076 64.071 6.90317C64.0808 6.90617 64.0907 6.90917 64.1003 6.91415ZM60.069 6.56935C60.0578 6.61034 60.0504 6.65371 60.0458 6.69938C60.0352 6.6943 60.0246 6.68823 60.0139 6.68414C60.0241 6.623 60.0437 6.58887 60.069 6.56935ZM57.2883 8.18223C57.2529 8.23182 57.2195 8.28161 57.1877 8.33557C57.2071 8.27435 57.2425 8.22475 57.2883 8.18223ZM55.9176 8.30926C55.9172 8.31323 55.9169 8.31621 55.9166 8.31919C55.9066 8.31719 55.8967 8.31518 55.8878 8.3123C55.8991 8.31142 55.9073 8.31023 55.9176 8.30926ZM30.9382 85.288C30.9487 85.2951 30.9592 85.3011 30.9697 85.3082C30.9475 85.317 30.9202 85.3263 30.8981 85.3341C30.8951 85.3338 30.8921 85.3335 30.8892 85.3322C30.9088 85.3181 30.9246 85.3027 30.9382 85.288ZM27.96 89.413C27.9656 89.4176 27.9721 89.4233 27.9776 89.4288C27.9848 89.4486 27.991 89.4673 27.9973 89.486C27.9814 89.4623 27.9656 89.4377 27.9508 89.4131C27.9539 89.4124 27.9569 89.4127 27.96 89.413ZM27.7109 87.0365C27.7217 87.1108 27.71 87.1558 27.6424 87.1429C27.6652 87.1071 27.688 87.0723 27.7109 87.0365ZM25.3933 85.7047C25.3935 85.7027 25.3958 85.6999 25.3961 85.6969C25.4056 85.7039 25.4139 85.7118 25.4213 85.7195C25.4171 85.7201 25.4148 85.7229 25.4126 85.7247C25.4052 85.7179 25.3967 85.711 25.3891 85.7063C25.3902 85.7054 25.3923 85.7046 25.3933 85.7047ZM25.2357 88.0112C25.2138 88.0171 25.1907 88.0248 25.1687 88.0316C25.1594 88.0136 25.15 87.9956 25.1427 87.9778C25.1761 87.9982 25.2085 88.0085 25.2357 88.0112ZM25.3334 84.7771C25.3368 84.7835 25.3401 84.7908 25.3434 84.7982C25.3381 84.8007 25.3318 84.803 25.3264 84.8065C25.3294 84.7968 25.3315 84.7859 25.3334 84.7771ZM24.2044 89.7257C24.2349 89.7448 24.2618 89.7605 24.286 89.772C24.2562 89.786 24.2235 89.7978 24.1874 89.8042C24.1942 89.7768 24.1998 89.7513 24.2044 89.7257ZM23.7627 83.2596C23.7315 83.2775 23.7043 83.2958 23.679 83.3154C23.6711 83.2725 23.657 83.2309 23.6369 83.1888C23.6814 83.2103 23.7238 83.2326 23.7627 83.2596ZM19.4868 81.4222C19.4997 81.4255 19.5105 81.4286 19.5235 81.4309C19.5167 81.4372 19.5121 81.4428 19.5054 81.4491C19.4981 81.4414 19.4918 81.4327 19.4856 81.4241C19.4857 81.4231 19.4857 81.4231 19.4868 81.4222ZM25.101 21.6579C25.3158 21.7106 25.1979 21.8441 25.0235 22.0051C25.1165 21.8059 25.139 21.6938 25.101 21.6579ZM18.1971 84.6699C18.1566 84.719 18.1202 84.7685 18.0855 84.8212C18.0604 84.7384 18.1179 84.7011 18.1971 84.6699ZM18.6134 75.6698C18.599 75.6814 18.5846 75.694 18.5681 75.7064C18.5573 75.6923 18.5489 75.6754 18.5418 75.6556C18.5666 75.6611 18.5895 75.6654 18.6134 75.6698ZM18.0044 78.3903C17.9987 78.3958 17.9952 78.4004 17.9906 78.406C17.9593 78.3748 17.9269 78.3434 17.8945 78.3131C17.9326 78.327 17.9687 78.3516 18.0044 78.3903ZM14.3881 77.0644C14.3643 77.059 14.3373 77.0553 14.3059 77.0541C14.3407 77.0315 14.3675 77.0372 14.3881 77.0644ZM14.6332 70.0606C14.6308 70.0744 14.6295 70.0873 14.6293 70.0994C14.6165 70.0961 14.6057 70.092 14.5929 70.0887C14.607 70.0791 14.6202 70.0694 14.6332 70.0606ZM14.9028 60.4913C14.9058 60.4916 14.9088 60.4919 14.9108 60.4931C14.9218 60.5142 14.9329 60.5354 14.945 60.5557C14.9154 60.5477 14.8844 60.5436 14.8541 60.5425C14.8699 60.5261 14.8869 60.5087 14.9028 60.4913ZM13.0858 76.5806C12.9998 76.5178 12.9139 76.454 12.8297 76.3934C12.9522 76.4458 13.0433 76.5081 13.0858 76.5806ZM16.9938 34.0429C16.9923 34.0578 16.992 34.0708 16.9916 34.0848C16.9868 34.0823 16.9809 34.0797 16.9752 34.0761C16.9803 34.0656 16.9876 34.0543 16.9938 34.0429ZM12.8182 68.7843C12.8192 68.7844 12.8192 68.7844 12.8201 68.7855L12.8202 68.7845C12.8202 68.7845 12.8193 68.7834 12.8182 68.7843C12.8196 68.7804 12.8199 68.7775 12.8211 68.7756C12.8208 68.7785 12.8205 68.7815 12.8202 68.7845C12.8212 68.7846 12.8212 68.7846 12.8221 68.7857L12.822 68.7867C12.821 68.7866 12.821 68.7866 12.8201 68.7855C12.8191 68.7854 12.818 68.7863 12.8169 68.7872C12.817 68.7862 12.8181 68.7853 12.8182 68.7843ZM12.5323 63.2915C12.5328 63.2966 12.5333 63.3016 12.5339 63.3057C12.5311 63.3034 12.5284 63.3002 12.5246 63.2968C12.5279 63.2951 12.5301 63.2933 12.5323 63.2915ZM12.0146 67.7881C11.9964 67.7983 11.9783 67.8065 11.96 67.8167C11.9589 67.8075 11.9548 67.7981 11.9517 67.7888C11.972 67.7888 11.9923 67.7888 12.0146 67.7881ZM14.2723 42.7292C14.2753 42.7295 14.2793 42.7299 14.2823 42.7302C14.2782 42.7308 14.2752 42.7305 14.2712 42.7301C14.2721 42.7312 14.2712 42.7301 14.2723 42.7292ZM12.8971 55.7724C12.8978 55.7754 12.8986 55.7785 12.9003 55.7817C12.9003 55.7817 12.9013 55.7818 12.9024 55.7809C12.8971 55.8034 12.8939 55.8252 12.8919 55.845C12.8852 55.8403 12.8786 55.8357 12.872 55.831C12.8799 55.8127 12.8879 55.7935 12.8971 55.7724ZM13.1461 49.6294C13.1424 49.626 13.1376 49.6225 13.1329 49.619C13.1333 49.615 13.1327 49.611 13.1321 49.6069C13.1364 49.6144 13.1418 49.6219 13.1461 49.6294ZM12.6987 53.5072C12.6986 53.5082 12.6984 53.5102 12.6993 53.5113C12.6985 53.5092 12.6968 53.506 12.696 53.504C12.6969 53.505 12.6978 53.5061 12.6987 53.5072ZM12.0416 52.4966C12.0583 52.5023 12.0761 52.5071 12.0949 52.511C12.0865 52.5342 12.0781 52.5574 12.0687 52.5806C12.0605 52.5607 12.0515 52.5397 12.0395 52.5175C12.0384 52.5184 12.0363 52.5191 12.0342 52.5199C12.038 52.5123 12.0398 52.5045 12.0416 52.4966ZM11.8394 51.7333C11.8384 51.7432 11.8373 51.7541 11.8362 51.765C11.826 51.756 11.8156 51.7479 11.8054 51.7389C11.8166 51.738 11.827 51.735 11.8394 51.7333ZM11.9858 48.1761C11.9917 48.1877 11.9965 48.2003 12.0013 48.2138C11.9899 48.2056 11.9797 48.1966 11.9672 48.1893C11.9727 48.1848 11.9803 48.1806 11.9858 48.1761ZM8.71309 73.2433C8.713 73.2443 8.713 73.2443 8.7129 73.2453C8.7129 73.2453 8.71189 73.2452 8.71088 73.2451C8.71189 73.2452 8.71199 73.2442 8.71309 73.2433ZM7.95784 73.7751C7.93808 73.8002 7.92486 73.831 7.91704 73.8683C7.90799 73.8373 7.90003 73.8054 7.89098 73.7744C7.91657 73.772 7.93886 73.7722 7.95784 73.7751ZM9.05817 59.3386C9.05797 59.3406 9.05787 59.3416 9.05767 59.3436C9.05777 59.3426 9.05797 59.3406 9.05817 59.3386ZM9.04866 59.3828C9.04415 59.3974 9.03874 59.4108 9.03132 59.4241C9.05362 59.4444 9.07191 59.4643 9.09009 59.4852C9.04962 59.4641 9.00813 59.4429 8.96876 59.4209C8.99306 59.4113 9.01966 59.3989 9.04866 59.3828ZM7.09374 64.3757C7.08282 64.4137 7.07392 64.4519 7.06812 64.4894C7.04142 64.4928 7.02034 64.4906 7.00156 64.4858C7.03176 64.4477 7.06275 64.4117 7.09374 64.3757ZM6.78232 64.8307C6.78344 64.8599 6.77582 64.8852 6.75335 64.907C6.76207 64.8809 6.77169 64.8557 6.78232 64.8307ZM6.20995 66.0257C6.21848 66.0316 6.22712 66.0364 6.23465 66.0422C6.22552 66.0423 6.21638 66.0424 6.20724 66.0425C6.20884 66.0366 6.20935 66.0317 6.20995 66.0257ZM5.91949 61.9002C5.94875 61.9523 5.98081 61.9966 6.01648 62.0353C5.94261 62.0841 5.86425 62.1474 5.77987 62.2302C5.82627 62.1115 5.8769 62.0012 5.91949 61.9002Z" fill="#f36e23"/>
</svg>
