<svg width="118" height="106" viewBox="0 0 118 106" fill="none" xmlns="http://www.w3.org/2000/svg">
<path d="M117.795 52.1292C117.848 51.2502 118.267 46.6018 117.728 44.743C117.64 43.8759 117.633 41.8116 117.223 40.741C117.082 39.4899 116.811 38.2676 116.437 37.0673C116.41 36.9945 116.38 36.9227 116.348 36.8528C116.351 36.8548 116.354 36.8568 116.359 36.8598C115.982 35.1986 115.194 33.6102 114.256 32.1814C113.887 31.1118 111.901 28.6644 111.557 28.1954C110.954 27.2935 110.266 26.4653 109.473 25.728C109.386 25.6412 109.299 25.5534 109.212 25.4666C109.079 25.1294 108.865 24.9747 108.609 24.9019C108.632 24.8979 108.655 24.8949 108.678 24.8929C108.089 24.2104 107.454 23.5779 106.739 23.0311C106.757 23.066 106.767 23.099 106.772 23.1309C106.529 22.4325 105.284 21.8508 104.757 21.4038L104.58 21.325C104.174 20.9937 103.846 20.5577 103.342 20.3572C103.272 20.3083 103.203 20.2584 103.133 20.2095C103.127 20.2175 103.124 20.2255 103.12 20.2324C103.035 20.1067 102.949 19.9381 102.749 19.9511C101.092 18.7268 99.3569 17.6313 97.5465 16.6585C97.3255 16.5129 97.1318 16.3133 96.8442 16.3043C96.8391 16.3163 96.8341 16.3263 96.829 16.3383C96.5727 15.9821 95.7785 15.5111 95.3224 15.4962C95.3436 15.4852 95.3658 15.4752 95.389 15.4652C94.2558 14.7788 93.0811 14.1712 91.8803 13.6174C91.8571 13.6014 91.8288 13.5875 91.7935 13.5765C90.963 13.2582 89.6683 12.1068 88.863 12.2954C88.8862 12.2495 88.9185 12.2096 88.9609 12.1787C87.4291 11.3915 85.8659 10.6731 84.2907 9.97965C84.2705 10.0335 84.2514 10.0864 84.2312 10.1403C84.2302 10.1413 84.2291 10.1433 84.2281 10.1443C82.8134 8.80131 80.1735 8.16076 78.3016 7.24983C78.3046 7.26679 78.3086 7.28475 78.3127 7.30171C77.8041 6.74597 75.8313 6.23413 75.4246 5.99766C73.476 5.07475 71.4709 4.3015 69.4254 3.63401C66.7159 2.55046 63.8853 1.71336 61.0012 1.26138C59.7953 0.959064 58.5743 0.756523 57.3331 0.679697C56.0202 0.347449 54.6791 0.272618 53.336 0.220735C52.1805 0.0730696 51.021 0.0161983 49.8565 0.0660854C48.9816 -0.0745962 48.0946 0.0471283 47.2308 0.0860402C47.2439 0.079056 47.256 0.0720718 47.2701 0.0650876C47.0461 0.00422538 46.8271 0.0311644 46.6092 0.0950199C46.3831 0.0401441 46.1611 0.0351554 45.9472 0.1479C45.8473 0.148898 45.7484 0.149896 45.6495 0.151891C45.3003 0.0690786 44.9572 0.0860402 44.6202 0.210758C43.7927 0.180826 42.9693 0.22772 42.1559 0.397336C40.9399 0.459196 39.7361 0.612848 38.5473 0.888225C37.8046 0.917159 37.0851 1.15063 36.3868 1.33521C36.41 1.32224 36.4342 1.31326 36.4594 1.30927C36.2223 1.25739 36.0225 1.36415 35.8237 1.46891C35.6421 1.55571 35.4624 1.65349 35.2495 1.60061C35.2223 1.60261 35.197 1.6066 35.1738 1.61059C34.5219 1.6954 33.8902 1.86102 33.2827 2.12143C33.2827 2.12243 33.2827 2.12343 33.2817 2.12542C33.0083 2.07753 32.7873 2.22121 32.5572 2.32996C32.2151 2.34892 31.9073 2.47663 31.6106 2.64026C31.6237 2.6672 31.6227 2.70411 31.6167 2.74402C31.6116 2.71509 31.6096 2.68117 31.6106 2.64026C30.769 2.86176 29.9446 3.13314 29.1635 3.52625C28.8729 3.59909 28.6489 3.69787 28.4773 3.80762C26.6881 4.45615 24.9858 5.32518 23.347 6.27803C22.9716 6.45662 22.5649 6.58234 22.2773 6.91458C22.2389 6.91458 22.2097 6.92955 22.1875 6.96048C20.5275 7.88938 18.9805 8.9829 17.5465 10.2401C17.6454 10.244 17.6939 10.277 17.7171 10.3229C17.0541 10.1104 15.277 12.2745 14.7462 12.6576C14.7533 12.6716 14.7604 12.6835 14.7674 12.6965C14.4758 12.8462 14.2084 13.0716 14.0863 13.2752C13.7977 13.4817 13.5454 13.7252 13.3375 14.0165C12.7815 14.4625 12.3102 14.9923 11.8692 15.551C10.0528 17.4517 8.45941 19.526 7.11526 21.7979C5.86496 23.7156 4.77512 25.722 3.90626 27.8472C3.93351 27.8602 3.96681 27.8771 4.00314 27.8971C3.64894 28.1675 3.28969 29.0206 3.19483 29.5653C3.17768 29.6092 3.16052 29.6521 3.14438 29.696C2.40066 31.4401 1.84665 33.245 1.43897 35.0988C1.43897 35.0998 1.43897 35.1008 1.43897 35.1018C1.2876 35.437 1.21292 35.7922 1.18971 36.1594C1.20384 36.1534 1.21393 36.1464 1.22705 36.1394C0.959634 37.227 0.59837 38.3145 0.574151 39.4639C0.230041 41.2379 0.0928009 43.0318 0.0716093 44.8358V44.8368C-0.0121476 45.2069 -0.0222388 45.5781 0.0403266 45.9522C-0.0827859 49.2428 0.171512 52.5633 0.764874 55.8029C1.0999 56.7588 0.833495 59.0725 1.75078 59.5604C1.67611 59.5674 1.59942 59.5724 1.52272 59.5704C1.4763 59.7999 1.57822 59.9915 1.6751 60.184L1.67914 60.18C1.68519 60.619 1.81537 61.0281 1.98389 61.4272C1.99095 61.4082 1.99802 61.3893 2.00508 61.3703C2.10499 61.967 2.17663 62.5726 2.47836 63.1164C2.4935 63.0795 2.49955 63.0415 2.50258 63.0046C2.5046 63.0406 2.49955 63.0765 2.47836 63.1164C3.24832 65.947 4.31798 68.6618 5.56526 71.3058C5.5925 71.4326 5.63589 71.5373 5.6914 71.6301C5.86295 72.2118 6.11724 72.7536 6.46035 73.2554C6.47145 73.2854 6.48759 73.3123 6.50576 73.3363C6.50273 73.3363 6.50071 73.3363 6.49768 73.3363C7.12132 74.759 7.7944 76.1549 8.66123 77.4469C8.66628 77.445 8.67032 77.4439 8.67536 77.442C8.69454 77.4998 8.72279 77.5657 8.76517 77.6425C9.26267 78.8168 10.0528 79.7687 10.8056 80.7275C10.7733 80.7255 10.742 80.7235 10.7077 80.7235C11.4333 81.9288 12.2648 83.0523 13.1992 84.0979C13.3304 84.2615 13.4636 84.4261 13.5968 84.5918C13.5958 84.5918 13.5948 84.5908 13.5928 84.5908C13.7058 84.8183 13.8602 85.0068 14.06 85.1575C14.8411 86.1014 15.6686 87.0382 16.5788 87.8634C18.0592 89.6364 19.8493 90.9554 21.687 92.2036C21.6012 92.1936 21.5144 92.1876 21.4236 92.1856C22.4498 93.0845 23.5286 93.9097 24.683 94.632C25.1129 95.0471 25.8778 95.4761 26.12 95.6148C26.7164 96.0848 27.3501 96.4918 28.0262 96.8331C28.0262 96.8321 28.0262 96.8311 28.0262 96.8291C28.659 97.3429 29.4178 97.7141 30.1303 98.1042C30.9244 98.618 31.7549 99.061 32.6228 99.4342C32.8862 99.6387 33.1768 99.7874 33.4997 99.8702C33.6551 99.9959 33.9841 100.202 34.194 100.189C34.195 100.194 34.196 100.2 34.198 100.206C34.3968 100.347 34.6662 100.494 34.9357 100.563C35.3091 100.783 35.6935 100.976 36.1103 101.099C37.5584 101.784 39.0478 102.358 40.5746 102.834C43.4839 103.836 46.4457 104.711 49.5033 105.105C49.4438 105.073 49.3994 105.03 49.3651 104.98C49.4115 105.021 49.4579 105.062 49.5033 105.105C50.46 105.322 51.4287 105.444 52.4066 105.504C56.1282 106.078 60.0062 106.092 63.7158 105.857C63.9317 105.906 64.1477 105.86 64.3616 105.829C64.3576 105.824 64.3535 105.819 64.3485 105.814C64.4373 105.807 64.5271 105.801 64.6159 105.794C65.3627 105.702 67.0771 105.816 68.1741 105.499C69.5889 105.423 70.9824 105.202 72.3629 104.885C73.0804 104.814 73.7817 104.661 74.4689 104.44C74.2712 104.291 74.2742 104.189 74.368 104.104C74.7404 105.434 84.9779 100.731 86.1344 99.9001C86.8266 99.4053 91.6553 97.1913 91.4474 96.1925C91.5059 96.2743 91.5009 96.401 91.3838 96.6026C91.6512 96.4759 91.9065 96.3322 92.0962 96.0937C92.291 96.0229 92.3748 95.9271 92.399 95.8164C92.401 95.8293 92.403 95.8433 92.405 95.8573C92.4706 95.8104 92.5352 95.7635 92.5998 95.7166C92.5927 95.7026 92.5857 95.6877 92.5786 95.6737C92.6987 95.7146 92.8248 95.6617 92.9258 95.4552L92.9691 95.4392L92.9974 95.4023C93.6119 95.0182 94.169 94.5602 94.6856 94.0514C94.9541 93.8967 95.1963 93.7121 95.3779 93.4547C96.0258 92.9788 96.6171 92.44 97.1671 91.8543C97.2135 91.8224 97.2559 91.7765 97.2872 91.7286C97.5263 91.5949 97.7241 91.4173 97.8654 91.1789C98.6313 90.5323 99.3316 89.816 100.018 89.0836C100.982 88.1956 101.81 87.1819 102.642 86.1722C102.585 86.1762 102.538 86.1772 102.497 86.1752C103.344 85.9198 110.16 76.3355 110.271 75.657C111.015 74.4797 112.531 72.9022 112.575 71.5453C112.606 71.6171 112.634 71.69 112.683 71.7419C113.172 70.8249 114.937 68.0083 114.618 67.1682C114.68 67.1762 114.743 67.1842 114.806 67.1892C115.164 66.4129 115.44 65.6087 115.61 64.7686C115.644 64.6519 115.677 64.5362 115.713 64.4184C115.744 64.3037 115.776 64.19 115.808 64.0752C116.54 61.541 117.201 58.9438 117.4 56.3118C117.359 55.758 117.716 55.2592 117.619 54.6974C117.701 54.3682 117.744 54.0359 117.705 53.6967C117.789 53.1739 117.815 52.6531 117.795 52.1292ZM2.56817 51.0497C2.55707 51.0347 2.54799 51.0198 2.54496 51.0038C2.56212 51.0038 2.57725 51.0018 2.59239 50.9998C2.58331 51.0148 2.57624 51.0317 2.56817 51.0497ZM4.62072 28.389C4.61164 28.3531 4.60155 28.3191 4.59246 28.2872C4.61971 28.3291 4.64393 28.371 4.66411 28.4119C4.64998 28.4039 4.63586 28.396 4.62072 28.389ZM4.8286 56.2389C4.88612 56.235 4.94263 56.236 4.99813 56.2439C4.94263 56.2569 4.88713 56.2579 4.8286 56.2389ZM5.27059 29.8457C5.26958 29.8417 5.26857 29.8377 5.26757 29.8337C5.27665 29.8387 5.28573 29.8427 5.29481 29.8477C5.28674 29.8467 5.27766 29.8467 5.27059 29.8457ZM5.59553 29.686C5.59654 29.685 5.59654 29.684 5.59755 29.6831C5.59856 29.684 5.59856 29.685 5.59957 29.687C5.59856 29.686 5.59654 29.686 5.59553 29.686ZM6.10312 26.3985C6.09908 26.3845 6.09504 26.3715 6.09202 26.3586C6.10211 26.3676 6.11321 26.3795 6.12431 26.3895C6.11624 26.3925 6.10917 26.3955 6.10312 26.3985ZM6.87711 29.2161C6.87711 29.2151 6.87711 29.2151 6.87711 29.2161C6.87812 29.2161 6.87711 29.2161 6.87711 29.2161ZM7.07389 42.3643C7.07389 42.3643 7.07389 42.3634 7.07389 42.3624C7.0749 42.3604 7.07591 42.3584 7.07692 42.3574C7.07591 42.3604 7.0749 42.3624 7.07389 42.3643ZM89.6199 16.5468C89.6219 16.5468 89.6249 16.5478 89.6269 16.5488C89.6249 16.5498 89.6239 16.5508 89.6219 16.5528C89.6219 16.5518 89.6209 16.5498 89.6199 16.5468ZM89.2334 21.5425C89.2071 21.5345 89.1829 21.5215 89.1607 21.5066C89.1859 21.5175 89.2102 21.5295 89.2334 21.5425ZM83.5672 14.3118C83.5793 14.3118 83.5904 14.3088 83.6025 14.3059C83.6005 14.3138 83.5984 14.3218 83.5964 14.3298C83.5853 14.3248 83.5763 14.3188 83.5672 14.3118ZM83.0404 12.8771C83.0576 12.8831 83.0767 12.8871 83.0979 12.8911C83.0989 12.897 83.102 12.903 83.104 12.91C83.0828 12.912 83.0616 12.913 83.0384 12.912C83.0434 12.908 83.0495 12.905 83.0545 12.901C83.0495 12.8931 83.0455 12.8851 83.0404 12.8771ZM79.4368 11.8354C79.4379 11.8374 79.4389 11.8394 79.4399 11.8404C79.4389 11.8424 79.4379 11.8454 79.4358 11.8474C79.4338 11.8464 79.4318 11.8464 79.4298 11.8454C79.4318 11.8414 79.4348 11.8384 79.4368 11.8354ZM78.2764 9.15551C78.2743 9.23034 78.2491 9.28921 78.1825 9.32114C78.1805 9.32213 78.1775 9.32313 78.1744 9.32513C78.2138 9.27125 78.2471 9.21438 78.2764 9.15551ZM72.257 6.96048C72.264 7.01735 72.2721 7.06923 72.2802 7.11812C72.256 7.06425 72.2469 7.01037 72.257 6.96048ZM58.5198 2.22221C58.5249 2.24914 58.5329 2.27309 58.541 2.29704C58.4855 2.28007 58.431 2.26611 58.3755 2.25314C58.427 2.24316 58.4764 2.23218 58.5198 2.22221ZM45.8776 1.00496C45.8796 1.00696 45.8816 1.00895 45.8826 1.01095C45.8816 1.01095 45.8796 1.01294 45.8776 1.01294C45.8776 1.01095 45.8776 1.00895 45.8776 1.00496ZM43.1217 1.16161C43.0944 1.16659 43.0672 1.16859 43.0399 1.16959C43.051 1.09775 43.0823 1.11371 43.1217 1.16161ZM13.7926 13.9108C13.7906 13.9137 13.7876 13.9177 13.7855 13.9207C13.7805 13.9147 13.7765 13.9088 13.7704 13.9028C13.7785 13.9058 13.7866 13.9078 13.7926 13.9108ZM12.5675 16.3542C12.5504 16.3582 12.5322 16.3602 12.513 16.3572C12.511 16.3532 12.509 16.3502 12.507 16.3462C12.5272 16.3492 12.5474 16.3512 12.5675 16.3542ZM7.26966 49.4353C7.26865 49.4084 7.26865 49.3805 7.26865 49.3525C7.28076 49.3615 7.29388 49.3715 7.30801 49.3805C7.29388 49.3994 7.28177 49.4174 7.26966 49.4353ZM7.75807 47.7322C7.75807 47.7212 7.75706 47.7112 7.75605 47.7003C7.76009 47.6713 7.7611 47.6424 7.75908 47.6125C7.76211 47.6125 7.76615 47.6125 7.76917 47.6125C7.77018 47.6524 7.76514 47.6923 7.75807 47.7322ZM9.03158 45.0922C9.03057 45.0902 9.03057 45.0862 9.02956 45.0832C9.03158 45.0852 9.03461 45.0862 9.03663 45.0882C9.03461 45.0902 9.0336 45.0912 9.03158 45.0922ZM10.1386 46.3763C10.1467 46.3793 10.1547 46.3833 10.1628 46.3862C10.1588 46.3872 10.1547 46.3902 10.1507 46.3912C10.1477 46.3862 10.1426 46.3823 10.1386 46.3763ZM10.1557 48.4186C10.1547 48.4186 10.1547 48.4186 10.1557 48.4186C10.1668 48.4067 10.1789 48.3957 10.1921 48.3837C10.1789 48.4007 10.1668 48.4127 10.1557 48.4186ZM10.5665 49.5212C10.5806 49.4902 10.5947 49.4603 10.6098 49.4304C10.6189 49.4553 10.628 49.4802 10.6371 49.5042C10.6149 49.5062 10.5907 49.5122 10.5665 49.5212ZM11.3364 46.8512C11.3344 46.8302 11.3324 46.8103 11.3293 46.7903C11.3445 46.7983 11.3586 46.8063 11.3727 46.8153C11.3606 46.8263 11.3485 46.8382 11.3364 46.8512ZM11.5947 48.7858C11.5978 48.7878 11.6008 48.7908 11.6038 48.7928C11.6109 48.8207 11.619 48.8307 11.6341 48.8167C11.6513 48.8307 11.6684 48.8447 11.6856 48.8596C11.6876 48.9055 11.6866 48.9624 11.6946 48.9943C11.6634 48.9145 11.6291 48.8457 11.5947 48.7858ZM12.285 47.1854C12.2638 47.1814 12.2436 47.1745 12.2244 47.1655C12.2456 47.1665 12.2658 47.1675 12.287 47.1675C12.289 47.1755 12.291 47.1834 12.2931 47.1904C12.289 47.1884 12.288 47.1854 12.285 47.1854ZM12.5817 56.2918C12.5817 56.2908 12.5817 56.2898 12.5817 56.2888C12.5877 56.2888 12.5928 56.2898 12.5988 56.2908C12.5938 56.2918 12.5877 56.2918 12.5817 56.2918ZM12.6886 78.8637C12.6886 78.8597 12.6876 78.8558 12.6876 78.8518C12.6886 78.8558 12.6917 78.8587 12.6937 78.8617C12.6917 78.8637 12.6906 78.8637 12.6886 78.8637ZM12.8329 62.41C12.8148 62.3641 12.7956 62.3222 12.7754 62.2823C12.838 62.3142 12.8481 62.3581 12.8329 62.41ZM12.9762 47.7162C12.9611 47.7093 12.946 47.7043 12.9298 47.7013C12.9298 47.7003 12.9298 47.6993 12.9298 47.6983C12.9449 47.7033 12.9611 47.7053 12.9762 47.7093C12.9762 47.7113 12.9762 47.7142 12.9762 47.7162ZM15.6363 73.9189C15.6342 73.9169 15.6322 73.9149 15.6292 73.9129C15.6322 73.9149 15.6363 73.9169 15.6393 73.9189C15.6393 73.9189 15.6373 73.9189 15.6363 73.9189ZM18.1924 76.0711C18.1934 76.0691 18.1944 76.0681 18.1954 76.0661C18.1954 76.0681 18.1954 76.0691 18.1954 76.0701C18.1954 76.0701 18.1944 76.0711 18.1924 76.0711ZM18.5435 86.4845C18.5052 86.4316 18.4971 86.3727 18.5688 86.3079C18.5587 86.3608 18.5536 86.4226 18.5435 86.4845ZM18.8412 77.7932C18.8352 77.7952 18.8311 77.7962 18.8251 77.7981C18.811 77.7223 18.8029 77.6655 18.7928 77.6245C18.8099 77.6335 18.8271 77.6455 18.8433 77.6615C18.9109 77.7004 18.9149 77.7712 18.8412 77.7932ZM21.468 82.8846C21.4559 82.8916 21.4468 82.9026 21.4377 82.9116C21.4286 82.8547 21.4195 82.7998 21.4094 82.745C21.4387 82.7918 21.467 82.8397 21.4942 82.8886C21.4851 82.8866 21.4771 82.8866 21.468 82.8846ZM22.5699 82.269C22.5407 82.2291 22.5195 82.1912 22.5033 82.1553C22.5084 82.1553 22.5134 82.1563 22.5185 82.1563C22.5195 82.1553 22.5205 82.1533 22.5215 82.1523C22.5336 82.1892 22.5497 82.2291 22.5699 82.269ZM23.8081 91.8334C23.8566 91.8184 23.905 91.8025 23.9534 91.7855C23.9171 91.8244 23.8586 91.8434 23.8081 91.8334ZM41.4657 99.8163C41.4657 99.8123 41.4657 99.8083 41.4657 99.8033C41.4687 99.8053 41.4728 99.8083 41.4768 99.8113C41.4728 99.8133 41.4687 99.8153 41.4657 99.8163ZM47.7687 101.625C47.7666 101.623 47.7636 101.621 47.7616 101.619C47.7646 101.619 47.7676 101.619 47.7717 101.619C47.7707 101.622 47.7697 101.624 47.7687 101.625ZM49.025 101.108C49.02 101.095 49.0129 101.082 49.0068 101.069C49.0079 101.068 49.0089 101.068 49.0099 101.067C49.0169 101.081 49.025 101.095 49.0341 101.107C49.0321 101.108 49.028 101.108 49.025 101.108ZM65.1013 104.735C65.1063 104.722 65.1104 104.706 65.1134 104.688C65.1184 104.708 65.1245 104.726 65.1316 104.743C65.1215 104.741 65.1114 104.739 65.1013 104.735ZM69.1469 104.675C69.1539 104.633 69.1569 104.59 69.1569 104.544C69.168 104.548 69.1791 104.553 69.1902 104.556C69.1862 104.617 69.1701 104.653 69.1469 104.675ZM71.7524 102.793C71.7827 102.74 71.8109 102.687 71.8372 102.63C71.824 102.693 71.7938 102.746 71.7524 102.793ZM73.1036 102.529C73.1036 102.525 73.1036 102.522 73.1036 102.519C73.1137 102.52 73.1238 102.521 73.1329 102.523C73.1218 102.525 73.1137 102.527 73.1036 102.529ZM90.2637 23.4392C90.2526 23.4332 90.2415 23.4282 90.2304 23.4222C90.2516 23.4112 90.2778 23.3993 90.299 23.3893C90.302 23.3893 90.3051 23.3893 90.3081 23.3903C90.2899 23.4063 90.2758 23.4232 90.2637 23.4392ZM92.8147 19.0371C92.8087 19.0332 92.8016 19.0282 92.7956 19.0232C92.7865 19.0042 92.7784 18.9863 92.7703 18.9683C92.7885 18.9903 92.8067 19.0132 92.8238 19.0361C92.8208 19.0371 92.8178 19.0371 92.8147 19.0371ZM93.3001 21.3769C93.282 21.304 93.289 21.2581 93.3576 21.2641C93.3385 21.302 93.3193 21.3389 93.3001 21.3769ZM95.7392 22.4704C95.7392 22.4724 95.7372 22.4754 95.7372 22.4784C95.7271 22.4724 95.718 22.4654 95.7099 22.4584C95.7139 22.4574 95.716 22.4544 95.718 22.4524C95.7261 22.4584 95.7351 22.4644 95.7432 22.4684C95.7422 22.4694 95.7402 22.4704 95.7392 22.4704ZM95.6655 20.1596C95.6867 20.1516 95.7089 20.1416 95.7301 20.1327C95.7412 20.1496 95.7523 20.1666 95.7614 20.1836C95.7261 20.1666 95.6927 20.1596 95.6655 20.1596ZM95.8915 23.3873C95.8875 23.3813 95.8835 23.3743 95.8794 23.3673C95.8845 23.3644 95.8905 23.3614 95.8956 23.3574C95.8936 23.3673 95.8926 23.3783 95.8915 23.3873ZM96.5202 18.3507C96.4879 18.3347 96.4597 18.3218 96.4345 18.3128C96.4627 18.2958 96.494 18.2809 96.5293 18.2709C96.5253 18.2988 96.5222 18.3248 96.5202 18.3507ZM97.606 24.7402C97.6353 24.7193 97.6605 24.6983 97.6837 24.6764C97.6959 24.7183 97.714 24.7582 97.7382 24.7981C97.6918 24.7811 97.6474 24.7632 97.606 24.7402ZM102.044 26.1411C102.031 26.1391 102.02 26.1371 102.007 26.1361C102.013 26.1291 102.017 26.1231 102.023 26.1161C102.031 26.1231 102.038 26.1311 102.045 26.1391C102.045 26.1401 102.045 26.1401 102.044 26.1411ZM102.432 86.1672C102.213 86.1363 102.317 85.9916 102.474 85.814C102.401 86.0215 102.39 86.1353 102.432 86.1672ZM103.003 22.7807C103.038 22.7278 103.069 22.6749 103.099 22.619C103.132 22.6989 103.078 22.7418 103.003 22.7807ZM103.488 31.7773C103.501 31.7643 103.514 31.7504 103.53 31.7364C103.542 31.7494 103.552 31.7653 103.561 31.7843C103.536 31.7813 103.512 31.7793 103.488 31.7773ZM103.822 29.0096C103.827 29.0036 103.83 28.9986 103.834 28.9926C103.869 29.0206 103.904 29.0485 103.939 29.0754C103.9 29.0655 103.862 29.0445 103.822 29.0096ZM107.553 29.9674C107.577 29.9704 107.604 29.9714 107.636 29.9694C107.603 29.9953 107.576 29.9924 107.553 29.9674ZM108.009 36.9606C108.01 36.9466 108.01 36.9336 108.009 36.9217C108.022 36.9237 108.033 36.9267 108.046 36.9287C108.033 36.9396 108.021 36.9506 108.009 36.9606ZM108.697 46.509C108.694 46.509 108.691 46.509 108.689 46.508C108.676 46.488 108.663 46.4681 108.649 46.4491C108.679 46.4541 108.71 46.4551 108.741 46.4531C108.727 46.4711 108.711 46.49 108.697 46.509ZM108.897 30.3186C108.989 30.3725 109.081 30.4274 109.171 30.4792C109.043 30.4393 108.947 30.3865 108.897 30.3186ZM109.26 73.0339C109.26 73.019 109.259 73.006 109.258 72.992C109.263 72.994 109.269 72.996 109.275 72.999C109.271 73.01 109.265 73.022 109.26 73.0339ZM109.943 38.0491C109.942 38.0491 109.942 38.0491 109.941 38.0481V38.0491C109.941 38.0491 109.942 38.0501 109.943 38.0491C109.942 38.0531 109.942 38.0561 109.941 38.0581C109.941 38.0551 109.941 38.0521 109.941 38.0491C109.939 38.0491 109.939 38.0491 109.938 38.0481V38.0471C109.939 38.0471 109.939 38.0471 109.941 38.0481C109.942 38.0481 109.943 38.0471 109.944 38.0461C109.944 38.0471 109.943 38.0481 109.943 38.0491ZM110.776 43.4858C110.775 43.4808 110.774 43.4758 110.773 43.4718C110.776 43.4738 110.779 43.4768 110.783 43.4798C110.78 43.4818 110.778 43.4838 110.776 43.4858ZM110.842 38.9601C110.859 38.9481 110.876 38.9381 110.893 38.9261C110.895 38.9351 110.9 38.9441 110.904 38.9531C110.884 38.9551 110.864 38.9571 110.842 38.9601ZM111.1 64.1191C111.097 64.1191 111.093 64.1191 111.09 64.1191C111.094 64.1181 111.097 64.1181 111.101 64.1181C111.1 64.1171 111.101 64.1181 111.1 64.1191ZM111.165 51.0038C111.164 51.0008 111.163 50.9978 111.161 50.9948C111.161 50.9948 111.16 50.9948 111.159 50.9958C111.162 50.9729 111.163 50.9509 111.163 50.931C111.17 50.935 111.177 50.9389 111.184 50.9429C111.178 50.9619 111.172 50.9818 111.165 51.0038ZM111.531 57.1409C111.535 57.1439 111.54 57.1469 111.545 57.1499C111.545 57.1539 111.546 57.1579 111.547 57.1619C111.542 57.1549 111.536 57.1479 111.531 57.1409ZM111.588 53.2377C111.588 53.2367 111.588 53.2347 111.587 53.2337C111.588 53.2357 111.59 53.2387 111.591 53.2407C111.59 53.2397 111.589 53.2387 111.588 53.2377ZM112.343 54.1776C112.326 54.1736 112.308 54.1706 112.289 54.1686C112.295 54.1447 112.301 54.1207 112.308 54.0968C112.318 54.1158 112.329 54.1357 112.343 54.1567C112.344 54.1557 112.346 54.1547 112.348 54.1537C112.345 54.1617 112.344 54.1696 112.343 54.1776ZM112.621 54.9169C112.621 54.907 112.621 54.896 112.621 54.885C112.632 54.893 112.643 54.9 112.654 54.908C112.643 54.91 112.633 54.9139 112.621 54.9169ZM112.831 58.4709C112.824 58.4599 112.818 58.4479 112.811 58.435C112.824 58.442 112.835 58.4499 112.848 58.4559C112.843 58.4609 112.836 58.4659 112.831 58.4709ZM113.581 33.2021C113.581 33.2011 113.581 33.2011 113.581 33.2001C113.581 33.2001 113.582 33.2001 113.583 33.2001C113.582 33.2001 113.582 33.2011 113.581 33.2021ZM114.28 32.5975C114.297 32.5705 114.307 32.5386 114.311 32.5007C114.323 32.5306 114.334 32.5615 114.346 32.5915C114.321 32.5965 114.299 32.5985 114.28 32.5975ZM114.628 47.0717C114.628 47.0697 114.628 47.0687 114.628 47.0667C114.628 47.0677 114.628 47.0697 114.628 47.0717ZM114.633 47.0268C114.636 47.0118 114.64 46.9979 114.646 46.9839C114.622 46.9659 114.602 46.948 114.581 46.929C114.624 46.946 114.667 46.9629 114.709 46.9809C114.685 46.9929 114.66 47.0078 114.633 47.0268ZM116.079 41.8635C116.086 41.8246 116.091 41.7857 116.093 41.7477C116.119 41.7418 116.141 41.7418 116.16 41.7448C116.133 41.7857 116.106 41.8246 116.079 41.8635ZM116.343 41.3796C116.339 41.3506 116.344 41.3247 116.365 41.3008C116.359 41.3277 116.351 41.3536 116.343 41.3796ZM116.793 40.1334C116.784 40.1284 116.775 40.1244 116.767 40.1194C116.776 40.1184 116.785 40.1174 116.794 40.1164C116.793 40.1224 116.793 40.1274 116.793 40.1334ZM117.495 44.2092C117.46 44.1603 117.424 44.1194 117.385 44.0845C117.453 44.0286 117.525 43.9577 117.601 43.867C117.566 43.9897 117.527 44.1044 117.495 44.2092Z" fill="#95deee"/>
</svg>

