<svg width="119" height="109" viewBox="0 0 119 109" fill="none" xmlns="http://www.w3.org/2000/svg" id="separator__icon">
<path d="M1.41191 48.9898C1.27184 49.8591 0.390534 54.4425 0.740916 56.3458C0.741608 57.2173 0.542303 59.272 0.842947 60.3781C0.85846 61.6372 1.00639 62.8804 1.25792 64.112C1.27775 64.1872 1.30069 64.2617 1.32484 64.3343C1.32202 64.332 1.31922 64.3297 1.3155 64.3264C1.52397 66.0169 2.14938 67.6761 2.94036 69.1915C3.19994 70.2926 4.9313 72.9263 5.22682 73.4273C5.7371 74.385 6.3381 75.2777 7.0536 76.0906C7.13127 76.1857 7.20984 76.2818 7.28752 76.3768C7.38635 76.7257 7.58375 76.901 7.8305 76.9989C7.80801 77.0007 7.78462 77.0014 7.76133 77.001C8.27949 77.739 8.84782 78.4318 9.50505 79.0473C9.49047 79.0108 9.48373 78.977 9.4819 78.9447C9.65407 79.664 10.8339 80.3671 11.3144 80.8646L11.4822 80.9607C11.8527 81.3308 12.1355 81.7974 12.6175 82.0474C12.6819 82.103 12.7462 82.1596 12.8106 82.2152C12.8174 82.2079 12.8212 82.2002 12.8259 82.1937C12.8977 82.3273 12.9662 82.5036 13.1673 82.5108C14.6936 83.8945 16.3101 85.1579 18.0141 86.3068C18.2195 86.4738 18.3923 86.6917 18.6776 86.7294C18.6838 86.718 18.6898 86.7086 18.696 86.6972C18.9155 87.0772 19.6586 87.6251 20.1109 87.6856C20.0887 87.6944 20.0657 87.7021 20.0416 87.7097C21.1005 88.506 22.2085 89.228 23.348 89.899C23.3695 89.9172 23.3962 89.9339 23.4303 89.9484C24.2248 90.3481 25.3979 91.6231 26.218 91.516C26.1903 91.5593 26.1542 91.5958 26.109 91.6223C27.5545 92.5587 29.038 93.4297 30.536 94.2772C30.5615 94.2256 30.5858 94.1749 30.6113 94.1233C30.6124 94.1224 30.6136 94.1205 30.6147 94.1196C31.8882 95.5972 34.4508 96.4985 36.2223 97.5919C36.221 97.5747 36.2187 97.5565 36.2164 97.5392C36.6669 98.143 38.5787 98.8495 38.9597 99.1254C40.8063 100.238 42.7241 101.208 44.6926 102.077C47.2802 103.426 50.013 104.542 52.8374 105.28C54.0071 105.701 55.2017 106.024 56.4291 106.225C57.7021 106.687 59.0291 106.895 60.3603 107.081C61.4952 107.344 62.6432 107.516 63.8069 107.583C64.6633 107.81 65.5581 107.778 66.4214 107.825C66.4077 107.831 66.3949 107.837 66.3802 107.842C66.597 107.925 66.8176 107.92 67.0408 107.879C67.2603 107.956 67.4807 107.983 67.7048 107.892C67.8043 107.901 67.9028 107.91 68.0014 107.918C68.3405 108.035 68.6836 108.053 69.0314 107.962C69.8518 108.075 70.6758 108.11 71.502 108.023C72.7181 108.083 73.9313 108.05 75.1416 107.895C75.8835 107.941 76.6227 107.78 77.336 107.666C77.3116 107.677 77.2866 107.683 77.2611 107.685C77.4919 107.76 77.7013 107.674 77.9096 107.59C78.099 107.521 78.2875 107.442 78.4941 107.516C78.5214 107.517 78.5469 107.515 78.5704 107.514C79.2275 107.494 79.8726 107.393 80.5031 107.194C80.5032 107.193 80.5033 107.192 80.5045 107.19C80.7718 107.265 81.006 107.145 81.2458 107.059C81.5881 107.075 81.9071 106.978 82.2187 106.845C82.2083 106.817 82.213 106.781 82.223 106.741C82.2251 106.771 82.2238 106.805 82.2187 106.845C83.0782 106.709 83.9256 106.521 84.7421 106.208C85.0385 106.165 85.2713 106.089 85.453 105.997C87.298 105.53 89.0787 104.836 90.8046 104.052C91.1959 103.911 91.6131 103.827 91.9325 103.525C91.9707 103.529 92.0013 103.517 92.0265 103.489C93.771 102.73 95.4195 101.797 96.972 100.689C96.874 100.675 96.829 100.638 96.8105 100.59C97.449 100.868 99.4334 98.8919 99.9999 98.5637C99.9942 98.5491 99.9884 98.5365 99.9827 98.5229C100.288 98.4031 100.576 98.2055 100.718 98.0152C101.026 97.8385 101.301 97.6215 101.537 97.3524C102.135 96.9642 102.657 96.4842 103.152 95.9723C105.149 94.2627 106.942 92.358 108.506 90.2319C109.942 88.4488 111.227 86.5613 112.304 84.5336C112.278 84.518 112.247 84.4978 112.212 84.4743C112.592 84.2407 113.035 83.4278 113.183 82.8952C113.205 82.8533 113.226 82.8123 113.247 82.7702C114.161 81.1093 114.893 79.3687 115.484 77.565C115.484 77.564 115.484 77.563 115.484 77.562C115.668 77.2436 115.778 76.8976 115.838 76.5346C115.823 76.5391 115.812 76.5451 115.798 76.5507C116.173 75.4954 116.641 74.4494 116.78 73.3082C117.3 71.5774 117.616 69.8062 117.817 68.0134L117.817 68.0125C117.938 67.6525 117.985 67.2842 117.96 66.9057C118.411 63.6439 118.49 60.3146 118.224 57.0319C117.986 56.0474 118.482 53.7718 117.618 53.1947C117.693 53.1952 117.77 53.1979 117.846 53.2075C117.915 52.9838 117.833 52.7831 117.756 52.5818L117.751 52.5853C117.789 52.1479 117.701 51.7279 117.573 51.3139C117.564 51.3321 117.555 51.3503 117.546 51.3684C117.506 50.7648 117.496 50.155 117.25 49.5838C117.231 49.619 117.221 49.6561 117.214 49.6926C117.216 49.6566 117.225 49.6214 117.25 49.5838C116.767 46.6904 115.974 43.8823 114.997 41.1268C114.982 40.998 114.95 40.8894 114.904 40.7916C114.791 40.1956 114.592 39.6312 114.301 39.0975C114.293 39.0666 114.28 39.0382 114.264 39.0126C114.267 39.0129 114.269 39.0131 114.272 39.0134C113.794 37.5354 113.264 36.0793 112.53 34.707C112.525 34.7085 112.521 34.7091 112.516 34.7106C112.502 34.6511 112.481 34.5827 112.446 34.502C112.069 33.2839 111.378 32.2578 110.724 31.2285C110.756 31.2337 110.787 31.2389 110.821 31.2423C110.22 29.9705 109.505 28.7696 108.68 27.6358C108.566 27.4599 108.449 27.2828 108.333 27.1046C108.334 27.1047 108.335 27.1058 108.337 27.106C108.248 26.8684 108.113 26.6653 107.929 26.4955C107.246 25.4783 106.517 24.4634 105.693 23.5514C104.398 21.6393 102.748 20.148 101.045 18.7224C101.129 18.7409 101.215 18.7555 101.305 18.7666C100.374 17.7695 99.3828 16.8407 98.3063 16.0066C97.9201 15.5506 97.2019 15.0473 96.9748 14.8851C96.4283 14.3579 95.8385 13.8895 95.1999 13.4824C95.1998 13.4834 95.1997 13.4844 95.1995 13.4864C94.6213 12.9119 93.9033 12.4667 93.2334 12.0074C92.4946 11.4167 91.7125 10.8929 90.8863 10.4349C90.6447 10.2051 90.3704 10.0281 90.0574 9.91341C89.9153 9.77279 89.6086 9.53441 89.3985 9.52634C89.398 9.52127 89.3976 9.51522 89.3962 9.50906C89.2124 9.34921 88.959 9.17634 88.6978 9.08091C88.3483 8.8242 87.985 8.59417 87.5827 8.42941C86.2103 7.60365 84.7856 6.88395 83.3141 6.25681C80.5196 4.9693 77.6601 3.80263 74.6571 3.10488C74.7132 3.1426 74.753 3.19072 74.7821 3.24378C74.74 3.19844 74.698 3.15211 74.6571 3.10488C73.7269 2.79384 72.7752 2.5759 71.8083 2.4176C68.1627 1.47479 64.3055 1.07327 60.591 0.936785C60.381 0.866556 60.1615 0.890637 59.9456 0.900029C59.9491 0.905396 59.9526 0.910763 59.9571 0.916231C59.8681 0.914304 59.7781 0.911287 59.6891 0.909361C58.9369 0.926054 57.2423 0.641513 56.1193 0.846574C54.7039 0.781605 53.2953 0.861708 51.89 1.03942C51.169 1.03819 50.4559 1.11998 49.75 1.27168C49.932 1.43937 49.9188 1.54033 49.8168 1.61633C49.5793 0.255781 38.923 3.91133 37.6893 4.6227C36.951 5.0459 31.9253 6.76617 32.0323 7.78069C31.9822 7.69343 31.9999 7.56786 32.1365 7.37903C31.8578 7.47838 31.5894 7.59582 31.3768 7.81412C31.1759 7.86514 31.083 7.95207 31.0479 8.05984C31.0471 8.04674 31.0465 8.03264 31.0459 8.01854C30.976 8.05864 30.907 8.09884 30.8381 8.13905C30.8437 8.15365 30.8492 8.16925 30.8549 8.18385C30.7395 8.13115 30.6087 8.17115 30.4876 8.36657L30.4429 8.37811L30.4111 8.41202C29.7612 8.7328 29.1612 9.13279 28.5962 9.58745C28.3137 9.7145 28.0543 9.87395 27.8478 10.1119C27.1556 10.5207 26.5134 10.9977 25.9076 11.5255C25.8583 11.5526 25.8115 11.594 25.7756 11.6385C25.5243 11.7477 25.3097 11.9046 25.1453 12.1277C24.3186 12.6945 23.5502 13.3373 22.7942 13.9974C21.7466 14.7846 20.8209 15.7104 19.8926 16.632C19.9493 16.6336 19.9966 16.6374 20.0365 16.6434C19.1686 16.8129 11.4281 25.6679 11.2499 26.3319C10.3922 27.429 8.72642 28.847 8.54662 30.1927C8.52367 30.1182 8.50284 30.0429 8.45883 29.9863C7.88121 30.8499 5.84358 33.476 6.07689 34.3437C6.01544 34.3295 5.95398 34.3153 5.89122 34.304C5.4582 35.0407 5.1027 35.8132 4.85005 36.6321C4.80425 36.7449 4.75955 36.8567 4.71264 36.9703C4.67004 37.0813 4.62654 37.1913 4.58395 37.3023C3.60169 39.7507 2.68444 42.2687 2.22356 44.8677C2.20938 45.4228 1.80408 45.8835 1.84432 46.4521C1.73008 46.7715 1.65369 47.0978 1.65895 47.4392C1.52235 47.951 1.44519 48.4667 1.41191 48.9898ZM115.954 61.5811C115.964 61.5971 115.971 61.6129 115.973 61.6291C115.956 61.6274 115.94 61.6278 115.925 61.6283C115.936 61.6143 115.944 61.5982 115.954 61.5811ZM111.647 83.9232C111.653 83.9598 111.659 83.9946 111.665 84.0273C111.642 83.9828 111.622 83.9387 111.606 83.896C111.619 83.9054 111.633 83.9147 111.647 83.9232ZM114.224 56.1919C114.166 56.1901 114.11 56.1835 114.056 56.17C114.112 56.1626 114.168 56.1672 114.224 56.1919ZM111.146 82.4088C111.147 82.4129 111.147 82.417 111.148 82.421C111.139 82.4152 111.131 82.4103 111.122 82.4044C111.13 82.4062 111.139 82.4071 111.146 82.4088ZM110.807 82.5352C110.806 82.5361 110.806 82.5371 110.804 82.5379C110.804 82.5369 110.804 82.5359 110.803 82.5338C110.804 82.5349 110.806 82.5351 110.807 82.5352ZM109.973 85.7555C109.976 85.7698 109.978 85.7831 109.98 85.7963C109.971 85.7864 109.961 85.7734 109.951 85.7623C109.959 85.7602 109.967 85.7579 109.973 85.7555ZM109.485 82.8747C109.485 82.8756 109.485 82.8756 109.485 82.8747C109.484 82.8746 109.485 82.8747 109.485 82.8747ZM110.603 69.7726C110.603 69.7726 110.603 69.7736 110.603 69.7746C110.602 69.7765 110.6 69.7783 110.599 69.7792C110.601 69.7764 110.602 69.7745 110.603 69.7726ZM25.8899 87.2102C25.8879 87.21 25.885 87.2087 25.8831 87.2076C25.8852 87.2068 25.8863 87.2059 25.8885 87.2041C25.8884 87.2051 25.8892 87.2072 25.8899 87.2102ZM26.7738 82.2782C26.7991 82.2888 26.8219 82.3041 26.8425 82.3212C26.8185 82.3078 26.7956 82.2934 26.7738 82.2782ZM31.6889 90.039C31.6769 90.0378 31.6655 90.0396 31.6532 90.0414C31.656 90.0337 31.6588 90.0259 31.6616 90.0182C31.6721 90.0243 31.6806 90.0311 31.6889 90.039ZM32.0696 91.5192C32.0532 91.5115 32.0345 91.5056 32.0138 91.4995C32.0134 91.4935 32.011 91.4872 32.0097 91.4801C32.0309 91.4802 32.0521 91.4813 32.0751 91.4846C32.0697 91.4881 32.0634 91.4905 32.058 91.494C32.0622 91.5024 32.0654 91.5107 32.0696 91.5192ZM35.551 92.9158C35.5502 92.9137 35.5494 92.9116 35.5485 92.9105C35.5497 92.9086 35.551 92.9058 35.5532 92.904C35.5551 92.9052 35.5571 92.9054 35.5591 92.9066C35.5567 92.9103 35.5533 92.913 35.551 92.9158ZM36.4378 95.6983C36.4473 95.6241 36.4783 95.568 36.5478 95.5429C36.5499 95.5421 36.553 95.5414 36.5562 95.5397C36.5117 95.5894 36.4729 95.6427 36.4378 95.6983ZM42.2077 98.484C42.2064 98.4267 42.2035 98.3743 42.2004 98.3248C42.2191 98.3809 42.2227 98.4354 42.2077 98.484ZM55.4025 104.572C55.4001 104.544 55.3945 104.52 55.3889 104.495C55.4424 104.517 55.4952 104.537 55.5491 104.555C55.4969 104.56 55.4466 104.566 55.4025 104.572ZM67.8597 107.046C67.8579 107.044 67.8561 107.042 67.8553 107.04C67.8563 107.04 67.8585 107.038 67.8605 107.038C67.8603 107.04 67.8601 107.042 67.8597 107.046ZM70.6175 107.166C70.6451 107.164 70.6724 107.164 70.6996 107.166C70.6814 107.237 70.6519 107.218 70.6175 107.166ZM101.074 97.4122C101.076 97.4094 101.08 97.4057 101.082 97.4029C101.086 97.4094 101.09 97.4158 101.095 97.4223C101.088 97.4185 101.08 97.4157 101.074 97.4122ZM102.537 95.1034C102.555 95.1011 102.573 95.1009 102.592 95.1058C102.593 95.11 102.595 95.1132 102.597 95.1174C102.577 95.1124 102.557 95.1084 102.537 95.1034ZM111.115 62.7174C111.113 62.7443 111.111 62.7721 111.108 62.7999C111.097 62.7898 111.085 62.7785 111.071 62.7682C111.087 62.7508 111.101 62.7341 111.115 62.7174ZM110.459 64.3632C110.458 64.3742 110.458 64.3842 110.458 64.3952C110.451 64.4236 110.447 64.4523 110.446 64.4823C110.443 64.482 110.439 64.4816 110.436 64.4813C110.439 64.4414 110.448 64.4022 110.459 64.3632ZM108.928 66.8627C108.929 66.8648 108.928 66.8688 108.929 66.8719C108.927 66.8697 108.924 66.8684 108.922 66.8662C108.925 66.8644 108.926 66.8635 108.928 66.8627ZM107.955 65.4744C107.947 65.4707 107.939 65.4659 107.932 65.4621C107.936 65.4615 107.94 65.4589 107.944 65.4583C107.947 65.4636 107.951 65.4681 107.955 65.4744ZM108.142 63.4406C108.143 63.4407 108.143 63.4407 108.142 63.4406C108.13 63.4514 108.116 63.4611 108.102 63.4717C108.117 63.4561 108.13 63.4454 108.142 63.4406ZM107.843 62.3025C107.826 62.3319 107.809 62.3603 107.791 62.3885C107.785 62.3628 107.778 62.3371 107.771 62.3124C107.794 62.3126 107.818 62.3091 107.843 62.3025ZM106.81 64.8822C106.81 64.9032 106.81 64.9233 106.811 64.9434C106.797 64.934 106.784 64.9246 106.771 64.9143C106.784 64.9046 106.797 64.8939 106.81 64.8822ZM106.747 62.9314C106.744 62.9291 106.741 62.9258 106.738 62.9236C106.734 62.8951 106.727 62.8843 106.711 62.8967C106.695 62.8811 106.679 62.8655 106.664 62.8489C106.666 62.803 106.673 62.7465 106.668 62.7139C106.691 62.7965 106.719 62.8684 106.747 62.9314ZM105.9 64.4548C105.921 64.4609 105.94 64.4698 105.958 64.4807C105.937 64.4776 105.917 64.4746 105.896 64.4725C105.895 64.4643 105.894 64.4562 105.892 64.449C105.896 64.4514 105.897 64.4545 105.9 64.4548ZM106.515 55.3643C106.515 55.3653 106.515 55.3663 106.515 55.3673C106.509 55.3667 106.504 55.3652 106.498 55.3636C106.503 55.3631 106.509 55.3637 106.515 55.3643ZM108.665 32.8948C108.664 32.8987 108.665 32.9028 108.664 32.9068C108.664 32.9027 108.661 32.8994 108.659 32.8963C108.662 32.8945 108.663 32.8946 108.665 32.8948ZM106.876 49.2517C106.89 49.2992 106.905 49.3428 106.921 49.3845C106.862 49.3465 106.856 49.3018 106.876 49.2517ZM105.265 63.8575C105.28 63.866 105.294 63.8725 105.31 63.8771C105.31 63.8781 105.31 63.8791 105.31 63.8801C105.295 63.8736 105.279 63.87 105.264 63.8645C105.265 63.8625 105.265 63.8595 105.265 63.8575ZM105.237 37.5202C105.239 37.5224 105.241 37.5246 105.244 37.5269C105.241 37.5246 105.237 37.5222 105.234 37.5199C105.234 37.5199 105.236 37.5201 105.237 37.5202ZM102.909 35.1234C102.908 35.1252 102.907 35.1261 102.906 35.128C102.906 35.126 102.906 35.125 102.906 35.1241C102.906 35.1241 102.907 35.1232 102.909 35.1234ZM103.601 24.727C103.634 24.7834 103.636 24.8428 103.558 24.9002C103.573 24.8486 103.584 24.7875 103.601 24.727ZM102.436 33.345C102.442 33.3436 102.446 33.3431 102.452 33.3417C102.459 33.4185 102.461 33.4759 102.467 33.5176C102.451 33.507 102.435 33.4934 102.421 33.4759C102.357 33.4304 102.36 33.3595 102.436 33.345ZM100.331 28.0165C100.344 28.0108 100.354 28.0007 100.364 27.9927C100.367 28.0502 100.371 28.1057 100.375 28.1613C100.351 28.1117 100.328 28.0613 100.305 28.0099C100.314 28.0128 100.322 28.0136 100.331 28.0165ZM99.1731 28.5189C99.1983 28.5615 99.2156 28.6014 99.228 28.6387C99.223 28.6382 99.2181 28.6367 99.2131 28.6362C99.212 28.6371 99.2108 28.639 99.2097 28.6399C99.2013 28.6019 99.1892 28.5606 99.1731 28.5189ZM98.8971 18.8787C98.8474 18.8887 98.7976 18.8998 98.7478 18.9118C98.7878 18.8767 98.8479 18.8637 98.8971 18.8787ZM82.1259 9.1708C82.1255 9.17477 82.1251 9.17874 82.1246 9.18371C82.1218 9.18142 82.1181 9.17804 82.1143 9.17465C82.1186 9.17307 82.1228 9.17149 82.1259 9.1708ZM76.0353 6.74096C76.0371 6.74315 76.0399 6.74544 76.0417 6.74763C76.0387 6.74732 76.0357 6.74702 76.0317 6.74662C76.033 6.74374 76.0342 6.74185 76.0353 6.74096ZM74.7336 7.12963C74.7373 7.14304 74.743 7.15665 74.7478 7.17017C74.7467 7.17106 74.7457 7.17096 74.7445 7.17185C74.7389 7.15724 74.7323 7.14254 74.7244 7.12972C74.7265 7.12892 74.7306 7.12933 74.7336 7.12963ZM59.1003 1.91415C59.094 1.92655 59.0884 1.94202 59.0836 1.95959C59.0805 1.93923 59.0763 1.92076 59.071 1.90317C59.0808 1.90617 59.0907 1.90917 59.1003 1.91415ZM55.069 1.56935C55.0578 1.61034 55.0504 1.65372 55.0458 1.69938C55.0352 1.6943 55.0246 1.68823 55.0139 1.68414C55.0241 1.62299 55.0437 1.58887 55.069 1.56935ZM52.2883 3.18223C52.2529 3.23182 52.2195 3.28161 52.1877 3.33558C52.2071 3.27434 52.2425 3.22475 52.2883 3.18223ZM50.9176 3.30926C50.9172 3.31323 50.9169 3.31621 50.9166 3.31919C50.9066 3.31719 50.8967 3.31519 50.8878 3.31229C50.8991 3.31142 50.9073 3.31023 50.9176 3.30926ZM25.9382 80.288C25.9487 80.2951 25.9592 80.3011 25.9697 80.3082C25.9475 80.317 25.9202 80.3263 25.8981 80.3341C25.8951 80.3338 25.8921 80.3335 25.8892 80.3322C25.9088 80.3181 25.9246 80.3027 25.9382 80.288ZM22.96 84.413C22.9656 84.4176 22.9721 84.4233 22.9776 84.4288C22.9848 84.4486 22.991 84.4673 22.9973 84.486C22.9814 84.4623 22.9656 84.4377 22.9508 84.4131C22.9539 84.4124 22.9569 84.4127 22.96 84.413ZM22.7109 82.0365C22.7217 82.1108 22.71 82.1558 22.6424 82.1429C22.6652 82.1071 22.688 82.0723 22.7109 82.0365ZM20.3933 80.7047C20.3935 80.7027 20.3958 80.6999 20.3961 80.6969C20.4056 80.7039 20.4139 80.7118 20.4213 80.7195C20.4171 80.7201 20.4148 80.7229 20.4126 80.7247C20.4052 80.7179 20.3967 80.711 20.3891 80.7063C20.3902 80.7054 20.3923 80.7046 20.3933 80.7047ZM20.2357 83.0112C20.2138 83.0171 20.1907 83.0248 20.1687 83.0316C20.1594 83.0136 20.15 82.9956 20.1427 82.9778C20.1761 82.9982 20.2085 83.0085 20.2357 83.0112ZM20.3334 79.7771C20.3368 79.7835 20.3401 79.7908 20.3434 79.7982C20.3381 79.8007 20.3318 79.803 20.3264 79.8065C20.3294 79.7968 20.3315 79.786 20.3334 79.7771ZM19.2044 84.7257C19.2349 84.7448 19.2618 84.7605 19.286 84.772C19.2562 84.786 19.2235 84.7978 19.1874 84.8042C19.1942 84.7768 19.1998 84.7513 19.2044 84.7257ZM18.7627 78.2596C18.7315 78.2775 18.7043 78.2958 18.679 78.3154C18.6711 78.2725 18.657 78.2309 18.6369 78.1888C18.6814 78.2103 18.7238 78.2326 18.7627 78.2596ZM14.4868 76.4222C14.4997 76.4255 14.5105 76.4286 14.5235 76.4309C14.5167 76.4372 14.5121 76.4428 14.5054 76.4491C14.4981 76.4414 14.4918 76.4327 14.4856 76.4241C14.4857 76.4231 14.4857 76.4231 14.4868 76.4222ZM20.101 16.6579C20.3158 16.7106 20.1979 16.8441 20.0235 17.0051C20.1165 16.8059 20.139 16.6938 20.101 16.6579ZM13.1971 79.6699C13.1566 79.719 13.1202 79.7685 13.0855 79.8212C13.0604 79.7384 13.1179 79.7011 13.1971 79.6699ZM13.6134 70.6698C13.599 70.6814 13.5846 70.694 13.5681 70.7064C13.5573 70.6923 13.5489 70.6754 13.5418 70.6556C13.5666 70.6611 13.5895 70.6654 13.6134 70.6698ZM13.0044 73.3903C12.9987 73.3958 12.9952 73.4004 12.9906 73.406C12.9593 73.3748 12.9269 73.3434 12.8945 73.3131C12.9326 73.327 12.9687 73.3516 13.0044 73.3903ZM9.38807 72.0644C9.36427 72.059 9.33726 72.0553 9.30594 72.0541C9.34066 72.0315 9.36747 72.0372 9.38807 72.0644ZM9.63321 65.0606C9.63081 65.0744 9.62951 65.0873 9.62932 65.0994C9.61647 65.0961 9.60573 65.092 9.59287 65.0887C9.60702 65.0791 9.62016 65.0694 9.63321 65.0606ZM9.90282 55.4913C9.90583 55.4916 9.90884 55.4919 9.91075 55.4931C9.92181 55.5142 9.93287 55.5354 9.94503 55.5557C9.91541 55.5477 9.88438 55.5436 9.85406 55.5425C9.86991 55.5261 9.88686 55.5087 9.90282 55.4913ZM8.08576 71.5806C7.99977 71.5178 7.91388 71.454 7.82971 71.3934C7.95223 71.4458 8.04334 71.5081 8.08576 71.5806ZM11.9938 29.0429C11.9923 29.0578 11.992 29.0708 11.9916 29.0848C11.9868 29.0823 11.9809 29.0797 11.9752 29.0761C11.9803 29.0656 11.9875 29.0543 11.9938 29.0429ZM7.81822 63.7843C7.81922 63.7844 7.81922 63.7844 7.82013 63.7855L7.82023 63.7845C7.82023 63.7845 7.81932 63.7834 7.81822 63.7843C7.81962 63.7804 7.81992 63.7775 7.82112 63.7756C7.82082 63.7785 7.82053 63.7815 7.82023 63.7845C7.82123 63.7846 7.82124 63.7846 7.82214 63.7857L7.82204 63.7867C7.82104 63.7866 7.82103 63.7866 7.82013 63.7855C7.81912 63.7854 7.81802 63.7863 7.81692 63.7872C7.81702 63.7862 7.81812 63.7853 7.81822 63.7843ZM7.53227 58.2915C7.53278 58.2966 7.53328 58.3016 7.53389 58.3057C7.53107 58.3034 7.52836 58.3002 7.52464 58.2968C7.52785 58.2951 7.53006 58.2933 7.53227 58.2915ZM7.01465 62.7881C6.99638 62.7983 6.97831 62.8065 6.96005 62.8167C6.95894 62.8075 6.95482 62.7981 6.9517 62.7888C6.97198 62.7888 6.99226 62.7888 7.01465 62.7881ZM9.2723 37.7292C9.27532 37.7295 9.27933 37.7299 9.28234 37.7302C9.27822 37.7308 9.27522 37.7305 9.2712 37.7301C9.2721 37.7312 9.2712 37.7301 9.2723 37.7292ZM7.89714 50.7724C7.89785 50.7754 7.89855 50.7785 7.90026 50.7817C7.90026 50.7817 7.90127 50.7818 7.90237 50.7809C7.89707 50.8034 7.89386 50.8252 7.89187 50.845C7.88524 50.8403 7.87861 50.8357 7.87198 50.831C7.8799 50.8127 7.88792 50.7935 7.89714 50.7724ZM8.14608 44.6294C8.14236 44.626 8.13764 44.6225 8.13292 44.619C8.13332 44.615 8.13272 44.611 8.13211 44.6069C8.13643 44.6144 8.14176 44.6219 8.14608 44.6294ZM7.69872 48.5072C7.69862 48.5082 7.69842 48.5102 7.69933 48.5113C7.69852 48.5092 7.69681 48.506 7.69601 48.504C7.69691 48.505 7.69782 48.5061 7.69872 48.5072ZM7.04162 47.4966C7.05829 47.5023 7.07607 47.5071 7.09494 47.511C7.08653 47.5342 7.07811 47.5574 7.06869 47.5806C7.06054 47.5607 7.05149 47.5397 7.03953 47.5175C7.03842 47.5184 7.03632 47.5191 7.03421 47.5199C7.03802 47.5123 7.03982 47.5045 7.04162 47.4966ZM6.8394 46.7333C6.8384 46.7432 6.8373 46.7541 6.83621 46.765C6.82596 46.756 6.81562 46.7479 6.80537 46.7389C6.81661 46.738 6.82705 46.735 6.8394 46.7333ZM6.98578 43.1761C6.99171 43.1877 6.99654 43.2003 7.00127 43.2138C6.98992 43.2056 6.97967 43.1966 6.96721 43.1893C6.97273 43.1848 6.98026 43.1806 6.98578 43.1761ZM3.71309 68.2433C3.71299 68.2443 3.71299 68.2443 3.71289 68.2453C3.71289 68.2453 3.71189 68.2452 3.71089 68.2451C3.71189 68.2452 3.71199 68.2442 3.71309 68.2433ZM2.95784 68.7751C2.93808 68.8002 2.92485 68.831 2.91705 68.8683C2.90799 68.8373 2.90003 68.8054 2.89097 68.7744C2.91658 68.772 2.93887 68.7722 2.95784 68.7751ZM4.05817 54.3386C4.05797 54.3406 4.05787 54.3416 4.05767 54.3436C4.05777 54.3426 4.05797 54.3406 4.05817 54.3386ZM4.04866 54.3828C4.04415 54.3974 4.03874 54.4108 4.03132 54.4241C4.05362 54.4444 4.0719 54.4643 4.09009 54.4852C4.04961 54.4641 4.00814 54.4429 3.96876 54.4209C3.99305 54.4113 4.01966 54.3989 4.04866 54.3828ZM2.09375 59.3757C2.08283 59.4137 2.07392 59.4519 2.06812 59.4894C2.04142 59.4928 2.02034 59.4906 2.00156 59.4858C2.03175 59.4477 2.06275 59.4117 2.09375 59.3757ZM1.78232 59.8307C1.78344 59.8599 1.77583 59.8852 1.75335 59.907C1.76207 59.8808 1.77169 59.8557 1.78232 59.8307ZM1.20995 61.0257C1.21849 61.0316 1.22712 61.0364 1.23465 61.0422C1.22552 61.0423 1.21638 61.0424 1.20724 61.0425C1.20884 61.0366 1.20935 61.0317 1.20995 61.0257ZM0.919496 56.9002C0.948748 56.9523 0.980807 56.9966 1.01647 57.0353C0.942614 57.0841 0.864248 57.1474 0.779868 57.2302C0.826272 57.1115 0.876895 57.0012 0.919496 56.9002Z" fill="#ffb794"/>
</svg>
