<svg width="85" height="102" viewBox="0 0 85 102" fill="none" xmlns="http://www.w3.org/2000/svg" id="train">
<path d="M42.5 0.583252C21.3334 0.583252 0.166687 3.22909 0.166687 21.7499V72.0208C0.166687 82.2337 8.4746 90.5416 18.6875 90.5416L10.75 98.4791V101.125H21.3334L31.9167 90.5416H53.0833L63.6667 101.125H74.25V98.4791L66.3125 90.5416C76.5254 90.5416 84.8333 82.2337 84.8333 72.0208V21.7499C84.8333 3.22909 63.6667 0.583252 42.5 0.583252ZM42.5 11.1666C61.0738 11.1666 68.7467 13.7066 71.9746 16.4583H13.0254C16.2534 13.7066 23.9263 11.1666 42.5 11.1666ZM10.75 27.0416H37.2084V42.9166H10.75V27.0416ZM74.25 72.0208C74.25 76.4128 70.7046 79.9583 66.3125 79.9583H18.6875C14.2954 79.9583 10.75 76.4128 10.75 72.0208V53.4999H74.25V72.0208ZM74.25 42.9166H47.7917V27.0416H74.25V42.9166Z" fill="white"/>
</svg>
