<svg width="28" height="28" viewBox="0 0 28 28" fill="none" xmlns="http://www.w3.org/2000/svg" id="user">
<path d="M14 0.666504C6.64002 0.666504 0.666687 6.63984 0.666687 13.9998C0.666687 21.3598 6.64002 27.3332 14 27.3332C21.36 27.3332 27.3334 21.3598 27.3334 13.9998C27.3334 6.63984 21.36 0.666504 14 0.666504ZM7.42669 22.3732C8.00002 21.1732 11.4934 19.9998 14 19.9998C16.5067 19.9998 20.0134 21.1732 20.5734 22.3732C18.76 23.8132 16.48 24.6665 14 24.6665C11.52 24.6665 9.24002 23.8132 7.42669 22.3732ZM22.48 20.4398C20.5734 18.1198 15.9467 17.3332 14 17.3332C12.0534 17.3332 7.42669 18.1198 5.52002 20.4398C4.16002 18.6532 3.33335 16.4265 3.33335 13.9998C3.33335 8.11984 8.12002 3.33317 14 3.33317C19.88 3.33317 24.6667 8.11984 24.6667 13.9998C24.6667 16.4265 23.84 18.6532 22.48 20.4398ZM14 5.99984C11.4134 5.99984 9.33335 8.07984 9.33335 10.6665C9.33335 13.2532 11.4134 15.3332 14 15.3332C16.5867 15.3332 18.6667 13.2532 18.6667 10.6665C18.6667 8.07984 16.5867 5.99984 14 5.99984ZM14 12.6665C12.8934 12.6665 12 11.7732 12 10.6665C12 9.55984 12.8934 8.6665 14 8.6665C15.1067 8.6665 16 9.55984 16 10.6665C16 11.7732 15.1067 12.6665 14 12.6665Z" fill="white"/>
</svg>
