<svg width="53" height="56" viewBox="0 0 53 56" fill="none" xmlns="http://www.w3.org/2000/svg">
<path fill-rule="evenodd" clip-rule="evenodd" d="M9.17792e-05 0.000442488C0.184384 0.000442488 0.33582 0.000442488 0.487347 0.000442488C5.36651 0.000442488 10.2457 -0.00295334 15.1248 0.00906973C15.4167 0.00980396 15.7332 0.0815753 15.996 0.207863C27.8737 5.91176 39.7467 11.6256 51.62 17.3385C51.7698 17.4106 51.9168 17.488 52.0969 17.5788C51.7304 19.0059 51.3661 20.4213 51.0034 21.8372C50.4464 24.0112 49.875 26.1816 49.3466 28.3626C49.237 28.8154 49.0442 28.9324 48.6082 28.9087C45.8755 28.7606 43.1415 28.6369 40.4084 28.4997C37.7055 28.364 35.0028 28.22 32.2999 28.083C28.8487 27.9081 25.3971 27.7384 21.946 27.5631C19.5179 27.4398 17.0901 27.3116 14.6623 27.1846C10.8305 26.9841 7.00137 26.7045 3.15941 26.8177C2.55605 26.8354 2.55779 26.8208 2.55789 27.4085C2.55972 36.4632 2.56082 45.5179 2.56229 54.5726C2.56229 54.7093 2.56229 54.846 2.56229 55.0198C1.70416 55.0198 0.872086 55.0198 0 55.0198C9.17792e-05 36.71 9.17792e-05 18.3834 9.17792e-05 0.000442488ZM2.59175 2.21985C2.59175 9.6948 2.59175 17.1347 2.59175 24.6161C2.79045 24.6161 2.95657 24.6161 3.1226 24.6161C5.0038 24.6162 6.88537 24.5943 8.76574 24.6313C9.25033 24.6409 9.40773 24.4856 9.51906 24.0409C11.0216 18.044 12.5435 12.0521 14.0598 6.05869C14.3812 4.78902 14.6995 3.51852 15.0264 2.21975C10.8705 2.21985 6.75944 2.21985 2.59175 2.21985ZM20.3027 23.4344C20.3708 23.4765 20.3954 23.5045 20.4214 23.506C22.1002 23.5983 23.7788 23.6939 25.4585 23.7649C25.5563 23.769 25.7246 23.589 25.756 23.4677C26.8213 19.345 27.872 15.2185 28.9339 11.0949C28.9971 10.8498 28.9346 10.7391 28.7154 10.6376C28.0507 10.3296 27.3949 10.0025 26.7358 9.6826C25.8888 9.27152 25.042 8.86035 24.1553 8.42981C22.8611 13.4703 21.5801 18.4593 20.3027 23.4344ZM34.2543 24.2047C36.0115 24.3002 37.7048 24.385 39.3968 24.49C39.7389 24.5112 39.7143 24.2636 39.762 24.0783C40.3467 21.8018 40.9183 19.5219 41.51 17.2471C41.5885 16.9451 41.5071 16.8155 41.2388 16.6893C40.1338 16.1694 39.039 15.6274 37.9401 15.0944C37.5608 14.9103 37.1804 14.7288 36.7463 14.52C35.9112 17.7653 35.0915 20.9512 34.2543 24.2047Z" fill="white"/>
</svg>
