<svg width="31" height="31" viewBox="0 0 31 31" fill="none" xmlns="http://www.w3.org/2000/svg">
<path d="M8.295 6.6551L5.82 4.19385L3.88125 6.1326L6.3425 8.59385L8.295 6.6551ZM0.375 14.4376H4.5V17.1876H0.375V14.4376ZM14.125 0.756348H16.875V4.8126H14.125V0.756348ZM25.18 4.18697L27.116 6.1216L24.6548 8.58285L22.7201 6.64685L25.18 4.18697ZM22.705 24.9701L25.1663 27.4451L27.105 25.5063L24.63 23.0451L22.705 24.9701ZM26.5 14.4376H30.625V17.1876H26.5V14.4376ZM15.5 7.5626C10.9488 7.5626 7.25 11.2613 7.25 15.8126C7.25 20.3638 10.9488 24.0626 15.5 24.0626C20.0513 24.0626 23.75 20.3638 23.75 15.8126C23.75 11.2613 20.0513 7.5626 15.5 7.5626ZM15.5 21.3126C12.4613 21.3126 10 18.8513 10 15.8126C10 12.7738 12.4613 10.3126 15.5 10.3126C18.5387 10.3126 21 12.7738 21 15.8126C21 18.8513 18.5387 21.3126 15.5 21.3126ZM14.125 26.8126H16.875V30.8689H14.125V26.8126ZM3.88125 25.4926L5.82 27.4314L8.28125 24.9563L6.3425 23.0176L3.88125 25.4926Z" fill="white"/>
</svg>
