<svg width="30" height="28" viewBox="0 0 30 28" fill="none" xmlns="http://www.w3.org/2000/svg">
<path d="M29.1291 8.23208C29.0636 6.74433 28.823 5.72152 28.4783 4.83523C28.1228 3.89447 27.5758 3.0522 26.8592 2.35202C26.159 1.64095 25.3112 1.08841 24.3813 0.738425C23.4899 0.393784 22.4724 0.153198 20.9847 0.0876025C19.4858 0.0164522 23.01 0 14.0027 0C10.2012 0 9.72537 0.0164522 8.23207 0.0820473C6.74432 0.147642 5.72151 0.388443 4.83544 0.73287C3.89446 1.08841 3.0522 1.63539 2.35202 2.35202C1.64094 3.0522 1.08862 3.90002 0.738425 4.82989C0.393784 5.72152 0.153198 6.73877 0.0876025 8.22652C0.0164522 9.72538 0 10.2012 0 14.0027C0 17.8043 0.0164522 18.2801 0.0820472 19.7734C0.147642 21.2611 0.388442 22.284 0.733083 23.1702C1.08862 24.111 1.64094 24.9533 2.35202 25.6534C3.0522 26.3645 3.90002 26.9171 4.82989 27.267C5.72151 27.6117 6.73877 27.8523 8.22673 27.9179C9.71982 27.9837 10.1959 27.9999 13.9974 27.9999C23.0047 27.9999 19.4805 27.9837 20.9738 27.9179C22.4615 27.8523 23.4843 27.6117 24.3704 27.267C26.2522 26.5395 27.7399 25.0518 28.4674 23.1702C28.8119 22.2786 29.0527 21.2611 29.1183 19.7734C29.1838 18.2801 29.2003 17.8043 29.2003 14.0027C29.2003 10.2012 29.1947 9.72538 29.1291 8.23208ZM26.6077 19.664C26.5474 21.0315 26.3177 21.7699 26.1263 22.2622C25.6558 23.482 24.6877 24.4501 23.4679 24.9206C22.9756 25.112 22.2318 25.3417 20.8697 25.4017C19.3929 25.4676 22.95 25.4838 14.0083 25.4838C10.2724 25.4838 9.82387 25.4676 8.35236 25.4017C6.98491 25.3417 6.24648 25.112 5.7542 24.9206C5.14718 24.6962 4.59464 24.3407 4.14616 23.8758C3.68123 23.4217 3.32569 22.8747 3.10134 22.2677C2.9099 21.7754 2.68021 21.0315 2.62017 19.6696C2.55436 18.1927 2.53812 17.7496 2.53812 14.0136C2.53812 10.2777 2.55436 9.82922 2.62017 8.35792C2.68021 6.99047 2.9099 6.25205 3.10134 5.75976C3.32569 5.15253 3.68123 4.6002 4.15172 4.15151C4.60554 3.68657 5.15252 3.33103 5.75976 3.1069C6.25204 2.91546 6.99602 2.68577 8.35792 2.62551C9.83477 2.55992 10.2779 2.54347 14.0136 2.54347C22.9608 2.54347 19.4038 2.55992 20.8753 2.62551C22.2427 2.68577 22.9812 2.91546 23.4734 3.1069C24.0805 3.33103 24.633 3.68657 25.0815 4.15151C25.5464 4.60554 25.902 5.15253 26.1263 5.75976C26.3177 6.25205 26.5474 6.99581 26.6077 8.35792C26.6733 9.83477 26.6897 10.2777 26.6897 14.0136C26.6897 17.7496 26.6733 18.1871 26.6077 19.664Z" fill="white"/>
<path d="M12.7426 18.2426L20 14L12.7426 9.75736V18.2426Z" fill="white"/>
</svg>
